<svg xmlns="http://www.w3.org/2000/svg" viewBox="0 0 70 54" width="70" height="54">
	<defs>
		<clipPath clipPathUnits="userSpaceOnUse" id="cp1">
			<path d="M-5 -13L75 -13L75 67L-5 67Z" />
		</clipPath>
	</defs>
	<style>
		tspan { white-space:pre }
		.shp0 { fill: #00aeef } 
	</style>
	<g id="Page 17" clip-path="url(#cp1)">
		<path id="Path 54" fill-rule="evenodd" class="shp0" d="M25.74 40.95L7.1 40.95L7.1 2.2C7.1 1.35 7.8 0.65 8.65 0.65L28.8 0.65C30.56 0.65 33.45 2.33 33.45 5.36L33.45 44.04C31.43 41.56 28.05 40.95 25.74 40.95ZM13.3 23.9C13.3 24.76 14 25.45 14.85 25.45L25.7 25.45C26.56 25.45 27.25 24.76 27.25 23.9C27.25 23.04 26.56 22.35 25.7 22.35L14.85 22.35C14 22.35 13.3 23.04 13.3 23.9ZM13.3 17.7C13.3 18.56 14 19.25 14.85 19.25L25.7 19.25C26.56 19.25 27.25 18.56 27.25 17.7C27.25 16.85 26.56 16.15 25.7 16.15L14.85 16.15C14 16.15 13.3 16.85 13.3 17.7ZM13.3 11.5C13.3 12.36 14 13.05 14.85 13.05L25.7 13.05C26.56 13.05 27.25 12.36 27.25 11.5C27.25 10.65 26.56 9.95 25.7 9.95L14.85 9.95C14 9.95 13.3 10.65 13.3 11.5ZM25.7 31.65C26.56 31.65 27.25 30.96 27.25 30.1C27.25 29.24 26.56 28.55 25.7 28.55L14.85 28.55C14 28.55 13.3 29.24 13.3 30.1C13.3 30.96 14 31.65 14.85 31.65L25.7 31.65ZM69.1 8.4L69.1 45.6C69.1 46.45 68.4 47.15 67.55 47.15L52.05 47.15C43.59 47.15 40.86 46.56 36.24 52.73C35.95 53.12 35.49 53.35 35 53.35C34.51 53.35 34.05 53.12 33.76 52.73C29.13 46.56 26.41 47.15 17.95 47.15L2.45 47.15C1.6 47.15 0.9 46.45 0.9 45.6L0.9 8.4C0.9 7.55 1.59 6.85 2.45 6.85L4 6.85L4 44.05L24.15 44.05C28.29 44.05 32.59 45.74 35 49.46C37.41 45.74 41.71 44.05 45.85 44.05L66 44.05L66 6.85L67.55 6.85C68.4 6.85 69.1 7.55 69.1 8.4Z" />
		<path id="Path 55" fill-rule="evenodd" class="shp0" d="M44.26 40.95C41.96 40.95 38.57 41.55 36.55 44.04L36.55 5.36C36.55 2.33 39.44 0.65 41.2 0.65L61.35 0.65C62.2 0.65 62.9 1.35 62.9 2.2L62.9 40.95L44.26 40.95ZM48.17 13.05C48.17 13.91 48.87 14.6 49.72 14.6C50.58 14.6 51.27 13.91 51.27 13.05C51.27 12.19 50.58 11.5 49.72 11.5C48.87 11.5 48.17 12.19 48.17 13.05ZM48.17 28.55C48.17 29.42 48.86 30.1 49.72 30.1C50.59 30.1 51.27 29.42 51.27 28.55L51.27 19.25C51.27 18.38 50.59 17.7 49.72 17.7C48.86 17.7 48.17 18.38 48.17 19.25L48.17 28.55Z" />
	</g>
</svg>