<svg xmlns="http://www.w3.org/2000/svg" viewBox="0 0 56 58" width="56" height="58">
	<defs>
		<clipPath clipPathUnits="userSpaceOnUse" id="cp1">
			<path d="M-12 -11L68 -11L68 69L-12 69Z" />
		</clipPath>
	</defs>
	<style>
		tspan { white-space:pre }
		.shp0 { fill: #00aeef } 
	</style>
	<g id="Page 18" clip-path="url(#cp1)">
		<path id="Path 58" class="shp0" d="M31.91 23.03C31.9 21.62 30.76 20.48 29.35 20.47L12.86 20.47C11.44 20.5 10.31 21.69 10.34 23.12C10.38 24.5 11.49 25.6 12.86 25.64L29.35 25.64C30.77 25.63 31.92 24.48 31.91 23.05L31.91 23.03ZM22.53 30.07L12.86 30.07C11.45 30.07 10.3 31.22 10.3 32.64C10.31 34.05 11.45 35.2 12.86 35.22L22.53 35.22C23.95 35.22 25.1 34.07 25.1 32.65C25.1 31.22 23.95 30.07 22.53 30.07L22.53 30.07ZM39.2 52.09L5.85 52.09L5.85 5.94L39.2 5.94L39.2 16.09L44.28 7.21L44.28 3.36C44.31 1.97 43.21 0.81 41.82 0.78L41.77 0.78L3.28 0.78C1.87 0.78 0.72 1.92 0.71 3.33L0.71 3.36L0.71 54.65C0.71 56.07 1.86 57.22 3.28 57.22L41.77 57.22C43.17 57.21 44.29 56.06 44.28 54.66L44.28 54.65L44.28 40.57L39.26 43.39L39.2 52.09ZM26.62 45.11L35.58 41.25L27.59 34.46L25.08 43.86C24.95 44.28 25.11 44.74 25.48 45C25.8 45.27 26.26 45.32 26.62 45.11ZM29.35 10.9L12.87 10.9C11.48 10.87 10.33 11.98 10.31 13.36L10.31 13.41C10.32 14.82 11.46 15.96 12.87 15.98L29.35 15.98C30.77 15.97 31.91 14.83 31.92 13.41C31.93 12.04 30.82 10.91 29.44 10.9C29.41 10.9 29.38 10.9 29.35 10.9ZM45.44 13.68L53.41 20.53L55.29 18.34L47.3 11.47L45.44 13.68ZM28.52 33.34L36.48 40.24L52.71 21.38L44.73 14.55L28.52 33.34Z" />
	</g>
</svg>