<svg xmlns="http://www.w3.org/2000/svg" width="19.202" height="18.312" viewBox="0 0 19.202 18.312"><g transform="translate(-1279.271 -490.832)"><path d="M1284.878,495.344a2.253,2.253,0,0,0,1.922-1.079h10.495a1.177,1.177,0,1,0,0-2.354H1286.8a2.251,2.251,0,0,0-3.843,0h-2.509a1.177,1.177,0,0,0,0,2.354h2.509A2.251,2.251,0,0,0,1284.878,495.344Z" transform="translate(0 0)" fill="#00AEEF"/><path d="M1287.744,500.159a2.253,2.253,0,0,0,1.922-1.079h7.629a1.177,1.177,0,1,0,0-2.354h-7.629a2.25,2.25,0,0,0-3.843,0h-5.375a1.177,1.177,0,0,0,0,2.354h5.375A2.25,2.25,0,0,0,1287.744,500.159Z" transform="translate(0 2.085)" fill="#00AEEF"/><path d="M1292.043,504.974a2.253,2.253,0,0,0,1.922-1.079h3.33a1.176,1.176,0,1,0,0-2.353h-3.33a2.251,2.251,0,0,0-3.843,0h-9.674a1.176,1.176,0,0,0,0,2.353h9.674A2.25,2.25,0,0,0,1292.043,504.974Z" transform="translate(0 4.17)" fill="#00AEEF"/></g></svg>