<svg xmlns="http://www.w3.org/2000/svg" width="149.215" height="149.857" viewBox="0 0 149.215 149.857"><g transform="translate(-1832.371 -25.771)"><g transform="translate(25.775 25.89)" opacity="0.428"><g transform="translate(1808.596 1.891)"><path d="M1914.022,138.317l-.015-.01a14.4,14.4,0,0,0-21.775,6.9l-.007.018a3.8,3.8,0,0,1-6.831.672l-.018-.031a14.4,14.4,0,0,0-22.7-2.536l-.005,0a3.8,3.8,0,0,1-6.514-2.16l-.007-.054a14.4,14.4,0,0,0-19.706-11.532h0a3.8,3.8,0,0,1-5.075-4.619l.021-.072a14.4,14.4,0,0,0-13.316-18.536h0a3.8,3.8,0,0,1-2.759-6.282l.058-.066a14.4,14.4,0,0,0-4.624-22.338l-.012-.005a3.8,3.8,0,0,1,.035-6.859l.086-.04a14.4,14.4,0,0,0,4.865-22.275l-.019-.023a3.8,3.8,0,0,1,2.824-6.25l.093,0a14.4,14.4,0,0,0,13.51-18.356l-.012-.045a3.8,3.8,0,0,1,5.124-4.556l.077.031a14.4,14.4,0,0,0,19.813-11.255l.009-.066a3.8,3.8,0,0,1,6.537-2.072l.047.051A14.4,14.4,0,0,0,1886.4,3.743l.046-.072a3.8,3.8,0,0,1,6.812.775l.017.045a14.4,14.4,0,0,0,21.614,7.228l.077-.051a3.8,3.8,0,0,1,5.908,3.482l0,.03a14.4,14.4,0,0,0,16.8,15.411l.093-.016a3.8,3.8,0,0,1,3.979,5.588l-.007.01a14.4,14.4,0,0,0,9.082,20.925l.085.023a3.8,3.8,0,0,1,1.361,6.724v0a14.4,14.4,0,0,0-.214,22.821l.06.045a3.805,3.805,0,0,1-1.49,6.7h0a14.4,14.4,0,0,0-9.474,20.774l.028.051a3.8,3.8,0,0,1-4.083,5.516h-.005a14.4,14.4,0,0,0-17.1,15.141l0,.037A3.8,3.8,0,0,1,1914.022,138.317Z" transform="translate(-1808.596 -1.891)" fill="none" stroke="#75787b" stroke-miterlimit="10" stroke-width="4"/></g><circle cx="42.722" cy="42.722" r="42.722" transform="translate(1838.467 32.088)" fill="none" stroke="#75787b" stroke-miterlimit="10" stroke-width="4.326"/><circle cx="28.849" cy="28.849" r="28.849" transform="translate(1852.341 45.961)" fill="none" stroke="#75787b" stroke-miterlimit="10" stroke-width="1.082"/></g></g></svg>