<svg xmlns="http://www.w3.org/2000/svg" viewBox="0 0 44 36" width="44" height="36">
	<defs>
		<clipPath clipPathUnits="userSpaceOnUse" id="cp1">
			<path d="M-18 -22L62 -22L62 58L-18 58Z" />
		</clipPath>
	</defs>
	<style>
		tspan { white-space:pre }
		.shp0 { fill: #1da1f2 } 
	</style>
	<g id="Page 23" clip-path="url(#cp1)">
		<path id="Path 73" class="shp0" d="M14.08 35.34C27.74 35.43 38.9 24.43 38.99 10.77C38.99 10.66 38.99 10.54 38.99 10.43C38.99 10.05 38.99 9.67 38.97 9.3C40.68 8.06 42.16 6.52 43.34 4.76C41.74 5.47 40.04 5.94 38.31 6.14C40.13 5.05 41.5 3.32 42.16 1.3C40.44 2.32 38.56 3.04 36.6 3.42C33.28 -0.11 27.74 -0.28 24.21 3.04C21.94 5.18 20.97 8.36 21.68 11.41C14.64 11.05 8.08 7.73 3.63 2.26C1.31 6.26 2.49 11.38 6.34 13.95C4.95 13.9 3.59 13.53 2.38 12.85L2.38 12.96C2.38 17.13 5.31 20.72 9.4 21.55C8.11 21.9 6.76 21.95 5.45 21.7C6.59 25.26 9.88 27.71 13.63 27.78C10.53 30.21 6.7 31.53 2.75 31.53C2.05 31.53 1.36 31.49 0.66 31.4C4.67 33.98 9.33 35.34 14.09 35.34" />
	</g>
</svg>