<svg xmlns="http://www.w3.org/2000/svg" viewBox="0 0 29 29" width="29" height="29">
	<defs>
		<clipPath clipPathUnits="userSpaceOnUse" id="cp1">
			<path d="M-10.72 -10.72L39.72 -10.72L39.72 39.72L-10.72 39.72L-10.72 -10.72Z" />
		</clipPath>
	</defs>
	<style>
		tspan { white-space:pre }
		.shp0 { fill: #00aeef } 
	</style>
	<g id="Clip-Path: Page 15" clip-path="url(#cp1)">
		<g id="Page 15">
			<path id="Path 47" class="shp0" d="M14.44 17.81C14.02 17.8 13.62 17.94 13.31 18.21C12.74 18.72 12.7 19.6 13.21 20.17C13.25 20.2 13.28 20.23 13.31 20.26C13.96 20.8 14.91 20.8 15.57 20.26C16.13 19.75 16.17 18.86 15.65 18.3C15.63 18.26 15.6 18.24 15.57 18.21C15.25 17.94 14.85 17.8 14.44 17.81ZM14.54 8.33C13.07 8.39 11.71 9.12 10.86 10.31C10.74 10.45 10.76 10.66 10.89 10.78L12.19 11.99C12.33 12.12 12.55 12.11 12.67 11.97C12.67 11.97 12.68 11.97 12.68 11.96C13.02 11.43 13.57 11.07 14.2 10.98C14.8 10.96 15.31 11.44 15.34 12.03C15.34 12.97 12.88 13.86 12.88 15.42L12.88 16.44C12.88 16.63 13.03 16.78 13.22 16.78L15.42 16.78C15.61 16.78 15.76 16.63 15.76 16.44L15.76 15.85C15.76 14.83 18.22 14.29 18.22 12.07C18.32 10.11 16.81 8.44 14.85 8.33C14.75 8.33 14.64 8.33 14.54 8.33Z" />
			<path id="Path 48" fill-rule="evenodd" class="shp0" d="M14.5 28.96C6.51 28.96 0.04 22.49 0.04 14.5C0.04 6.51 6.51 0.04 14.5 0.04C22.49 0.04 28.96 6.51 28.96 14.5C28.95 22.48 22.48 28.95 14.5 28.96ZM14.5 3.18C8.25 3.18 3.18 8.25 3.18 14.5C3.18 20.75 8.25 25.82 14.5 25.82C20.75 25.82 25.82 20.75 25.82 14.5C25.82 8.25 20.75 3.18 14.5 3.18Z" />
		</g>
	</g>
</svg>