<svg xmlns="http://www.w3.org/2000/svg" viewBox="0 0 19 27" width="19" height="27">
	<defs>
		<clipPath clipPathUnits="userSpaceOnUse" id="cp1">
			<path d="M-48.27 -298.56L1923.62 -298.56L1923.62 822.98L-48.27 822.98L-48.27 -298.56Z" />
		</clipPath>
	</defs>
	<style>
		tspan { white-space:pre }
		.shp0 { fill: #ffffff } 
	</style>
	<g id="Clip-Path: Page 1" clip-path="url(#cp1)">
		<g id="Page 1">
			<path id="Path 81" fill-rule="evenodd" class="shp0" d="M18.96 14.27L18.96 24.83C18.96 25.89 18.11 26.75 17.06 26.75L1.89 26.75C0.85 26.75 0 25.89 0 24.83L0 14.27C0 13.21 0.85 12.36 1.89 12.36L17.06 12.36C18.11 12.36 18.96 13.21 18.96 14.27ZM11.58 18.06C11.58 16.88 10.68 15.93 9.52 15.93C8.35 15.93 7.36 16.88 7.36 18.06C7.36 18.85 7.83 19.55 8.39 19.91L8.39 22.08C8.39 22.67 8.96 23.19 9.55 23.19L9.58 23.19C10.17 23.19 10.57 22.67 10.57 22.08L10.57 19.86C11.21 19.48 11.58 18.81 11.58 18.06ZM2.19 10.15L2.19 6.4C2.19 4.62 2.93 3.03 4.22 1.8C5.47 0.61 7.15 0.03 8.9 0.03L10.36 0.03C13.99 0.03 16.7 2.75 16.7 6.4L16.7 10.15C16.7 10.54 16.39 10.86 16 10.86L14.31 10.86C13.92 10.86 13.6 10.54 13.6 10.15L13.6 6.4C13.6 4.5 12.27 3.16 10.36 3.16L8.9 3.16C6.92 3.16 5.29 4.53 5.29 6.4L5.29 10.15C5.29 10.54 4.97 10.86 4.58 10.86L2.89 10.86C2.5 10.86 2.19 10.54 2.19 10.15Z" />
		</g>
	</g>
</svg>