<svg xmlns="http://www.w3.org/2000/svg" width="255" height="142.799" viewBox="0 0 255 142.799"><defs><style>.a{opacity:0.5;}.b{fill:#75787b;}</style></defs><g class="a" transform="translate(0 0.01)"><path class="b" d="M254.94,0h-.808a33.233,33.233,0,0,1-.113,5.417A53.159,53.159,0,0,1,251.352,15.9l-.281.853c-.808,2.451-1.63,4.984-2.683,7.375a47.818,47.818,0,0,1-8.2,12.551,89.105,89.105,0,0,1-8.237,7.856,128.944,128.944,0,0,1-12.87,10.023c-.838.552-1.719,1.109-2.5,1.6a59.684,59.684,0,0,0-6.811,4.77,38.952,38.952,0,0,0-9.9,13.711,55.2,55.2,0,0,0-3.031,8.316c-.19.689-.37,1.388-.544,2.065-.808,3.144-1.647,6.395-3.493,9.058-2.037,2.942-5.182,4.942-8.231,6.88q-.58.366-1.152.735a38.362,38.362,0,0,0-7.819,6.231,29.507,29.507,0,0,0-4.114,5.938c-.364.681-.713,1.4-1.053,2.1l-.014.032c-1.536,3.15-3.122,6.407-6.32,6.962a9.163,9.163,0,0,1-4.417-.584,13.8,13.8,0,0,1-3.932-1.921,17.023,17.023,0,0,1-3.954-4.993,33.21,33.21,0,0,0-2.081-3.138,17.224,17.224,0,0,0-3.738-3.512,16.972,16.972,0,0,0-6.855-2.829c-4.073-.719-8.54-.018-13.656,2.14a78.911,78.911,0,0,0-7.29,3.689l-.018.01c-1.8.99-3.657,2.02-5.538,2.9-5.546,2.616-11.61,4.2-17.471,5.74l-4.392,1.15-9.13,2.4c-6.245,1.651-12.7,3.358-19.257,3.839a101.2,101.2,0,0,1-16.01-.548c-2.705-.234-5.5-.479-8.266-.606-4.419-.2-9.13-.186-13.642,1.279a47.143,47.143,0,0,0-10.626,5.564C9.567,136.247,4.9,139.209,0,141.872v.925c5.067-2.722,9.88-5.785,14.26-8.575a46.91,46.91,0,0,1,10.44-5.477c4.388-1.424,9.011-1.439,13.355-1.241,2.758.125,5.54.368,8.241.606a101.841,101.841,0,0,0,16.129.548c6.629-.479,13.133-2.2,19.41-3.857q4.56-1.212,9.124-2.4l4.4-1.156c5.9-1.546,11.993-3.142,17.6-5.789,1.913-.9,3.788-1.936,5.6-2.936a78.531,78.531,0,0,1,7.213-3.651c4.968-2.1,9.294-2.778,13.2-2.087a16.164,16.164,0,0,1,6.53,2.685,16.471,16.471,0,0,1,3.562,3.346,32.583,32.583,0,0,1,2.035,3.071,17.732,17.732,0,0,0,4.15,5.209,14.373,14.373,0,0,0,4.164,2.045,9.83,9.83,0,0,0,4.817.606c3.609-.628,5.288-4.075,6.912-7.409.321-.663.687-1.414,1.055-2.1a28.558,28.558,0,0,1,4-5.772,37.417,37.417,0,0,1,7.658-6.1l1.055-.673.1-.063c3.109-1.976,6.326-4.021,8.458-7.1,1.927-2.782,2.784-6.1,3.615-9.328.174-.671.352-1.366.537-2.043a54.457,54.457,0,0,1,2.982-8.193,38.113,38.113,0,0,1,9.688-13.43,58.523,58.523,0,0,1,6.708-4.7l.018-.012c.822-.519,1.673-1.059,2.5-1.6a129.033,129.033,0,0,0,12.953-10.086,88.364,88.364,0,0,0,8.314-7.928,48.614,48.614,0,0,0,8.334-12.759c1.067-2.425,1.9-4.966,2.707-7.429l.285-.871a53.166,53.166,0,0,0,2.7-10.652A33.682,33.682,0,0,0,254.94,0Z" transform="translate(0 -0.008)"/><path class="b" d="M254.652,0h-.24a33.373,33.373,0,0,1-.113,5.455A53.2,53.2,0,0,1,251.617,16l-.273.843c-.808,2.457-1.637,5-2.7,7.4A48.086,48.086,0,0,1,240.4,36.873a87.136,87.136,0,0,1-8.266,7.88,128.813,128.813,0,0,1-12.9,10.046c-.826.546-1.679,1.083-2.5,1.6a59.208,59.208,0,0,0-6.777,4.746,38.631,38.631,0,0,0-9.825,13.612,55.23,55.23,0,0,0-3.019,8.28c-.186.685-.364,1.374-.542,2.063-.808,3.168-1.659,6.443-3.534,9.149-2.071,2.99-5.241,5-8.308,6.952-.386.246-.772.491-1.156.739a38.111,38.111,0,0,0-7.763,6.183A29.184,29.184,0,0,0,171.738,114c-.366.689-.719,1.414-1.063,2.119-1.564,3.215-3.18,6.538-6.53,7.118a9.389,9.389,0,0,1-4.556-.594,14.282,14.282,0,0,1-4.015-1.964,17.2,17.2,0,0,1-4.021-5.065,32.78,32.78,0,0,0-2.067-3.118,16.937,16.937,0,0,0-3.675-3.453,16.717,16.717,0,0,0-6.742-2.766c-4.017-.707-8.431-.014-13.495,2.121a78.069,78.069,0,0,0-7.261,3.677c-1.818.994-3.677,2.02-5.574,2.92-5.566,2.627-11.644,4.219-17.519,5.758L90.825,121.9q-4.56,1.194-9.124,2.4c-6.263,1.655-12.729,3.364-19.313,3.839a101.7,101.7,0,0,1-16.054-.548c-2.7-.236-5.5-.481-8.256-.606-4.392-.2-9.072-.184-13.537,1.267a47.218,47.218,0,0,0-10.561,5.534C9.676,136.516,4.96,139.518,0,142.2v.275c5.009-2.7,9.769-5.728,14.107-8.486a47.091,47.091,0,0,1,10.506-5.508c4.433-1.439,9.092-1.453,13.456-1.255,2.75.125,5.544.37,8.243.606a101.939,101.939,0,0,0,16.095.548c6.6-.479,13.086-2.192,19.358-3.849q4.558-1.212,9.124-2.4l4.392-1.152c5.888-1.542,11.975-3.136,17.562-5.774,1.9-.9,3.776-1.928,5.587-2.926a78.6,78.6,0,0,1,7.239-3.665c5.021-2.117,9.389-2.806,13.359-2.105a16.481,16.481,0,0,1,6.645,2.728,16.794,16.794,0,0,1,3.623,3.4,32.307,32.307,0,0,1,2.051,3.1,17.656,17.656,0,0,0,4.081,5.132,14.14,14.14,0,0,0,4.083,2,9.655,9.655,0,0,0,4.675.606c3.463-.606,5.11-3.982,6.7-7.251.341-.7.7-1.426,1.061-2.111a28.892,28.892,0,0,1,4.041-5.829,38.106,38.106,0,0,1,7.716-6.144c.382-.246.768-.491,1.154-.737,3.085-1.962,6.278-3.988,8.377-7.019,1.9-2.74,2.748-6.037,3.57-9.227.176-.687.354-1.374.541-2.057a54.651,54.651,0,0,1,3-8.235,38.5,38.5,0,0,1,9.763-13.537,59.214,59.214,0,0,1,6.75-4.726c.824-.521,1.677-1.061,2.507-1.606A130.269,130.269,0,0,0,232.3,44.931a88.09,88.09,0,0,0,8.284-7.9,48.275,48.275,0,0,0,8.284-12.69c1.065-2.412,1.9-4.96,2.7-7.421l.279-.853a53.022,53.022,0,0,0,2.691-10.6A33.47,33.47,0,0,0,254.652,0Z" transform="translate(0 -0.008)"/><path class="b" d="M233.594,0h-.808a21.336,21.336,0,0,1-1.831,11.125,31.537,31.537,0,0,1-6.991,8.835,70.009,70.009,0,0,1-11.6,9.369,79.215,79.215,0,0,1-12.349,5.76c-4.089,1.6-8.781,3.435-13.355,5.051l-.927.327A53.961,53.961,0,0,0,175.286,45a53.76,53.76,0,0,0-9.45,8.047l-.152.152c-4.75,4.724-9.062,8.947-13.711,12.767a101.966,101.966,0,0,1-13.234,9.2c-4.58,2.677-9.423,5.051-14.109,7.328-1.849.9-3.762,1.837-5.657,2.79-5.051,2.538-10.149,5.265-14.535,7.623l-.97.521C98.485,96.1,93.333,98.879,88.154,101.4a86.118,86.118,0,0,1-10.238,4.332,29.215,29.215,0,0,1-11,1.877,30.079,30.079,0,0,1-9.755-2.576,61.988,61.988,0,0,1-9.939-5.219c-.764-.5-1.529-1.028-2.271-1.544l-.02-.014a32.2,32.2,0,0,0-7.167-4.11h-.022a32.812,32.812,0,0,0-5.235-1.269l-.735-.135c-4.259-.808-8.5-2.006-12.608-3.174q-1.592-.463-3.2-.909l-1.041-.287-.044-.012c-4.485-1.228-9.126-2.5-11.818-6.084A13.877,13.877,0,0,1,.907,77.626,40.462,40.462,0,0,1,0,73.52v3.863c.04.156.081.309.125.463a14.483,14.483,0,0,0,2.3,4.914c2.857,3.807,7.631,5.116,12.254,6.383l1.081.3c1.065.3,2.128.606,3.2.905,4.122,1.172,8.383,2.384,12.674,3.188l.735.135A32.236,32.236,0,0,1,37.475,94.9a31.607,31.607,0,0,1,7,4.023c.75.519,1.523,1.057,2.311,1.572a63.115,63.115,0,0,0,10.064,5.277A30.735,30.735,0,0,0,66.879,108.4c.376.02.754.032,1.138.032a31.764,31.764,0,0,0,10.163-1.952,86.95,86.95,0,0,0,10.333-4.37c5.191-2.528,10.353-5.3,15.343-7.987l.97-.521c4.374-2.352,9.464-5.073,14.517-7.613,1.921-.966,3.9-1.934,5.657-2.786,4.7-2.3,9.559-4.665,14.163-7.356A102.811,102.811,0,0,0,152.5,66.588c4.677-3.839,9-8.082,13.767-12.818l.15-.15a53.432,53.432,0,0,1,9.294-7.932,53.112,53.112,0,0,1,10.3-4.461l.921-.325c4.58-1.616,9.254-3.451,13.381-5.065a79.421,79.421,0,0,0,12.474-5.823,70.371,70.371,0,0,0,11.743-9.476,32.07,32.07,0,0,0,7.16-9.074A22.163,22.163,0,0,0,233.594,0Z" transform="translate(0 -0.008)"/><path class="b" d="M233.323,0h-.242a21.617,21.617,0,0,1-1.859,11.248,31.828,31.828,0,0,1-7.051,8.92,69.878,69.878,0,0,1-11.65,9.405,78.907,78.907,0,0,1-12.4,5.783c-4.112,1.606-8.791,3.435-13.363,5.051l-.921.325a53.877,53.877,0,0,0-10.4,4.51,53.417,53.417,0,0,0-9.4,8.007l-.152.15c-4.756,4.73-9.072,8.959-13.739,12.785a102.134,102.134,0,0,1-13.262,9.207c-4.582,2.679-9.434,5.051-14.127,7.338-1.859.907-3.78,1.845-5.657,2.79-5.051,2.538-10.147,5.263-14.529,7.619l-.97.521c-4.988,2.683-10.149,5.455-15.325,7.977a86.481,86.481,0,0,1-10.27,4.346A29.564,29.564,0,0,1,66.9,107.876a30.319,30.319,0,0,1-9.85-2.6,62.383,62.383,0,0,1-9.961-5.225c-.774-.505-1.55-1.043-2.3-1.562a31.962,31.962,0,0,0-7.1-4.077h-.024a32.634,32.634,0,0,0-5.191-1.255l-.735-.137c-4.269-.808-8.522-2.01-12.634-3.18-1.065-.3-2.13-.606-3.194-.9l-1.083-.3C10.3,87.4,5.611,86.116,2.861,82.453A14.092,14.092,0,0,1,.652,77.711C.408,76.842.2,75.963.02,75.084v1.127c.123.525.255,1.049.4,1.568A14.292,14.292,0,0,0,2.673,82.6c2.8,3.718,7.518,5.013,12.092,6.265l1.081.3c1.065.295,2.13.606,3.192.9,4.118,1.172,8.377,2.382,12.656,3.186l.735.135a32.182,32.182,0,0,1,5.154,1.245,32.027,32.027,0,0,1,7.072,4.055c.752.523,1.527,1.061,2.305,1.568a62.611,62.611,0,0,0,10.017,5.253,30.626,30.626,0,0,0,9.931,2.616A29.752,29.752,0,0,0,78.1,106.219a86.606,86.606,0,0,0,10.3-4.358c5.182-2.522,10.343-5.3,15.333-7.981l.97-.521c4.382-2.356,9.478-5.079,14.525-7.617,1.877-.944,3.8-1.881,5.657-2.788,4.7-2.291,9.555-4.663,14.143-7.346a102.639,102.639,0,0,0,13.295-9.229c4.665-3.839,8.987-8.066,13.739-12.8l.15-.15a53.517,53.517,0,0,1,9.355-7.975,53.719,53.719,0,0,1,10.351-4.485l.923-.325c4.576-1.616,9.25-3.451,13.371-5.063a79.452,79.452,0,0,0,12.432-5.8,70.15,70.15,0,0,0,11.692-9.438,32.118,32.118,0,0,0,7.1-8.991A21.878,21.878,0,0,0,233.323,0Z" transform="translate(-0.016 -0.008)"/><path class="b" d="M217.069,0a23.892,23.892,0,0,1-.952,4.176,49.7,49.7,0,0,1-3.96,8.419c-.469.855-.954,1.738-1.414,2.627-1.043,1.99-1.982,4-2.841,5.877-1.633,3.572-3.233,7.231-4.764,10.769q-.681,1.57-1.368,3.14a105.459,105.459,0,0,1-6.342,12.836,54.975,54.975,0,0,1-8.961,11.127,73.855,73.855,0,0,1-14.792,10.708,101.8,101.8,0,0,1-9.836,4.875c-3.091,1.327-6.478,2.627-10.353,3.988-6.051,2.119-12.147,3.984-16.782,5.372l-.368.109c-4.156,1.247-8.454,2.534-12.741,2.534h0a19.644,19.644,0,0,1-2.392-.141,26.626,26.626,0,0,1-5.928-1.523c-.77-.281-1.588-.606-2.655-1.036-1.786-.731-3.651-1.517-5.16-2.154-3.72-1.566-7.567-3.186-11.428-4.592l-.519-.188c-.661-.236-1.321-.469-1.984-.7l-.03-.01c-.871-.307-1.77-.622-2.673-.952-.966-.352-1.818-.673-2.592-.984a40.727,40.727,0,0,1-10.531-5.8,18.406,18.406,0,0,1-3.241-3.312c-2.477-3.279-3.594-7.379-4.291-10.575a47.528,47.528,0,0,1-1.1-10.084A30.821,30.821,0,0,1,69.026,33,28.031,28.031,0,0,1,80.29,19.9a25.135,25.135,0,0,1,11.886-4.243c.537-.034,1.1-.053,1.723-.053,1.172,0,2.354.061,3.5.119h.059c.594.03,1.186.061,1.778.083.556.02,1.047.03,1.5.03a13.489,13.489,0,0,0,7.2-1.649,14.415,14.415,0,0,0,4.172-4.445,22.2,22.2,0,0,0,2.659-5.007,28.132,28.132,0,0,0,.764-2.863c.141-.618.285-1.247.459-1.865h-.843c-.152.564-.283,1.129-.4,1.687a26.74,26.74,0,0,1-.739,2.774,21.4,21.4,0,0,1-2.566,4.821,13.662,13.662,0,0,1-3.926,4.215,12.728,12.728,0,0,1-6.775,1.525c-.445,0-.925,0-1.469-.03-.584-.02-1.168-.051-1.752-.081h-.079c-1.154-.059-2.348-.119-3.538-.119-.638,0-1.212.016-1.772.053a25.863,25.863,0,0,0-12.28,4.362A28.869,28.869,0,0,0,68.27,32.7a31.639,31.639,0,0,0-2.02,11.8,48.491,48.491,0,0,0,1.125,10.25c.715,3.281,1.865,7.476,4.427,10.89A19.3,19.3,0,0,0,75.195,69.1a41.588,41.588,0,0,0,10.737,5.918c.786.313,1.641.638,2.627.992.875.319,1.77.634,2.627.94L91.32,77l1.919.681.517.188c3.839,1.4,7.678,3.015,11.4,4.58,1.683.709,3.423,1.443,5.158,2.154,1.077.44,1.905.764,2.683,1.047a27.362,27.362,0,0,0,6.11,1.568,20.844,20.844,0,0,0,2.491.147c4.407,0,8.761-1.305,12.973-2.568l.37-.111c4.647-1.39,10.749-3.257,16.816-5.382,3.885-1.36,7.29-2.671,10.4-4.009a102.572,102.572,0,0,0,9.9-4.916,73.948,73.948,0,0,0,14.951-10.822A55.843,55.843,0,0,0,196.1,48.26,107.32,107.32,0,0,0,202.5,35.33q.685-1.57,1.368-3.14c1.536-3.53,3.124-7.179,4.76-10.757.853-1.865,1.784-3.863,2.829-5.837.469-.891.97-1.8,1.414-2.608a50.426,50.426,0,0,0,4.021-8.561A24.714,24.714,0,0,0,217.9,0Z" transform="translate(-52.865 -0.008)"/><path class="b" d="M218.475-.008a24.344,24.344,0,0,1-.976,4.265,49.036,49.036,0,0,1-3.98,8.464c-.471.855-.956,1.74-1.414,2.627-1.045,1.99-1.98,3.994-2.829,5.859-1.631,3.568-3.233,7.227-4.762,10.763q-.681,1.572-1.368,3.142a106.319,106.319,0,0,1-6.36,12.87,55.479,55.479,0,0,1-9.007,11.185A73.276,73.276,0,0,1,172.93,69.91a101.492,101.492,0,0,1-9.854,4.889c-3.1,1.331-6.49,2.639-10.371,4-6.061,2.121-12.155,3.986-16.792,5.374l-.37.111c-4.966,1.489-10.1,3.031-15.25,2.4a26.957,26.957,0,0,1-5.993-1.54c-.772-.281-1.592-.606-2.663-1.041-1.723-.705-3.467-1.439-5.154-2.15-3.72-1.568-7.567-3.188-11.424-4.592l-.527-.188q-1-.361-2.02-.715c-.893-.313-1.786-.628-2.675-.952-.976-.356-1.818-.679-2.6-.988a40.923,40.923,0,0,1-10.6-5.841,18.655,18.655,0,0,1-3.3-3.352C70.832,62,69.695,57.87,69,54.639A47.954,47.954,0,0,1,67.89,44.494a31.049,31.049,0,0,1,1.98-11.607A28.314,28.314,0,0,1,81.244,19.645a25.485,25.485,0,0,1,12.026-4.289,45.965,45.965,0,0,1,5.253.069c.606.03,1.212.063,1.833.085,2.944.111,6.015,0,8.542-1.574a14.1,14.1,0,0,0,4.085-4.37,22.35,22.35,0,0,0,2.627-4.942,27.453,27.453,0,0,0,.754-2.829c.137-.606.277-1.212.442-1.8h-.249c-.16.584-.295,1.172-.428,1.75a27.093,27.093,0,0,1-.748,2.8,21.914,21.914,0,0,1-2.6,4.887,13.939,13.939,0,0,1-4.013,4.3c-2.473,1.536-5.5,1.647-8.405,1.538-.606-.022-1.212-.055-1.831-.085a45.978,45.978,0,0,0-5.281-.069,25.713,25.713,0,0,0-12.139,4.328A28.59,28.59,0,0,0,69.646,32.8a31.271,31.271,0,0,0-2,11.7,48.052,48.052,0,0,0,1.115,10.2c.709,3.253,1.847,7.417,4.374,10.779a18.938,18.938,0,0,0,3.344,3.4,41.1,41.1,0,0,0,10.662,5.875c.778.309,1.631.634,2.608.99.891.323,1.784.638,2.677.954q1.006.355,2.02.713l.517.186c3.853,1.4,7.7,3.031,11.414,4.588,1.687.711,3.435,1.445,5.156,2.152,1.073.438,1.9.76,2.673,1.043a27.142,27.142,0,0,0,6.045,1.552c5.195.632,10.357-.913,15.355-2.41l.368-.109c4.647-1.39,10.743-3.257,16.8-5.378,3.885-1.36,7.274-2.669,10.385-4a101.513,101.513,0,0,0,9.878-4.9,73.7,73.7,0,0,0,14.895-10.779A55.647,55.647,0,0,0,196.989,48.1a105.636,105.636,0,0,0,6.375-12.9q.685-1.57,1.368-3.14c1.54-3.536,3.13-7.195,4.762-10.761.853-1.865,1.786-3.865,2.829-5.849.461-.877.946-1.76,1.414-2.614a49.979,49.979,0,0,0,4-8.512,24.26,24.26,0,0,0,.982-4.336Z" transform="translate(-53.982)"/><path class="b" d="M431.828,0a15.478,15.478,0,0,1-.75,3.53l-.091.309a51.175,51.175,0,0,0-1.738,8.124c-.265,2.166-.317,4.376-.366,6.518-.049,2.075-.1,4.223-.346,6.31a50.879,50.879,0,0,1-.992,5.421,60.755,60.755,0,0,1-3.556,11.27,33.437,33.437,0,0,1-8.26,11.662,39.715,39.715,0,0,1-6.564,4.578,59.182,59.182,0,0,1-10.848,5.063A30.347,30.347,0,0,1,388.6,64.58a18.647,18.647,0,0,1-5.8-.885c-.182-.059-.362-.121-.539-.186a14.634,14.634,0,0,1-8.506-7.595,16.162,16.162,0,0,1-.505-11.557,24.119,24.119,0,0,1,2.469-5.34c.909-1.5,1.923-2.978,2.909-4.411a52.451,52.451,0,0,0,4.768-7.9,55.027,55.027,0,0,0,2-5.4c.442-1.352.911-2.748,1.453-4.085a35.358,35.358,0,0,1,8.165-12.25A33.829,33.829,0,0,1,401.6,0h-1.562a34.218,34.218,0,0,0-5.589,4.4A36.181,36.181,0,0,0,386.1,16.923c-.543,1.356-1.01,2.76-1.459,4.118v.018a54.545,54.545,0,0,1-1.972,5.312,54.2,54.2,0,0,1-4.706,7.775l-.014.02c-.984,1.43-2,2.909-2.915,4.425a25.008,25.008,0,0,0-2.552,5.518,17.018,17.018,0,0,0,.543,12.137,15.465,15.465,0,0,0,8.967,8.023c.186.067.376.131.566.2a19.471,19.471,0,0,0,6.051.925,31.425,31.425,0,0,0,9.979-1.839,59.8,59.8,0,0,0,11-5.13,40.518,40.518,0,0,0,6.694-4.671,34.24,34.24,0,0,0,8.464-11.943,61.292,61.292,0,0,0,3.6-11.418,51.307,51.307,0,0,0,1.01-5.506c.251-2.13.3-4.3.352-6.407s.1-4.3.36-6.419a50.187,50.187,0,0,1,1.711-7.995l.089-.305A16.049,16.049,0,0,0,432.656,0Z" transform="translate(-296.54 -0.008)"/><path class="b" d="M433.215,0a15.332,15.332,0,0,1-.762,3.611l-.091.307A50.813,50.813,0,0,0,430.635,12c-.265,2.154-.315,4.356-.364,6.488-.051,2.083-.1,4.243-.35,6.34a50.3,50.3,0,0,1-1,5.455A60.728,60.728,0,0,1,425.353,41.6a33.709,33.709,0,0,1-8.332,11.761,39.922,39.922,0,0,1-6.609,4.611,59.721,59.721,0,0,1-10.9,5.087c-6.126,2.061-11.262,2.358-15.7.911-.184-.061-.368-.123-.55-.19a14.933,14.933,0,0,1-8.668-7.744,16.442,16.442,0,0,1-.519-11.763,24.547,24.547,0,0,1,2.5-5.4c.913-1.509,1.93-2.988,2.913-4.419a52.1,52.1,0,0,0,4.748-7.858,54.162,54.162,0,0,0,1.99-5.364c.451-1.356.915-2.758,1.457-4.106a35.653,35.653,0,0,1,8.229-12.347A33.923,33.923,0,0,1,402.146,0h-.463a34.2,34.2,0,0,0-5.936,4.6,35.883,35.883,0,0,0-8.284,12.432c-.544,1.354-1.01,2.76-1.461,4.12a53.588,53.588,0,0,1-1.982,5.338,52.761,52.761,0,0,1-4.726,7.821c-.986,1.435-2,2.916-2.922,4.431a24.7,24.7,0,0,0-2.522,5.455,16.734,16.734,0,0,0,.529,11.933,15.2,15.2,0,0,0,8.8,7.88c.184.069.37.131.558.2,4.489,1.465,9.674,1.166,15.848-.911a59.577,59.577,0,0,0,10.947-5.108,40.115,40.115,0,0,0,6.647-4.647A34,34,0,0,0,425.578,41.7a60.53,60.53,0,0,0,3.586-11.365,50.851,50.851,0,0,0,1.01-5.477c.251-2.113.3-4.273.35-6.362.048-2.126.1-4.322.362-6.465a50.622,50.622,0,0,1,1.721-8.039l.089-.305A16,16,0,0,0,433.47.01Z" transform="translate(-297.643 -0.008)"/></g></svg>