<svg xmlns="http://www.w3.org/2000/svg" width="526.124" height="367.255" viewBox="0 0 526.124 367.255"><defs><style>.a{fill:#fff;}</style></defs><g transform="translate(0 0.005)"><path class="a" d="M526.124,254.692v-2.41c-.626-.726-1.222-1.474-1.789-2.255a57.542,57.542,0,0,1-10.752-22.587c-.39-1.81-.739-3.711-1.05-5.391l-.147-.8a56.121,56.121,0,0,0-9.522-23.242,51.461,51.461,0,0,0-10.076-10.076,45.6,45.6,0,0,0-10.215-6.218,63.985,63.985,0,0,0-9.967-2.989,64.791,64.791,0,0,1-9.446-2.792,60.11,60.11,0,0,1-9.035-4.958,25.922,25.922,0,0,1-5.915-4.618,19.162,19.162,0,0,1-3.359-6.277,33.109,33.109,0,0,1-1.26-5.214,58.845,58.845,0,0,1,0-17.213c.63-5.038,1.734-10.126,2.8-15.034v-.059c.647-2.964,1.31-6.033,1.868-9.077,2.036-11.109,2.595-22.558,3.132-33.629.164-3.359.353-7.217.588-10.966q.181-2.884.395-5.794c.97-13.624,1.973-27.709-2.939-40.581a38.475,38.475,0,0,0-5.794-10.252A32.84,32.84,0,0,0,428.327,1.521C410.6-4.348,393.388,7.861,378.2,18.634c-11,7.8-21.664,15.576-31.173,24.955-10.156,10.017-19.048,21.6-26.891,31.824-4.324,5.634-8.8,11.462-14.463,15.887-6.625,5.172-14.535,8.078-22.092,10.446-4.786,1.5-9.715,2.821-14.484,4.1-9.346,2.519-19.01,5.1-28.016,9.131-11.071,4.962-21.139,11.957-30.875,18.725q-6.806,4.736-13.624,9.459l-7.33,5.072c-9.152,6.331-18.616,12.881-26.584,20.925-2.721,2.746-5.29,5.685-7.775,8.527a143.794,143.794,0,0,1-10.076,10.756c-7.2,6.675-14.157,10.534-21.282,11.793a29.388,29.388,0,0,1-12.839-.533,29.809,29.809,0,0,1-8.174-3.5,58.818,58.818,0,0,1-5.395-3.988c-3.149-2.519-6.4-5.118-10.387-6.352a26.256,26.256,0,0,0-8.435-.907,18.127,18.127,0,0,0-8.674,1.961c-5.827,3.359-6.558,10.32-7.263,17.066-.139,1.327-.294,2.834-.5,4.253A51.841,51.841,0,0,1,58.626,220.6c-2.288,5.6-5.827,10.622-9.312,15.206-.5.663-1.012,1.327-1.52,1.982-4.1,5.336-8.342,10.849-10.076,17.469-1.574,5.983-.966,12.221-.382,18.25v.084c.122,1.26.248,2.519.348,3.779a99.412,99.412,0,0,1,0,15.891c-.9,11.256-3.678,21.021-8.216,29.023a107.65,107.65,0,0,1-8.577,12.242l-.067.088c-1.066,1.381-2.171,2.809-3.233,4.236A231.884,231.884,0,0,0,1.679,364.215c-.55.978-1.113,1.986-1.679,3.023H1.86c.42-.76.84-1.5,1.26-2.225a234.444,234.444,0,0,1,15.8-25.19c1.087-1.461,2.255-2.972,3.283-4.3a108.21,108.21,0,0,0,8.7-12.431c4.656-8.22,7.49-18.213,8.4-29.716a100.7,100.7,0,0,0,0-16.151c-.1-1.26-.231-2.561-.353-3.808v-.076c-.575-5.878-1.167-11.974.332-17.675,1.654-6.3,5.794-11.684,9.8-16.89l.113-.147,1.411-1.843c3.552-4.673,7.162-9.8,9.522-15.576a53.853,53.853,0,0,0,3.359-12.759c.2-1.415.357-2.884.5-4.316.663-6.34,1.348-12.893,6.453-15.824a16.773,16.773,0,0,1,7.9-1.742,24.646,24.646,0,0,1,7.918.84c3.69,1.142,6.684,3.535,9.854,6.071a60.5,60.5,0,0,0,5.546,4.093,31.444,31.444,0,0,0,8.615,3.695,30.933,30.933,0,0,0,13.544.563c7.444-1.314,14.694-5.307,22.109-12.2a142.852,142.852,0,0,0,10.2-10.882c2.473-2.826,5.038-5.748,7.7-8.447,7.868-7.939,17.268-14.442,26.353-20.732l6.81-4.719q7.078-4.9,14.153-9.807c9.656-6.717,19.678-13.678,30.606-18.574,8.884-3.98,18.473-6.554,27.768-9.043,4.778-1.26,9.715-2.607,14.552-4.119,7.7-2.414,15.777-5.387,22.608-10.718,5.832-4.555,10.366-10.462,14.753-16.181,7.809-10.177,16.663-21.71,26.744-31.656,9.421-9.287,20.026-17.037,31.005-24.8C394.038,9.4,410.887-2.522,427.814,3.058A31.173,31.173,0,0,1,442.37,13.264a36.825,36.825,0,0,1,5.533,9.824c4.8,12.532,3.808,26.45,2.851,39.885v.042c-.134,1.927-.273,3.85-.395,5.764-.235,3.737-.42,7.591-.584,10.991-.537,11.021-1.092,22.411-3.111,33.415-.554,3.019-1.218,6.075-1.856,9.031v.055c-1.075,4.941-2.187,10.051-2.825,15.177a62.1,62.1,0,0,0,0,17.684,34.747,34.747,0,0,0,1.339,5.458,20.289,20.289,0,0,0,3.644,6.814,26.7,26.7,0,0,0,6.3,4.958,60.987,60.987,0,0,0,9.283,5.084,65.4,65.4,0,0,0,9.694,2.872,62.165,62.165,0,0,1,9.7,2.905,44.174,44.174,0,0,1,9.849,6,49.868,49.868,0,0,1,9.761,9.765c4.484,6.117,7.591,13.712,9.236,22.57l.16.84c.323,1.768.663,3.594,1.045,5.391a58.983,58.983,0,0,0,11.05,23.225,35.972,35.972,0,0,0,3.077,3.678Z" transform="translate(0 0)"/><path class="a" d="M600.8,490.758q-3.031-.365-6.033-.894a35.975,35.975,0,0,1-11.642-4.2c-5.71-3.4-9.959-8.674-13.363-13.389-2.968-4.106-5.743-8.46-8.443-12.683-.579-.907-1.155-1.818-1.738-2.721a40.808,40.808,0,0,0-7.482-9.341,27.577,27.577,0,0,0-12.133-5.685c-7.645-1.679-15.509-.932-22.91,0l-1.293.16c-4.673.6-9.505,1.209-13.934-.134a21.665,21.665,0,0,1-8.573-5.307,64.043,64.043,0,0,1-7.746-9.434,152.354,152.354,0,0,1-9.236-14.451c-3.153-5.773-5.9-11.886-8.556-17.8l-.206-.453c-.731-1.625-1.457-3.25-2.2-4.866a108.191,108.191,0,0,0-10.021-18.2,26.694,26.694,0,0,0-7.02-7.011c-7.293-4.757-16.3-4.018-25.031-3.3l-2.036.164q-3.01.239-6.029.445c-7.8.563-15.866,1.142-23.738,2.443l-1.348.227a58.257,58.257,0,0,1-9.509,1.071c-4.916,0-9.782-1.281-14.493-2.519-1.528-.42-3.262-.84-4.946-1.26a115.156,115.156,0,0,0-20.572-2.771c-5.29-.248-12.213-.273-18.851,1.738-5.777,1.751-11.558,5.038-18.2,10.353a155.167,155.167,0,0,0-14.992,13.943c-7.314,7.557-14.434,15.534-21.319,23.263l-1.331,1.5c-6.033,6.764-13.065,14.606-20.152,22.1-2.679,2.842-5.458,5.743-7.977,8.325-6.621,6.86-13.468,13.955-19.665,21.412a187.882,187.882,0,0,0-17.083,24.191c-5.622,9.505-10.391,19.468-15.605,30.568l-.164.349c-3.132,6.675-6.373,13.578-10.987,19.384-4.236,5.336-9.656,9.77-14.854,14.06l-1.377,1.134c-6.822,5.617-13.674,11.655-19.732,16.982l-.059.05c-2.6,2.292-5.261,4.664-7.868,7.137l2.41.029c2.2-2.053,4.417-4.03,6.6-5.957,6.046-5.324,12.9-11.361,19.707-16.974l1.385-1.138c5.286-4.341,10.752-8.817,15.089-14.3,4.732-5.957,8.01-12.944,11.184-19.7l.168-.353c5.193-11.063,9.946-20.992,15.534-30.426a186.766,186.766,0,0,1,16.928-23.977c6.176-7.444,13.015-14.514,19.611-21.357,2.616-2.712,5.324-5.521,7.977-8.317,7.074-7.5,14.115-15.358,20.152-22.134l1.335-1.5c6.869-7.7,13.968-15.664,21.273-23.217a157.308,157.308,0,0,1,14.837-13.8c6.474-5.181,12.083-8.4,17.633-10.076,6.4-1.94,13.145-1.91,18.3-1.679a113.255,113.255,0,0,1,20.261,2.729c1.646.382,3.3.819,4.9,1.238,4.8,1.26,9.774,2.578,14.862,2.578h.046a58.981,58.981,0,0,0,9.778-1.1l1.339-.223c7.8-1.289,15.824-1.868,23.586-2.427q3.023-.214,6.046-.445l1.768-.143.273-.021c8.447-.693,17.18-1.406,24.006,3.044a25.164,25.164,0,0,1,6.587,6.6,105.812,105.812,0,0,1,9.862,17.927c.81,1.763,1.6,3.535,2.41,5.324,2.666,5.937,5.424,12.075,8.607,17.893a153.527,153.527,0,0,0,9.337,14.61,64.3,64.3,0,0,0,7.956,9.656,23.179,23.179,0,0,0,9.236,5.689c4.765,1.444,9.774.806,14.615.189l1.289-.16c7.263-.9,14.971-1.642,22.361,0a25.843,25.843,0,0,1,11.419,5.319,39.269,39.269,0,0,1,7.171,8.985q.768,1.2,1.528,2.393l.214.332c2.7,4.232,5.487,8.611,8.485,12.755,3.5,4.845,7.885,10.282,13.855,13.855a37.315,37.315,0,0,0,12.175,4.421q3.111.546,6.247.924C600.746,491.854,600.775,491.308,600.8,490.758Z" transform="translate(-75.63 -208.126)"/><path class="a" d="M351.663,625.976c.42-3.464.722-6.864.974-10.076.571-7.137,1.016-14.371,1.448-21.382v-.05c.126-2.074.252-4.156.382-6.23.588-9.308,1.2-17.679,2.863-25.95a100.341,100.341,0,0,1,8.4-24.644,133.5,133.5,0,0,1,18.662-27.554,186.415,186.415,0,0,1,13.8-14.48c4.467-4.2,9.455-8.552,15.249-13.3,9.06-7.41,18.339-14.4,25.413-19.669l.563-.42c7.557-5.613,15.328-11.42,24.422-13.527a48.306,48.306,0,0,1,11.1-1.087c1.49,0,3.094.038,5.189.122,3.5.138,7.2.323,10.185.47,7.356.365,14.963.743,22.461.743h.991l3.779-.034h.113c1.726,0,3.447-.038,5.172-.038,1.877,0,3.531.025,5.038.071,8.712.265,15.589,1.335,21.647,3.359a33.858,33.858,0,0,1,7.612,3.623c6.26,4.077,10.723,10.391,13.913,15.433a86.971,86.971,0,0,1,8.22,16.609,56.069,56.069,0,0,1,3.812,20.908c-.286,10.139-4.127,20.32-11.113,29.447-5.286,6.906-11.239,11.844-17.7,14.669a82.247,82.247,0,0,1-9.01,3.136c-1.062.327-2.124.655-3.182,1-5.206,1.679-10.5,3.833-13.943,8.225-2.4,3.048-3.527,6.717-4.387,10.265a41.121,41.121,0,0,0-1.436,10.261,51.31,51.31,0,0,0,.479,5.374,35.982,35.982,0,0,1,.42,7.1,16.373,16.373,0,0,1-2.3,7.053c-2.061,3.43-5.332,6.046-8.5,8.577l-.521.42c-1.579,1.259-3.153,2.519-4.757,3.833-3.17,2.557-6.436,5.189-9.707,7.746h2.645c2.729-2.158,5.458-4.349,8.094-6.487l4.74-3.82.525-.42c3.275-2.624,6.667-5.332,8.875-9.018a17.994,17.994,0,0,0,2.519-7.738,35.349,35.349,0,0,0-.42-7.44,49.157,49.157,0,0,1-.462-5.206,39.69,39.69,0,0,1,1.39-9.849c.84-3.359,1.881-6.839,4.085-9.656,3.182-4.052,8.2-6.088,13.162-7.683,1.058-.34,2.1-.668,3.182-.991a84.148,84.148,0,0,0,9.157-3.2c6.717-2.939,12.885-8.044,18.343-15.173,7.192-9.4,11.151-19.909,11.445-30.392a57.628,57.628,0,0,0-3.909-21.512,88.346,88.346,0,0,0-8.33-16.894c-3.275-5.2-7.893-11.68-14.4-15.929a35.508,35.508,0,0,0-7.977-3.8c-6.209-2.078-13.237-3.178-22.113-3.447-1.537-.05-3.208-.071-5.105-.071-1.73,0-3.464,0-5.193.038l-3.888.034h-1c-7.481,0-15.06-.378-22.39-.743-3.161-.155-6.738-.332-10.185-.47-2.133-.084-3.753-.122-5.256-.122A50.105,50.105,0,0,0,463.47,447.1c-9.421,2.187-17.356,8.1-25.027,13.813l-.563.42c-7.1,5.282-16.4,12.3-25.467,19.732-5.819,4.761-10.836,9.131-15.337,13.368a187.872,187.872,0,0,0-13.892,14.61,135.444,135.444,0,0,0-18.893,27.89,102.085,102.085,0,0,0-8.548,25.048c-1.679,8.367-2.3,16.793-2.893,26.164q-.2,3.124-.386,6.239c-.42,7.016-.873,14.274-1.444,21.412-.26,3.241-.563,6.7-.991,10.189Z" transform="translate(-203.074 -258.739)"/><path class="a" d="M437.071,668.056c.894,3.8,2.162,7.557,3.392,11.193a116.538,116.538,0,0,1,3.388,11.235c.579,2.519,1.041,5.151,1.406,7.977H446.9a82.821,82.821,0,0,0-1.461-8.346c-.9-3.883-2.187-7.708-3.438-11.4-1.209-3.585-2.464-7.288-3.359-11.029a91.657,91.657,0,0,1-1.679-9.9,110.73,110.73,0,0,1-.936-21.517,60.7,60.7,0,0,1,6.877-25.115,71.73,71.73,0,0,1,8.4-11.928,107.579,107.579,0,0,1,15.425-15.437c9.11-7.272,17.633-10.941,25.988-11.222.348,0,.693-.021,1.037-.021a26.648,26.648,0,0,1,19.266,7.691,29.418,29.418,0,0,1,8.057,19.447,44.221,44.221,0,0,1-.9,10.677c-.621,3.136-1.436,6.3-2.229,9.354a96.167,96.167,0,0,0-3.254,16.533,99.9,99.9,0,0,0-.067,10.517c.076,2.59.151,5.269.067,7.889a64.485,64.485,0,0,1-6.344,26.064,62.914,62.914,0,0,1-11.533,16.374c-.449.462-.907.924-1.373,1.377h2.3c.076-.084.16-.164.239-.244a64.628,64.628,0,0,0,11.827-16.793,66.107,66.107,0,0,0,6.508-26.719c.088-2.67,0-5.378-.067-8.019a98.282,98.282,0,0,1,.063-10.315,94.275,94.275,0,0,1,3.212-16.269c.793-3.073,1.616-6.251,2.246-9.43a45.8,45.8,0,0,0,.949-11.071,31.15,31.15,0,0,0-8.523-20.513,28.463,28.463,0,0,0-20.446-8.178c-.361,0-.726,0-1.092.021-8.741.294-17.558,4.081-26.949,11.579a109.266,109.266,0,0,0-15.66,15.664,74.287,74.287,0,0,0-8.569,12.175,62.54,62.54,0,0,0-7.066,25.778,113.251,113.251,0,0,0,.945,21.832,93.17,93.17,0,0,0,1.713,10.1Z" transform="translate(-251.922 -331.223)"/></g></svg>