<svg xmlns="http://www.w3.org/2000/svg" viewBox="0 0 120 41" width="120" height="41">
	<defs>
		<clipPath clipPathUnits="userSpaceOnUse" id="cp1">
			<path d="M-127 -180L833 -180L833 360L-127 360Z" />
		</clipPath>
	</defs>
	<style>
		tspan { white-space:pre }
		.shp0 { fill: #00447a } 
		.shp1 { fill: #007377 } 
	</style>
	<g id="Login" clip-path="url(#cp1)">
		<g id="Group 2">
			<g id="Group 1">
				<path id="Path 12" class="shp0" d="M14.34 0.56L14.34 9.66L5.18 9.66L5.18 0.56L0.5 0.56L0.5 23.68L5.18 23.68L5.18 13.57L14.34 13.57L14.34 23.68L18.99 23.68L18.99 0.56L14.34 0.56Z" />
				<path id="Path 13" class="shp0" d="M21.16 6.93L25.87 6.93L29.89 18.82L33.8 6.93L38.38 6.93L32.47 23.04L31.42 25.95C31.04 26.92 30.65 27.67 30.29 28.2C29.94 28.72 29.53 29.15 29.09 29.46C28.63 29.79 28.07 30.02 27.4 30.2C26.74 30.38 25.97 30.48 25.13 30.48C24.28 30.48 23.44 30.4 22.62 30.2L22.24 26.72C22.93 26.85 23.57 26.92 24.11 26.92C25.13 26.92 25.9 26.62 26.38 26.03C26.87 25.42 27.25 24.65 27.51 23.73L21.16 6.93Z" />
				<path id="Path 14" fill-rule="evenodd" class="shp0" d="M50.73 23.68L50.73 21.22C50.04 22.17 49.25 22.88 48.3 23.37C47.38 23.83 46.43 24.09 45.49 24.09C43.57 24.09 41.91 23.32 40.55 21.76C39.17 20.2 38.48 18.05 38.48 15.26C38.48 12.42 39.14 10.28 40.47 8.79C41.8 7.31 43.49 6.57 45.54 6.57C47.4 6.57 49.02 7.33 50.4 8.89L50.4 0.56L54.82 0.56L54.82 23.68L50.73 23.68ZM43.01 14.93C43.01 16.72 43.26 18.02 43.75 18.82C44.46 19.97 45.46 20.56 46.74 20.56C47.76 20.56 48.63 20.12 49.35 19.25C50.06 18.38 50.42 17.08 50.42 15.36C50.42 13.45 50.06 12.07 49.37 11.2C48.68 10.35 47.79 9.92 46.71 9.92C45.67 9.92 44.77 10.33 44.08 11.17C43.36 12.04 43.01 13.27 43.01 14.93Z" />
				<path id="Path 15" class="shp0" d="M61.85 23.68L57.43 23.68L57.43 6.93L61.55 6.93L61.55 9.3C62.26 8.18 62.88 7.44 63.44 7.08C64 6.72 64.64 6.54 65.36 6.54C66.36 6.54 67.33 6.82 68.27 7.39L66.89 11.25C66.15 10.76 65.46 10.53 64.82 10.53C64.21 10.53 63.67 10.71 63.24 11.04C62.8 11.38 62.47 12.01 62.21 12.91C61.96 13.8 61.85 15.67 61.85 18.54L61.85 23.68Z" />
				<path id="Path 16" fill-rule="evenodd" class="shp0" d="M68.56 15.06C68.56 13.57 68.91 12.17 69.65 10.79C70.37 9.41 71.42 8.36 72.75 7.64C74.08 6.93 75.56 6.54 77.2 6.54C79.73 6.54 81.8 7.36 83.44 9.02C85.05 10.66 85.87 12.76 85.87 15.26C85.87 17.79 85.05 19.89 83.41 21.58C81.78 23.24 79.73 24.09 77.22 24.09C75.69 24.09 74.23 23.73 72.83 23.04C71.44 22.35 70.37 21.32 69.65 19.99C68.91 18.61 68.56 17 68.56 15.06ZM73.08 15.31C73.08 16.98 73.47 18.25 74.26 19.12C75.05 20.02 76.02 20.45 77.17 20.45C78.32 20.45 79.3 20.02 80.09 19.12C80.88 18.23 81.27 16.95 81.27 15.26C81.27 13.63 80.88 12.37 80.09 11.48C79.3 10.58 78.32 10.15 77.17 10.15C76.02 10.15 75.05 10.58 74.26 11.48C73.49 12.37 73.08 13.65 73.08 15.31Z" />
				<path id="Path 17" class="shp0" d="M0.63 31.66C0.6 30.99 0.58 30.3 0.53 29.64C0.7 29.66 0.88 29.69 1.11 29.69C1.32 29.71 1.55 29.71 1.8 29.71C2.06 29.71 2.29 29.71 2.49 29.69C2.7 29.66 2.9 29.66 3.08 29.64C3.03 30.3 3.01 30.99 2.98 31.66C2.95 32.32 2.95 33.09 2.95 33.96L2.95 36.08C2.95 36.95 2.95 37.72 2.98 38.38C3.01 39.05 3.03 39.71 3.08 40.35C2.9 40.33 2.72 40.33 2.49 40.33L1.8 40.33L1.11 40.33C0.91 40.33 0.7 40.33 0.53 40.35C0.58 39.71 0.6 39.05 0.63 38.38C0.65 37.72 0.65 36.95 0.65 36.08L0.65 33.96C0.65 33.09 0.63 32.32 0.63 31.66Z" />
				<path id="Path 18" class="shp0" d="M7.43 34.03C7.71 33.6 8.07 33.27 8.45 33.01C8.84 32.78 9.3 32.65 9.78 32.65C10.55 32.65 11.16 32.88 11.57 33.34C11.98 33.8 12.21 34.52 12.21 35.54C12.21 36.08 12.21 36.54 12.19 36.95C12.16 37.36 12.16 37.77 12.16 38.18C12.16 38.51 12.16 38.87 12.19 39.25C12.21 39.64 12.21 40.02 12.24 40.38C12.11 40.35 11.93 40.35 11.73 40.35L11.06 40.35L10.4 40.35C10.19 40.35 10.01 40.35 9.89 40.38C9.96 39.84 10.01 39.2 10.01 38.46C10.04 37.72 10.04 36.9 10.04 35.93C10.04 35.26 9.94 34.8 9.71 34.5C9.48 34.19 9.17 34.03 8.76 34.03C8.3 34.03 7.94 34.24 7.74 34.65C7.51 35.06 7.41 35.62 7.41 36.34L7.41 36.95C7.41 37.59 7.41 38.18 7.43 38.74C7.46 39.3 7.48 39.84 7.53 40.35C7.41 40.33 7.23 40.33 7.02 40.33L6.38 40.33L5.72 40.33C5.51 40.33 5.36 40.33 5.21 40.35C5.26 39.84 5.28 39.3 5.31 38.74C5.33 38.18 5.33 37.59 5.33 36.95L5.33 36.34C5.33 35.7 5.33 35.11 5.31 34.55C5.28 33.98 5.26 33.42 5.21 32.86C5.38 32.88 5.59 32.88 5.77 32.91C5.95 32.93 6.13 32.93 6.33 32.93C6.51 32.93 6.71 32.93 6.89 32.91C7.07 32.88 7.28 32.88 7.48 32.86L7.43 34.03L7.43 34.03L7.43 34.03Z" />
				<path id="Path 19" class="shp0" d="M17.94 33.34C17.94 33.47 17.97 33.6 17.99 33.73L16.61 33.7C16.59 33.93 16.56 34.21 16.56 34.52C16.54 34.83 16.54 35.16 16.54 35.47C16.54 35.8 16.54 36.11 16.51 36.41L16.51 37.18C16.51 37.72 16.51 38.15 16.56 38.48C16.59 38.82 16.64 39.07 16.69 39.25C16.74 39.43 16.84 39.56 16.94 39.61C17.05 39.66 17.2 39.71 17.38 39.71C17.58 39.71 17.71 39.69 17.81 39.66C17.92 39.64 17.99 39.58 18.1 39.53L18.1 40.17C17.89 40.28 17.64 40.35 17.3 40.43C17 40.51 16.69 40.53 16.38 40.53C15.05 40.53 14.41 39.74 14.41 38.15C14.41 37.85 14.41 37.51 14.44 37.13C14.44 36.75 14.46 36.36 14.49 35.95C14.51 35.54 14.51 35.16 14.51 34.78C14.54 34.39 14.54 34.03 14.54 33.7L13.44 33.73C13.47 33.6 13.49 33.47 13.49 33.34C13.49 33.22 13.47 33.09 13.44 32.93L14.54 32.99C14.54 32.65 14.54 32.37 14.51 32.09C14.51 31.81 14.49 31.48 14.46 31.07C14.82 30.91 15.18 30.76 15.54 30.61C15.9 30.45 16.25 30.28 16.61 30.1L16.77 30.2C16.74 30.38 16.71 30.56 16.71 30.79C16.69 31.02 16.69 31.25 16.66 31.48C16.64 31.73 16.64 31.96 16.64 32.22L16.64 32.93L18.02 32.91C17.97 33.09 17.94 33.22 17.94 33.34Z" />
				<path id="Path 20" fill-rule="evenodd" class="shp0" d="M21.22 37.79C21.29 38.15 21.42 38.48 21.6 38.74C21.78 39 21.98 39.23 22.26 39.35C22.52 39.51 22.85 39.58 23.18 39.58C23.9 39.58 24.54 39.35 25.1 38.89L25.28 39.02L24.95 39.89C24.69 40.1 24.39 40.25 24 40.38C23.65 40.51 23.16 40.56 22.57 40.56C22.06 40.56 21.57 40.48 21.11 40.35C20.65 40.2 20.24 39.97 19.91 39.66C19.55 39.33 19.3 38.92 19.09 38.43C18.89 37.95 18.79 37.36 18.79 36.67C18.79 36 18.89 35.42 19.07 34.9C19.25 34.42 19.5 33.98 19.83 33.65C20.17 33.32 20.55 33.06 20.99 32.91C21.42 32.73 21.91 32.65 22.44 32.65C23.47 32.65 24.26 32.96 24.8 33.55C25.33 34.16 25.61 35.01 25.61 36.11L25.61 36.44C25.61 36.54 25.61 36.59 25.59 36.62L21.11 36.62C21.09 37.05 21.14 37.44 21.22 37.79ZM23.21 34.06C23.03 33.6 22.75 33.37 22.34 33.37C22.11 33.37 21.93 33.45 21.75 33.6C21.6 33.75 21.47 33.96 21.37 34.19C21.27 34.44 21.22 34.7 21.16 35.01C21.11 35.31 21.09 35.62 21.09 35.93L23.49 35.93C23.47 35.13 23.36 34.52 23.21 34.06Z" />
				<path id="Path 21" class="shp0" d="M29.12 34.78C29.4 34.06 29.71 33.52 30.09 33.19C30.47 32.86 30.93 32.68 31.47 32.68L31.6 32.68L31.73 32.68C31.7 32.83 31.68 33.01 31.65 33.17C31.62 33.34 31.62 33.55 31.62 33.78L31.62 34.29L31.62 34.55C31.62 34.65 31.62 34.73 31.65 34.8L31.5 34.93C31.39 34.88 31.27 34.8 31.14 34.78C31.01 34.73 30.86 34.73 30.7 34.73C30.24 34.73 29.86 34.88 29.6 35.19C29.32 35.49 29.2 35.85 29.2 36.26L29.2 36.87C29.2 37.51 29.2 38.1 29.22 38.66C29.25 39.23 29.27 39.76 29.32 40.28C29.2 40.25 29.02 40.25 28.81 40.25L28.15 40.25L27.51 40.25C27.3 40.25 27.15 40.25 27 40.28C27.05 39.76 27.07 39.23 27.1 38.66C27.1 38.1 27.12 37.51 27.12 36.87L27.12 36.26C27.12 35.62 27.12 35.03 27.1 34.47C27.07 33.91 27.05 33.34 27 32.78C27.17 32.81 27.35 32.81 27.53 32.83C27.71 32.86 27.89 32.86 28.07 32.86C28.25 32.86 28.43 32.86 28.61 32.83C28.79 32.81 28.96 32.81 29.14 32.78L29.09 34.67L29.12 34.78Z" />
				<path id="Path 22" class="shp0" d="M35.18 34.03C35.46 33.6 35.82 33.27 36.2 33.01C36.59 32.78 37.05 32.65 37.53 32.65C38.3 32.65 38.91 32.88 39.32 33.34C39.73 33.8 39.96 34.52 39.96 35.54C39.96 36.08 39.96 36.54 39.94 36.95C39.91 37.36 39.91 37.77 39.91 38.18C39.91 38.51 39.91 38.87 39.94 39.25C39.96 39.64 39.96 40.02 39.99 40.38C39.86 40.35 39.68 40.35 39.48 40.35L38.81 40.35L38.15 40.35C37.94 40.35 37.76 40.35 37.63 40.38C37.71 39.84 37.76 39.2 37.79 38.46C37.81 37.72 37.81 36.9 37.81 35.93C37.81 35.26 37.71 34.8 37.48 34.5C37.25 34.19 36.94 34.03 36.53 34.03C36.07 34.03 35.72 34.24 35.51 34.65C35.28 35.06 35.18 35.62 35.18 36.34L35.18 36.95C35.18 37.59 35.18 38.18 35.21 38.74C35.23 39.3 35.26 39.84 35.31 40.35C35.18 40.33 35 40.33 34.8 40.33L34.13 40.33L33.47 40.33C33.26 40.33 33.11 40.33 32.95 40.35C33.01 39.84 33.03 39.3 33.06 38.74C33.06 38.18 33.08 37.59 33.08 36.95L33.08 36.34C33.08 35.7 33.08 35.11 33.06 34.55C33.03 33.98 33.01 33.42 32.95 32.86C33.13 32.88 33.34 32.88 33.52 32.91C33.7 32.93 33.88 32.93 34.08 32.93C34.26 32.93 34.46 32.93 34.64 32.91C34.82 32.88 35.03 32.88 35.23 32.86L35.18 34.03L35.18 34.03L35.18 34.03Z" />
				<path id="Path 23" fill-rule="evenodd" class="shp0" d="M43.11 32.93C43.62 32.76 44.11 32.65 44.62 32.65C45.03 32.65 45.41 32.7 45.77 32.78C46.13 32.88 46.41 33.01 46.66 33.22C46.92 33.42 47.12 33.68 47.25 34.01C47.38 34.34 47.46 34.73 47.46 35.19C47.46 35.85 47.46 36.46 47.43 37.03C47.4 37.59 47.4 38.15 47.4 38.71C47.4 38.97 47.43 39.15 47.46 39.3C47.48 39.43 47.56 39.56 47.61 39.61C47.69 39.69 47.79 39.74 47.89 39.76C48.02 39.79 48.15 39.79 48.3 39.79L48.3 40.17C47.99 40.3 47.74 40.4 47.53 40.45C47.33 40.51 47.1 40.56 46.87 40.56C46.48 40.56 46.18 40.45 45.92 40.28C45.69 40.1 45.51 39.81 45.38 39.46C45.15 39.79 44.87 40.04 44.54 40.25C44.23 40.45 43.82 40.56 43.34 40.56C42.95 40.56 42.6 40.51 42.31 40.4C42.03 40.3 41.8 40.15 41.62 39.97C41.45 39.79 41.32 39.56 41.22 39.3C41.14 39.05 41.09 38.82 41.09 38.56C41.09 38.23 41.14 37.92 41.24 37.67C41.34 37.41 41.5 37.21 41.7 37.03C41.91 36.85 42.14 36.69 42.42 36.59C42.7 36.46 43.01 36.36 43.36 36.29C43.8 36.18 44.16 36.08 44.41 36C44.67 35.93 44.85 35.85 44.97 35.77C45.1 35.7 45.18 35.62 45.21 35.52C45.23 35.42 45.26 35.31 45.26 35.19C45.26 34.8 45.13 34.5 44.85 34.21C44.59 33.96 44.21 33.8 43.75 33.8C43.57 33.8 43.39 33.83 43.21 33.88C43.03 33.93 42.85 33.98 42.67 34.09C42.49 34.16 42.34 34.26 42.21 34.37C42.08 34.47 41.96 34.57 41.91 34.67L41.8 34.67L41.6 33.73C42.14 33.4 42.62 33.11 43.11 32.93ZM45.41 36.36C45.21 36.49 44.95 36.59 44.72 36.67C44.46 36.75 44.26 36.85 44.05 36.98C43.85 37.1 43.7 37.26 43.57 37.46C43.44 37.67 43.36 37.97 43.36 38.36C43.36 38.74 43.44 39.05 43.62 39.23C43.77 39.43 44 39.53 44.26 39.53C44.59 39.53 44.87 39.41 45.1 39.15C45.31 38.89 45.41 38.51 45.41 38L45.41 36.36Z" />
				<path id="Path 24" class="shp0" d="M53.49 33.34C53.49 33.47 53.52 33.6 53.54 33.73L52.16 33.7C52.14 33.93 52.14 34.21 52.11 34.52C52.08 34.83 52.08 35.16 52.08 35.47C52.08 35.8 52.08 36.11 52.06 36.41L52.06 37.18C52.06 37.72 52.06 38.15 52.11 38.48C52.14 38.82 52.19 39.07 52.24 39.25C52.29 39.43 52.39 39.56 52.49 39.61C52.6 39.66 52.75 39.71 52.93 39.71C53.13 39.71 53.26 39.69 53.36 39.66C53.47 39.64 53.54 39.58 53.64 39.53L53.64 40.17C53.44 40.28 53.18 40.35 52.88 40.43C52.57 40.51 52.26 40.53 51.96 40.53C50.63 40.53 49.99 39.74 49.99 38.15C49.99 37.85 49.99 37.51 50.01 37.13C50.01 36.75 50.04 36.36 50.06 35.95C50.09 35.54 50.09 35.16 50.12 34.78C50.12 34.39 50.14 34.03 50.14 33.7L49.04 33.73C49.07 33.6 49.09 33.47 49.09 33.34C49.09 33.22 49.09 33.09 49.04 32.93L50.14 32.99C50.14 32.65 50.14 32.37 50.12 32.09C50.12 31.81 50.09 31.48 50.06 31.07C50.42 30.91 50.78 30.76 51.14 30.61C51.5 30.45 51.85 30.28 52.21 30.1L52.37 30.2C52.34 30.38 52.34 30.56 52.31 30.79C52.29 31.02 52.29 31.25 52.26 31.48C52.24 31.73 52.24 31.96 52.24 32.22L52.24 32.93L53.62 32.91C53.49 33.09 53.49 33.22 53.49 33.34Z" />
				<path id="Path 25" class="shp0" d="M55.1 29.02C55.33 28.79 55.64 28.66 55.97 28.66C56.3 28.66 56.61 28.79 56.84 29.02C57.07 29.25 57.2 29.56 57.2 29.89C57.2 30.22 57.07 30.53 56.84 30.76C56.61 30.99 56.3 31.12 55.97 31.12C55.64 31.12 55.33 30.99 55.1 30.76C54.87 30.53 54.74 30.22 54.74 29.89C54.74 29.56 54.85 29.28 55.1 29.02ZM54.9 34.52C54.87 33.96 54.85 33.4 54.8 32.83C54.95 32.86 55.1 32.86 55.31 32.88C55.51 32.91 55.72 32.91 55.97 32.91C56.46 32.91 56.84 32.88 57.15 32.83C57.1 33.4 57.07 33.96 57.05 34.52C57.02 35.08 57.02 35.67 57.02 36.31L57.02 36.92C57.02 37.56 57.02 38.15 57.05 38.71C57.07 39.28 57.1 39.81 57.15 40.33C57.02 40.3 56.84 40.3 56.64 40.3L55.97 40.3L55.31 40.3C55.1 40.3 54.95 40.3 54.8 40.33C54.85 39.81 54.9 38.1 54.92 37.54C54.95 36.98 54.92 37.54 54.92 36.9L54.92 36.29C54.92 35.67 54.92 35.08 54.9 34.52Z" />
				<path id="Path 26" fill-rule="evenodd" class="shp0" d="M58.96 34.98C59.17 34.47 59.45 34.03 59.81 33.68C60.17 33.32 60.58 33.06 61.04 32.88C61.5 32.7 61.98 32.63 62.47 32.63C63.7 32.63 64.62 32.96 65.28 33.65C65.95 34.34 66.28 35.26 66.28 36.44C66.28 37.08 66.18 37.64 66 38.15C65.82 38.66 65.54 39.1 65.2 39.46C64.87 39.81 64.46 40.07 64 40.25C63.54 40.43 63.03 40.51 62.47 40.51C62.01 40.51 61.55 40.45 61.09 40.33C60.63 40.2 60.22 39.99 59.86 39.69C59.5 39.38 59.19 39 58.99 38.54C58.76 38.05 58.66 37.46 58.66 36.77C58.66 36.11 58.76 35.52 58.96 34.98ZM63.64 34.11C63.41 33.6 63.03 33.34 62.49 33.34C62.01 33.34 61.65 33.63 61.37 34.19C61.09 34.75 60.96 35.62 60.96 36.82C60.96 37.26 60.98 37.67 61.04 38.05C61.09 38.43 61.16 38.74 61.29 39.02C61.42 39.3 61.57 39.51 61.75 39.66C61.96 39.81 62.19 39.89 62.47 39.89C63.47 39.89 63.98 38.66 63.98 36.23C63.98 35.31 63.87 34.62 63.64 34.11Z" />
				<path id="Path 27" class="shp0" d="M69.86 34.03C70.17 33.6 70.5 33.27 70.88 33.01C71.27 32.78 71.73 32.65 72.21 32.65C73.01 32.65 73.59 32.88 74.03 33.34C74.44 33.8 74.67 34.52 74.67 35.54C74.67 36.08 74.67 36.54 74.64 36.95C74.62 37.36 74.62 37.77 74.62 38.18C74.62 38.51 74.62 38.87 74.64 39.25C74.67 39.64 74.67 40.02 74.69 40.38C74.57 40.35 74.39 40.35 74.18 40.35L73.52 40.35L72.85 40.35C72.65 40.35 72.47 40.35 72.34 40.38C72.42 39.84 72.47 39.2 72.47 38.46C72.49 37.72 72.49 36.9 72.49 35.93C72.49 35.26 72.39 34.8 72.16 34.5C71.93 34.19 71.62 34.03 71.21 34.03C70.75 34.03 70.4 34.24 70.19 34.65C69.96 35.06 69.86 35.62 69.86 36.34L69.86 36.95C69.86 37.59 69.86 38.18 69.88 38.74C69.91 39.3 69.94 39.84 69.99 40.35C69.86 40.33 69.68 40.33 69.48 40.33L68.81 40.33L68.15 40.33C67.94 40.33 67.79 40.33 67.63 40.35C67.69 39.84 67.71 39.3 67.74 38.74C67.76 38.18 67.76 37.59 67.76 36.95L67.76 36.34C67.76 35.7 67.76 35.11 67.74 34.55C67.71 33.98 67.69 33.42 67.63 32.86C67.81 32.88 68.02 32.88 68.2 32.91C68.38 32.93 68.56 32.93 68.76 32.93C68.94 32.93 69.14 32.93 69.32 32.91C69.5 32.88 69.71 32.88 69.91 32.86L69.86 34.03L69.86 34.03L69.86 34.03Z" />
				<path id="Path 28" fill-rule="evenodd" class="shp0" d="M77.81 32.93C78.32 32.76 78.81 32.65 79.32 32.65C79.73 32.65 80.11 32.7 80.47 32.78C80.83 32.88 81.11 33.01 81.37 33.22C81.62 33.42 81.83 33.68 81.96 34.01C82.08 34.34 82.16 34.73 82.16 35.19C82.16 35.85 82.16 36.46 82.14 37.03C82.11 37.59 82.11 38.15 82.11 38.71C82.11 38.97 82.14 39.15 82.16 39.3C82.19 39.43 82.26 39.56 82.31 39.61C82.39 39.69 82.49 39.74 82.6 39.76C82.72 39.79 82.85 39.79 83 39.79L83 40.17C82.7 40.3 82.44 40.4 82.24 40.45C82.03 40.51 81.8 40.56 81.57 40.56C81.19 40.56 80.88 40.45 80.63 40.28C80.4 40.1 80.22 39.81 80.09 39.46C79.86 39.79 79.58 40.04 79.25 40.25C78.94 40.45 78.53 40.56 78.04 40.56C77.66 40.56 77.3 40.51 77.02 40.4C76.74 40.3 76.51 40.15 76.33 39.97C76.15 39.79 76.02 39.56 75.92 39.3C75.84 39.05 75.79 38.82 75.79 38.56C75.79 38.23 75.84 37.92 75.97 37.67C76.07 37.41 76.23 37.21 76.43 37.03C76.64 36.85 76.87 36.69 77.15 36.59C77.43 36.46 77.74 36.36 78.09 36.29C78.53 36.18 78.89 36.08 79.14 36C79.4 35.93 79.58 35.85 79.71 35.77C79.83 35.7 79.91 35.62 79.94 35.52C79.96 35.42 79.99 35.31 79.99 35.19C79.99 34.8 79.86 34.5 79.58 34.21C79.32 33.96 78.94 33.8 78.48 33.8C78.3 33.8 78.12 33.83 77.94 33.88C77.76 33.93 77.58 33.98 77.4 34.09C77.22 34.16 77.07 34.26 76.94 34.37C76.79 34.47 76.69 34.57 76.61 34.67L76.51 34.67L76.3 33.73C76.82 33.4 77.3 33.11 77.81 32.93ZM80.09 36.98L80.09 36.36C79.86 36.49 79.63 36.59 79.4 36.67C79.14 36.75 78.94 36.85 78.73 36.98C78.53 37.1 78.38 37.26 78.22 37.46C78.09 37.67 78.02 37.97 78.02 38.36C78.02 38.74 78.09 39.05 78.25 39.23C78.4 39.43 78.63 39.53 78.89 39.53C79.22 39.53 79.5 39.41 79.73 39.15C79.94 38.89 80.04 38.51 80.04 38C80.09 37.54 80.09 37.21 80.09 36.98Z" />
				<path id="Path 29" class="shp0" d="M84.39 31.17C84.36 30.33 84.33 29.46 84.28 28.59C84.41 28.61 84.59 28.64 84.8 28.64C85 28.66 85.23 28.66 85.46 28.66C85.69 28.66 85.92 28.66 86.13 28.64C86.33 28.61 86.51 28.61 86.64 28.59C86.59 29.46 86.56 30.33 86.53 31.17C86.51 32.01 86.51 32.96 86.51 33.98L86.51 35.01C86.51 36.03 86.51 36.95 86.53 37.82C86.56 38.66 86.59 39.51 86.64 40.35C86.51 40.33 86.33 40.33 86.13 40.33L85.46 40.33L84.8 40.33C84.59 40.33 84.41 40.33 84.28 40.35C84.33 39.51 84.36 38.66 84.39 37.82C84.41 36.98 84.41 36.03 84.41 35.01L84.41 33.98C84.41 32.96 84.39 32.04 84.39 31.17Z" />
				<path id="Path 30" class="shp1" d="M90.11 0.61C90.11 0.61 120.24 2.76 119.65 6.72C119.09 10.71 98.4 11.25 96.66 12.99C96.66 12.99 94.51 13.98 99.68 14.42C104.85 14.85 119.37 15.85 118.09 19.41C116.82 22.96 97.94 23.68 97.94 25.59C97.94 27.51 111.55 27.79 113.03 29.94C114.51 32.09 112.6 33.5 107.84 34.42C103.08 35.34 97.81 34.9 98.86 36.69C99.94 38.48 109.4 38.82 110.04 38.82C110.68 38.82 109.68 40.53 107.48 40.53C105.28 40.53 92.03 39.53 94.13 36.41C96.23 33.27 99.42 32.86 108.12 31.71C110.83 31.2 105.1 30.86 103.29 30.43C103.29 30.43 89.4 29.23 91.55 25.8C93.31 22.99 102.01 21.73 105.1 21.17C108.02 20.63 112.21 20.2 111.32 19.33C110.42 18.43 91.24 18.69 90.4 14.85C89.53 11.02 97.71 10.3 99.68 9.94C101.65 9.59 112.67 8.59 111.62 7.51C110.55 6.44 89.78 4.44 87.97 4.44C86.13 4.47 89.32 0.61 90.11 0.61Z" />
				<path id="Path 31" fill-rule="evenodd" class="shp0" d="M119.68 38.08C119.68 39.48 118.58 40.58 117.17 40.58C115.77 40.58 114.67 39.48 114.67 38.08C114.67 36.67 115.77 35.57 117.17 35.57C118.58 35.57 119.68 36.64 119.68 38.08ZM115.05 38.08C115.05 39.28 115.95 40.22 117.17 40.22C118.4 40.22 119.3 39.28 119.3 38.08C119.3 36.87 118.38 35.93 117.17 35.93C115.97 35.93 115.05 36.87 115.05 38.08ZM116.58 38.23L116.58 39.51L116.23 39.51L116.23 36.62L117.33 36.62C117.99 36.62 118.27 36.9 118.27 37.41C118.27 37.92 117.94 38.15 117.56 38.23L118.43 39.51L118.02 39.51L117.2 38.23L116.58 38.23ZM117.1 37.92C117.53 37.92 117.97 37.9 117.97 37.41C117.97 37.03 117.63 36.92 117.28 36.92L116.61 36.92L116.61 37.92L117.1 37.92Z" />
			</g>
		</g>
	</g>
</svg>