<svg xmlns="http://www.w3.org/2000/svg" viewBox="0 0 22 32" width="22" height="32">
	<defs>
		<clipPath clipPathUnits="userSpaceOnUse" id="cp1">
			<path d="M-348.54 -741.33L1349.92 -741.33L1349.92 1345.78L-348.54 1345.78L-348.54 -741.33Z" />
		</clipPath>
	</defs>
	<style>
		tspan { white-space:pre }
		.shp0 { fill: #ffffff } 
	</style>
	<g id="Clip-Path: News feed" clip-path="url(#cp1)">
		<g id="News feed">
			<path id="Path 116" fill-rule="evenodd" class="shp0" d="M11.29 31.22C5.56 31.22 0.88 26.52 0.88 20.76C0.88 18.42 2.39 14.77 5.47 9.6C7.7 5.88 9.87 2.86 9.89 2.83L11.29 0.89L12.67 2.83C13.06 3.38 15.06 6.2 17.09 9.6C20.19 14.77 21.67 18.42 21.67 20.76C21.67 26.52 17.02 31.22 11.29 31.22ZM11.08 7.15C7.8 12.04 4.32 18.19 4.32 20.76C4.32 24.64 7.43 27.77 11.29 27.77C15.13 27.77 18.26 24.64 18.26 20.76C18.26 18.19 14.76 12.04 11.48 7.15L11.29 6.84L11.08 7.15ZM15.62 22.08L12.67 22.08L12.67 25.08L9.89 25.08L9.89 22.08L6.95 22.08L6.95 19.29L9.89 19.29L9.89 16.3L12.67 16.3L12.67 19.29L15.62 19.29L15.62 22.08Z" />
		</g>
	</g>
</svg>