<svg xmlns="http://www.w3.org/2000/svg" width="601.334" height="409.097" viewBox="0 0 601.334 409.097"><defs><style>.a{opacity:0.197;}.b{fill:#fff;}</style></defs><g class="a" transform="translate(542.305 409.092) rotate(-169)"><path class="b" d="M552.325,0h-1.751a72.008,72.008,0,0,1-.245,11.735c-.875,7.752-3.357,15.36-5.778,22.718l-.608,1.847c-1.751,5.31-3.533,10.8-5.813,15.977a103.6,103.6,0,0,1-17.772,27.192,193.045,193.045,0,0,1-17.846,17.019c-8.107,6.96-17.61,14.957-27.883,21.716-1.817,1.195-3.725,2.4-5.41,3.467a129.3,129.3,0,0,0-14.756,10.335c-8.54,7.258-15.758,17.251-21.449,29.7a119.594,119.594,0,0,0-6.566,18.017c-.411,1.493-.8,3.007-1.177,4.474-1.751,6.811-3.568,13.854-7.568,19.623-4.412,6.373-11.228,10.707-17.833,14.9q-1.256.792-2.5,1.593c-5.857,3.769-11.967,8.019-16.94,13.5a63.928,63.928,0,0,0-8.912,12.865c-.788,1.475-1.545,3.033-2.281,4.539l-.031.07c-3.327,6.824-6.763,13.88-13.692,15.084-3.427.6-6.912-.363-9.569-1.265a29.9,29.9,0,0,1-8.518-4.163c-3.668-2.784-6.041-6.68-8.566-10.816a71.947,71.947,0,0,0-4.509-6.8,37.316,37.316,0,0,0-8.1-7.608,36.769,36.769,0,0,0-14.852-6.128c-8.825-1.558-18.5-.039-29.586,4.636a170.96,170.96,0,0,0-15.793,7.993l-.039.022c-3.9,2.145-7.923,4.377-12,6.286-12.016,5.669-25.152,9.109-37.85,12.436l-9.516,2.491q-9.888,2.6-19.781,5.2c-13.53,3.576-27.524,7.275-41.72,8.317-11.543.836-23.3-.193-34.686-1.186-5.861-.508-11.919-1.037-17.907-1.313-9.573-.438-19.781-.4-29.555,2.771-8.347,2.71-15.806,7.441-23.02,12.055C20.726,295.177,10.619,301.594,0,307.363v2c10.978-5.9,21.4-12.532,30.895-18.577,7.122-4.535,14.484-9.227,22.617-11.867,9.507-3.086,19.523-3.117,28.934-2.688,5.975.271,12,.8,17.855,1.313,11.438,1,23.27,2.031,34.944,1.186,14.362-1.037,28.452-4.758,42.052-8.356q9.88-2.626,19.768-5.191l9.542-2.5c12.773-3.349,25.984-6.807,38.13-12.541,4.145-1.957,8.207-4.193,12.138-6.36a170.122,170.122,0,0,1,15.627-7.91c10.764-4.539,20.135-6.019,28.6-4.522a35.018,35.018,0,0,1,14.147,5.817,35.683,35.683,0,0,1,7.717,7.249,70.591,70.591,0,0,1,4.408,6.653c2.486,4.08,5.06,8.317,8.991,11.285a31.139,31.139,0,0,0,9.022,4.43c2.85.967,6.618,1.992,10.435,1.313,7.818-1.361,11.455-8.829,14.975-16.052.7-1.436,1.488-3.064,2.285-4.552a61.871,61.871,0,0,1,8.658-12.506c4.815-5.332,10.834-9.5,16.59-13.206l2.285-1.458.214-.136c6.737-4.281,13.705-8.711,18.323-15.377,4.176-6.028,6.032-13.219,7.831-20.21.376-1.453.762-2.959,1.164-4.425a117.984,117.984,0,0,1,6.461-17.75c5.581-12.221,12.646-22.009,20.989-29.1a126.792,126.792,0,0,1,14.533-10.173l.039-.026c1.782-1.125,3.624-2.294,5.419-3.476,10.352-6.807,19.912-14.848,28.063-21.851a191.438,191.438,0,0,0,18.012-17.176,105.319,105.319,0,0,0,18.056-27.642c2.311-5.253,4.119-10.759,5.866-16.1l.617-1.887c2.447-7.441,4.981-15.141,5.857-23.077A72.971,72.971,0,0,0,552.325,0Z" transform="translate(0 -0.006)"/><path class="b" d="M551.7,0h-.521a72.307,72.307,0,0,1-.245,11.819c-.875,7.818-3.379,15.461-5.809,22.849l-.591,1.825c-1.751,5.323-3.546,10.829-5.839,16.034a104.178,104.178,0,0,1-17.872,27.358,188.774,188.774,0,0,1-17.908,17.071c-8.12,6.977-17.645,14.988-27.944,21.764-1.79,1.182-3.638,2.346-5.423,3.476a128.272,128.272,0,0,0-14.681,10.282c-8.474,7.2-15.636,17.12-21.287,29.49a119.65,119.65,0,0,0-6.54,17.938c-.4,1.484-.788,2.977-1.173,4.469-1.751,6.864-3.594,13.959-7.656,19.82-4.487,6.478-11.355,10.842-18,15.062-.836.534-1.672,1.064-2.5,1.6-5.822,3.747-11.893,7.967-16.818,13.394a63.227,63.227,0,0,0-8.82,12.72c-.792,1.493-1.558,3.064-2.3,4.592-3.388,6.964-6.89,14.165-14.147,15.421-3.563.622-7.148-.359-9.871-1.287a30.942,30.942,0,0,1-8.7-4.255c-3.76-2.854-6.163-6.8-8.711-10.974a71.026,71.026,0,0,0-4.478-6.754,36.694,36.694,0,0,0-7.962-7.481,36.218,36.218,0,0,0-14.607-5.993c-8.7-1.532-18.266-.031-29.236,4.6a169.143,169.143,0,0,0-15.732,7.967c-3.94,2.154-7.967,4.377-12.077,6.325-12.059,5.691-25.226,9.14-37.955,12.475l-9.521,2.5q-9.88,2.587-19.768,5.191c-13.57,3.585-27.577,7.288-41.842,8.317-11.591.836-23.383-.193-34.782-1.186-5.857-.512-11.915-1.042-17.886-1.313-9.516-.438-19.654-.4-29.328,2.745-8.273,2.683-15.7,7.415-22.88,11.989C20.963,295.759,10.746,302.264,0,308.068v.6c10.851-5.848,21.164-12.41,30.562-18.385,7.152-4.557,14.55-9.267,22.762-11.932,9.6-3.117,19.7-3.147,29.153-2.718,5.957.271,12.011.8,17.859,1.313,11.425.994,23.235,2.027,34.869,1.186,14.3-1.037,28.352-4.749,41.939-8.339q9.875-2.626,19.768-5.191l9.516-2.5c12.755-3.34,25.944-6.794,38.047-12.51,4.123-1.944,8.181-4.176,12.1-6.338a170.287,170.287,0,0,1,15.684-7.94c10.878-4.587,20.341-6.08,28.943-4.561a35.7,35.7,0,0,1,14.4,5.909,36.383,36.383,0,0,1,7.848,7.376,70,70,0,0,1,4.443,6.706c2.46,4.031,5,8.2,8.842,11.118a30.632,30.632,0,0,0,8.846,4.334c2.806.95,6.448,1.948,10.129,1.313,7.5-1.313,11.07-8.628,14.519-15.71.74-1.519,1.506-3.09,2.3-4.574a62.593,62.593,0,0,1,8.755-12.628c4.885-5.388,10.943-9.582,16.717-13.311.827-.534,1.663-1.064,2.5-1.6,6.684-4.25,13.6-8.641,18.148-15.207,4.115-5.936,5.953-13.079,7.735-19.991.381-1.488.766-2.977,1.173-4.456a118.391,118.391,0,0,1,6.492-17.842c5.62-12.3,12.738-22.167,21.151-29.328a128.28,128.28,0,0,1,14.624-10.238c1.786-1.129,3.633-2.3,5.432-3.48,10.326-6.794,19.864-14.817,28.015-21.8a190.842,190.842,0,0,0,17.947-17.124,104.587,104.587,0,0,0,17.947-27.494c2.307-5.226,4.11-10.746,5.857-16.078l.6-1.847c2.438-7.415,4.959-15.08,5.831-22.954A72.519,72.519,0,0,0,551.7,0Z" transform="translate(0 -0.006)"/><path class="b" d="M506.079,0h-1.751a46.223,46.223,0,0,1-3.966,24.1c-3.589,7.507-9.4,13.635-15.145,19.142-7.052,6.763-15.552,14.445-25.134,20.3-8.527,5.187-17.894,9.008-26.754,12.48S414.3,83.462,404.395,86.963l-2.009.709c-7.66,2.7-15.579,5.489-22.631,9.818-7.7,4.723-14.191,11.188-20.473,17.435l-.328.328c-10.291,10.234-19.632,19.383-29.7,27.66a220.908,220.908,0,0,1-28.671,19.921c-9.923,5.8-20.416,10.943-30.567,15.876-4.005,1.957-8.151,3.979-12.256,6.045-10.943,5.5-21.987,11.407-31.49,16.515l-2.1,1.129c-10.8,5.8-21.961,11.819-33.18,17.273a186.575,186.575,0,0,1-22.18,9.385c-9.341,3.156-16.909,4.447-23.821,4.066-7.945-.438-15.469-3.209-21.133-5.581a134.3,134.3,0,0,1-21.532-11.307c-1.655-1.077-3.314-2.228-4.92-3.344l-.044-.031c-4.846-3.362-9.858-6.842-15.526-8.9h-.048a71.088,71.088,0,0,0-11.342-2.749l-1.593-.293c-9.227-1.751-18.424-4.347-27.314-6.877q-3.449-1-6.929-1.97l-2.254-.622-.1-.026c-9.718-2.661-19.772-5.415-25.6-13.18a30.064,30.064,0,0,1-4.684-10.068A87.66,87.66,0,0,1,0,159.28v8.369c.088.337.175.67.271,1A31.376,31.376,0,0,0,5.253,179.3c6.189,8.247,16.533,11.083,26.548,13.828l2.342.643c2.307.643,4.609,1.313,6.934,1.961,8.93,2.539,18.161,5.165,27.459,6.907l1.593.293A69.834,69.834,0,0,1,81.19,205.6c5.5,2,10.418,5.415,15.172,8.715,1.624,1.125,3.3,2.289,5.008,3.406a136.74,136.74,0,0,0,21.8,11.434c5.8,2.425,13.513,5.253,21.72,5.69.814.044,1.633.07,2.464.07,6.47,0,13.548-1.366,22.018-4.228a188.373,188.373,0,0,0,22.385-9.468c11.245-5.476,22.429-11.49,33.241-17.3l2.1-1.129c9.477-5.1,20.5-10.991,31.451-16.494,4.163-2.092,8.457-4.189,12.256-6.036,10.182-4.973,20.709-10.107,30.685-15.938a222.741,222.741,0,0,0,28.89-20.057c10.133-8.317,19.5-17.509,29.827-27.769l.324-.324c6.216-6.181,12.637-12.572,20.135-17.185,6.9-4.237,14.734-7,22.324-9.665l2-.7c9.923-3.5,20.048-7.476,28.991-10.974s18.385-7.354,27.025-12.615c9.726-5.922,18.319-13.7,25.441-20.529,5.866-5.62,11.819-11.893,15.513-19.658A48.017,48.017,0,0,0,506.079,0Z" transform="translate(0 -0.006)"/><path class="b" d="M505.468,0h-.525a46.834,46.834,0,0,1-4.027,24.368c-3.633,7.595-9.49,13.775-15.277,19.326C478.566,50.479,470.03,58.2,460.4,64.07c-8.566,5.213-17.947,9.048-26.855,12.528S414.5,84.039,404.594,87.541l-2,.7c-7.634,2.692-15.526,5.472-22.525,9.77-7.629,4.684-14.1,11.118-20.359,17.347l-.328.324c-10.3,10.247-19.654,19.409-29.766,27.7a221.272,221.272,0,0,1-28.732,19.947c-9.928,5.8-20.438,10.943-30.606,15.9-4.027,1.965-8.19,4-12.256,6.045-10.943,5.5-21.983,11.4-31.477,16.507l-2.1,1.129c-10.807,5.813-21.987,11.819-33.2,17.281A187.357,187.357,0,0,1,169,229.61c-9.42,3.182-17.071,4.482-24.075,4.1-8.037-.438-15.627-3.239-21.339-5.629A135.153,135.153,0,0,1,102,216.763c-1.676-1.094-3.357-2.259-4.981-3.384-4.815-3.344-9.792-6.8-15.382-8.833h-.053a70.7,70.7,0,0,0-11.245-2.718l-1.593-.3c-9.249-1.751-18.463-4.355-27.371-6.89-2.307-.657-4.614-1.313-6.92-1.952l-2.346-.648c-9.823-2.692-19.978-5.472-25.935-13.408A30.531,30.531,0,0,1,1.39,168.359c-.53-1.882-.976-3.786-1.37-5.69v2.443c.267,1.138.552,2.272.875,3.4a30.964,30.964,0,0,0,4.872,10.444c6.063,8.054,16.288,10.86,26.2,13.574l2.342.648c2.307.639,4.614,1.313,6.916,1.952,8.921,2.539,18.148,5.161,27.419,6.9l1.593.293a69.727,69.727,0,0,1,11.166,2.7c5.572,2.031,10.505,5.454,15.32,8.785,1.628,1.134,3.309,2.3,4.994,3.4a135.645,135.645,0,0,0,21.7,11.381c5.752,2.4,13.394,5.222,21.514,5.669,7.061.385,14.769-.924,24.25-4.128a187.633,187.633,0,0,0,22.324-9.442c11.228-5.463,22.407-11.477,33.219-17.29l2.1-1.129c9.494-5.1,20.534-11,31.468-16.5,4.066-2.044,8.229-4.075,12.256-6.041,10.177-4.964,20.7-10.1,30.641-15.916a222.368,222.368,0,0,0,28.8-20c10.107-8.317,19.47-17.474,29.765-27.73l.324-.324c6.242-6.207,12.694-12.624,20.267-17.277,6.956-4.268,14.821-7.039,22.425-9.718l2-.7c9.914-3.5,20.039-7.476,28.969-10.969s18.332-7.336,26.933-12.567c9.674-5.892,18.231-13.64,25.331-20.446,5.822-5.581,11.714-11.819,15.386-19.479A47.4,47.4,0,0,0,505.468,0Z" transform="translate(-0.011 -0.006)"/><path class="b" d="M393,0a51.757,51.757,0,0,1-2.062,9.048c-2.07,6.382-5.375,12.41-8.579,18.24-1.016,1.852-2.066,3.764-3.064,5.69-2.259,4.312-4.294,8.667-6.154,12.733-3.537,7.739-7,15.666-10.322,23.331q-1.475,3.4-2.963,6.8c-4.434,10.151-8.531,19.26-13.74,27.809A119.1,119.1,0,0,1,326.7,127.76c-8.72,8.317-19.2,15.925-32.046,23.2a220.543,220.543,0,0,1-21.309,10.562c-6.7,2.876-14.034,5.69-22.429,8.641-13.11,4.592-26.316,8.632-36.358,11.639l-.8.236c-9,2.7-18.315,5.489-27.6,5.489h0a42.557,42.557,0,0,1-5.183-.306,57.685,57.685,0,0,1-12.843-3.3c-1.668-.608-3.441-1.313-5.752-2.246-3.87-1.585-7.91-3.287-11.18-4.666-8.059-3.392-16.393-6.9-24.758-9.95l-1.125-.407c-1.431-.512-2.863-1.016-4.3-1.523l-.066-.022c-1.887-.665-3.834-1.348-5.791-2.062-2.092-.762-3.94-1.458-5.616-2.132-9.63-3.839-16.87-7.831-22.814-12.563a39.877,39.877,0,0,1-7.021-7.174c-5.367-7.1-7.787-15.986-9.3-22.911a102.97,102.97,0,0,1-2.39-21.847c0-9.547,1.383-17.7,4.242-24.915,4.447-11.219,12.887-21.037,24.4-28.4,8.715-5.572,17.382-8.667,25.752-9.192,1.164-.074,2.386-.114,3.734-.114,2.539,0,5.1.131,7.581.258h.127c1.287.066,2.569.131,3.852.179,1.2.044,2.267.066,3.252.066,4.587,0,10.505-.407,15.6-3.572,3.9-2.421,6.649-6.067,9.039-9.63a48.087,48.087,0,0,0,5.761-10.847,60.942,60.942,0,0,0,1.655-6.2c.306-1.339.617-2.7.994-4.04h-1.825c-.328,1.221-.613,2.447-.875,3.655a57.925,57.925,0,0,1-1.6,6.01,46.365,46.365,0,0,1-5.559,10.444c-2.281,3.414-4.889,6.885-8.505,9.131-4.714,2.933-10.322,3.3-14.677,3.3-.963,0-2,0-3.182-.066-1.265-.044-2.53-.109-3.8-.175h-.171c-2.5-.127-5.086-.258-7.665-.258-1.383,0-2.626.035-3.839.114-8.689.53-17.636,3.721-26.605,9.451C83.9,49.183,75.21,59.29,70.627,70.851c-2.942,7.441-4.377,15.793-4.377,25.568a105.055,105.055,0,0,0,2.438,22.206c1.55,7.109,4.04,16.2,9.591,23.593a41.811,41.811,0,0,0,7.349,7.485c6.084,4.841,13.473,8.917,23.261,12.821,1.7.678,3.554,1.383,5.69,2.149,1.9.692,3.834,1.374,5.69,2.035l.293.1,4.158,1.475,1.121.407c8.317,3.029,16.634,6.531,24.7,9.923,3.646,1.536,7.415,3.125,11.175,4.666,2.333.954,4.128,1.655,5.813,2.267a59.28,59.28,0,0,0,13.237,3.4,45.16,45.16,0,0,0,5.4.32c9.547,0,18.98-2.828,28.107-5.564l.8-.241c10.068-3.012,23.287-7.056,36.432-11.661,8.418-2.946,15.793-5.787,22.539-8.685a222.227,222.227,0,0,0,21.449-10.65c12.97-7.332,23.567-15,32.392-23.445a120.985,120.985,0,0,0,19.7-24.465c5.253-8.649,9.389-17.807,13.85-28.015q1.484-3.4,2.963-6.8c3.327-7.647,6.767-15.552,10.313-23.3,1.847-4.04,3.865-8.369,6.128-12.646,1.016-1.93,2.1-3.9,3.064-5.651,3.239-5.9,6.588-12,8.711-18.547A53.543,53.543,0,0,0,394.8,0Z" transform="translate(-37.251 -0.006)"/><path class="b" d="M394.409-.006a52.738,52.738,0,0,1-2.114,9.24c-2.088,6.439-5.388,12.493-8.623,18.336-1.02,1.852-2.07,3.769-3.064,5.69-2.263,4.312-4.29,8.654-6.128,12.694-3.533,7.73-7,15.658-10.317,23.318q-1.475,3.406-2.963,6.807c-4.447,10.173-8.553,19.3-13.78,27.883A120.193,120.193,0,0,1,327.905,128.2c-8.755,8.374-19.26,15.986-32.169,23.274a219.878,219.878,0,0,1-21.348,10.593c-6.71,2.885-14.06,5.717-22.469,8.658-13.132,4.6-26.334,8.636-36.38,11.644l-.8.241c-10.759,3.226-21.886,6.566-33.04,5.2a58.4,58.4,0,0,1-12.983-3.335c-1.672-.608-3.449-1.313-5.769-2.254-3.734-1.528-7.511-3.117-11.166-4.657-8.059-3.4-16.393-6.907-24.749-9.95l-1.142-.407q-2.173-.781-4.377-1.55c-1.935-.678-3.87-1.361-5.8-2.062-2.114-.77-3.94-1.471-5.634-2.14C100.4,157.594,93.1,153.575,87.111,148.8a40.416,40.416,0,0,1-7.152-7.262c-5.415-7.2-7.879-16.152-9.385-23.151a103.891,103.891,0,0,1-2.4-21.978c0-9.63,1.4-17.855,4.29-25.147C76.952,59.924,85.474,50,97.1,42.572c8.807-5.625,17.575-8.755,26.054-9.293a99.581,99.581,0,0,1,11.381.149c1.313.066,2.626.136,3.97.184,6.378.241,13.031,0,18.507-3.41,3.8-2.359,6.5-5.944,8.851-9.468a48.422,48.422,0,0,0,5.69-10.707A59.484,59.484,0,0,0,173.186,3.9c.3-1.313.6-2.626.959-3.909h-.538c-.346,1.265-.639,2.539-.928,3.791a58.7,58.7,0,0,1-1.62,6.076,47.477,47.477,0,0,1-5.629,10.589c-2.32,3.471-4.977,7-8.693,9.315-5.358,3.327-11.919,3.567-18.209,3.331-1.313-.048-2.626-.118-3.966-.184a99.611,99.611,0,0,0-11.442-.149c-8.566.547-17.417,3.7-26.3,9.376C85.1,49.624,76.51,59.643,71.975,71.068c-2.915,7.354-4.329,15.644-4.325,25.34A104.1,104.1,0,0,0,70.066,118.5c1.536,7.047,4,16.069,9.477,23.353a41.028,41.028,0,0,0,7.244,7.358c6.028,4.815,13.373,8.846,23.1,12.729,1.685.67,3.532,1.374,5.651,2.145,1.93.7,3.865,1.383,5.8,2.066q2.18.768,4.377,1.545l1.121.4c8.347,3.038,16.673,6.566,24.727,9.941,3.655,1.541,7.441,3.13,11.171,4.662,2.324.95,4.11,1.646,5.791,2.259a58.8,58.8,0,0,0,13.1,3.362c11.254,1.37,22.438-1.979,33.267-5.222l.8-.236c10.068-3.012,23.274-7.056,36.406-11.652,8.417-2.946,15.758-5.782,22.5-8.676a219.922,219.922,0,0,0,21.4-10.615c12.93-7.31,23.484-14.948,32.269-23.353a120.557,120.557,0,0,0,19.6-24.338c5.253-8.619,9.359-17.754,13.81-27.949q1.484-3.4,2.963-6.8c3.336-7.66,6.78-15.587,10.317-23.313,1.847-4.04,3.87-8.374,6.128-12.672,1-1.9,2.049-3.813,3.064-5.664,3.226-5.879,6.566-11.954,8.663-18.441a52.561,52.561,0,0,0,2.127-9.394Z" transform="translate(-38.038 0)"/></g></svg>