<svg xmlns="http://www.w3.org/2000/svg" viewBox="0 0 60 61" width="60" height="61">
	<defs>
		<clipPath clipPathUnits="userSpaceOnUse" id="cp1">
			<path d="M-10 -10L70 -10L70 70L-10 70Z" />
		</clipPath>
	</defs>
	<style>
		tspan { white-space:pre }
		.shp0 { fill: #00aeef } 
		.shp1 { fill: #ffffff } 
	</style>
	<g id="Page 26" clip-path="url(#cp1)">
		<path id="Path 84" class="shp0" d="M30 0C46.57 0 60 13.43 60 30C60 46.57 46.57 60 30 60C13.43 60 0 46.57 0 30C0 13.43 13.43 0 30 0Z" />
		<path id="Path 85" class="shp1" d="M44.89 44.36L21.05 44.36L21.05 39.28L25.08 39.28L25.08 40.33L40.85 40.33L40.85 21.18L34.59 16.3L25.07 16.3L25.07 18.04L21.04 18.04L21.04 12.26L35.97 12.26L44.89 19.22L44.89 44.36ZM15.91 26.25L15.2 26.25L15.2 28.34L15.91 28.34C16.22 28.37 16.53 28.29 16.79 28.13C17.04 27.93 17.18 27.61 17.16 27.29C17.18 26.97 17.04 26.66 16.79 26.46C16.53 26.3 16.22 26.22 15.91 26.25ZM22.65 26.35L21.73 26.35L21.73 31.09L22.65 31.09C23.85 31.18 24.88 30.29 24.97 29.1C24.98 28.98 24.98 28.86 24.97 28.74C25.01 28.06 24.76 27.39 24.28 26.91C23.83 26.52 23.25 26.33 22.65 26.35Z" />
		<path id="Path 86" fill-rule="evenodd" class="shp1" d="M9.34 21.39L36.77 21.39L36.77 36.08L9.34 36.08L9.34 21.39ZM25.57 31.71C26.43 30.97 26.89 29.87 26.83 28.74C26.9 27.6 26.43 26.51 25.57 25.77C24.71 25.11 23.64 24.78 22.56 24.84L19.91 24.84L19.91 32.64L22.56 32.64C23.64 32.69 24.7 32.36 25.57 31.71L25.57 31.71ZM18.2 29.17C18.75 28.7 19.05 28.01 19.02 27.29C19.05 26.58 18.75 25.89 18.2 25.43C17.61 25 16.89 24.79 16.17 24.84L13.37 24.84L13.37 32.64L15.2 32.64L15.2 29.75L16.17 29.75C16.89 29.8 17.61 29.59 18.2 29.17L18.2 29.17ZM32.74 24.84L27.86 24.84L27.86 32.64L29.69 32.64L29.69 29.66L32.56 29.66L32.56 28.21L29.69 28.21L29.69 26.29L32.74 26.29L32.74 24.84Z" />
	</g>
</svg>