<svg xmlns="http://www.w3.org/2000/svg" viewBox="0 0 36 52" width="36" height="52">
	<defs>
		<clipPath clipPathUnits="userSpaceOnUse" id="cp1">
			<path d="M-22 -14L58 -14L58 66L-22 66Z" />
		</clipPath>
	</defs>
	<style>
		tspan { white-space:pre }
		.shp0 { fill: #ffffff } 
	</style>
	<g id="Page 4" clip-path="url(#cp1)">
		<path id="Path 10" class="shp0" d="M24.05 31.04C20.51 36.71 17.55 32.6 14.43 32.6L14.18 32.6C12.55 32.78 11.38 34.24 11.55 35.86C11.6 36.38 11.79 36.87 12.08 37.29C14.16 40.37 18.33 41.19 21.42 39.12C21.45 39.09 21.49 39.07 21.52 39.04C24.07 37.24 25.1 33.97 24.05 31.04Z" />
		<path id="Path 11" fill-rule="evenodd" class="shp0" d="M18 51.48C8.31 51.47 0.46 43.62 0.45 33.93C0.45 29.98 2.98 23.85 8.19 15.18C11.95 8.91 15.61 3.84 15.65 3.78L18 0.52L20.35 3.78C21 4.69 24.37 9.45 27.81 15.18C33.02 23.85 35.55 29.98 35.55 33.93C35.54 43.62 27.69 51.47 18 51.48ZM17.65 11.04C12.13 19.27 6.23 29.6 6.23 33.93C6.23 40.43 11.5 45.7 18 45.7C24.5 45.7 29.77 40.43 29.77 33.93C29.77 29.6 23.87 19.27 18.34 11.04L18 10.53L17.65 11.04Z" />
	</g>
</svg>