<svg xmlns="http://www.w3.org/2000/svg" viewBox="0 0 46 50" width="46" height="50">
	<defs>
		<clipPath clipPathUnits="userSpaceOnUse" id="cp1">
			<path d="M-17 -15L63 -15L63 65L-17 65Z" />
		</clipPath>
	</defs>
	<style>
		tspan { white-space:pre }
		.shp0 { fill: #00AEEF } 
	</style>
	<g id="Page 5" clip-path="url(#cp1)">
		<path id="Path 14" class="shp0" d="M16.5 33.69L29.09 33.69L29.09 38.65L16.5 38.65L16.5 33.69ZM41.13 18.12L36.55 18.12L36.55 15.83L9.04 15.83L9.04 18.12L4.45 18.12L4.45 15.83C4.46 13.3 6.51 11.25 9.04 11.24L36.55 11.24C39.08 11.25 41.12 13.3 41.13 15.83L41.13 18.12ZM36.55 6.95L31.96 6.95L31.96 4.66L13.62 4.66L13.62 6.95L9.04 6.95L9.04 4.66C9.05 2.13 11.09 0.09 13.62 0.08L31.96 0.08C34.49 0.09 36.54 2.13 36.55 4.66L36.55 6.95Z" />
		<path id="Path 15" fill-rule="evenodd" class="shp0" d="M45.72 27C45.72 27.19 45.69 27.37 45.65 27.56L41.06 45.89C40.02 49.24 38.04 49.92 36.55 49.92L9.45 49.92C7.97 49.92 5.98 49.24 4.94 45.89L0.35 27.56C0.31 27.37 0.28 27.19 0.28 27C0.29 24.47 2.34 22.42 4.87 22.42L41.13 22.42C43.66 22.42 45.71 24.47 45.72 27ZM40.08 27.55L5.91 27.55L10.1 44.7L35.9 44.7L40.08 27.55Z" />
	</g>
</svg>