<svg xmlns="http://www.w3.org/2000/svg" viewBox="0 0 33 48" width="33" height="48">
	<defs>
		<clipPath clipPathUnits="userSpaceOnUse" id="cp1">
			<path d="M-20.17 -12.92L53.17 -12.92L53.17 60.92L-20.17 60.92L-20.17 -12.92Z" />
		</clipPath>
	</defs>
	<style>
		tspan { white-space:pre }
		.shp0 { fill: #00aeef } 
	</style>
	<g id="Clip-Path: Page 4" clip-path="url(#cp1)">
		<g id="Page 4">
			<path id="Path 10" class="shp0" d="M22.05 28.65C18.8 33.89 16.09 30.09 13.23 30.09L13 30.09C11.5 30.26 10.43 31.61 10.59 33.1C10.63 33.58 10.81 34.03 11.07 34.42C12.98 37.26 16.8 38.02 19.63 36.11C19.66 36.08 19.7 36.06 19.73 36.04C22.06 34.38 23.01 31.36 22.05 28.65Z" />
			<path id="Path 11" fill-rule="evenodd" class="shp0" d="M16.5 47.52C7.62 47.51 0.42 40.26 0.41 31.32C0.41 27.67 2.73 22.02 7.51 14.01C10.95 8.22 14.31 3.54 14.35 3.49L16.5 0.48L18.65 3.49C19.25 4.33 22.34 8.72 25.49 14.01C30.27 22.02 32.59 27.67 32.59 31.32C32.58 40.26 25.38 47.51 16.5 47.52ZM16.18 10.19C11.12 17.79 5.71 27.32 5.71 31.32C5.71 37.32 10.54 42.18 16.5 42.18C22.46 42.18 27.29 37.32 27.29 31.32C27.29 27.32 21.88 17.79 16.81 10.19L16.5 9.72L16.18 10.19Z" />
		</g>
	</g>
</svg>