<svg xmlns="http://www.w3.org/2000/svg" viewBox="0 0 50 50" width="50" height="50">
	<defs>
		<clipPath clipPathUnits="userSpaceOnUse" id="cp1">
			<path d="M-15 -15L65 -15L65 65L-15 65Z" />
		</clipPath>
	</defs>
	<style>
		tspan { white-space:pre }
		.shp0 { fill: #00aeef } 
	</style>
	<g id="Page 19" clip-path="url(#cp1)">
		<path id="Path 61" fill-rule="evenodd" class="shp0" d="M48.17 12.28C49.41 15.08 50.03 18.11 49.97 21.17C49.99 23.42 49.57 25.65 48.74 27.74C47.2 31.68 44.17 34.87 40.31 36.61C38.38 37.49 36.28 37.93 34.16 37.92C33.3 37.93 32.44 37.83 31.61 37.62C30.88 37.45 30.21 37.1 29.64 36.61C29.09 36.1 28.69 35.46 28.47 34.74C28.2 33.82 28.12 32.85 28.25 31.9L28.03 31.9C27.48 32.66 26.89 33.41 26.25 34.14C25.62 34.86 24.91 35.52 24.14 36.09C23.38 36.65 22.53 37.1 21.63 37.42C20.66 37.76 19.65 37.93 18.63 37.92C17.75 37.92 16.89 37.72 16.11 37.34C15.31 36.96 14.6 36.41 14.03 35.73C13.41 34.98 12.94 34.13 12.63 33.21C12.27 32.15 12.09 31.04 12.11 29.93C12.11 27.68 12.48 25.45 13.2 23.33C13.88 21.29 14.89 19.38 16.19 17.66C17.38 16.08 18.87 14.73 20.56 13.69C22.15 12.71 23.98 12.19 25.84 12.19C26.95 12.16 28.05 12.35 29.07 12.76C29.94 13.15 30.75 13.65 31.47 14.27L33.16 12.52L36.99 12.52L34.37 27.35C34.07 28.57 34.06 29.84 34.34 31.07C34.61 31.83 35.37 32.31 36.17 32.22C37.15 32.21 38.1 31.99 38.97 31.56C39.94 31.08 40.78 30.39 41.44 29.54C42.23 28.5 42.83 27.33 43.22 26.09C43.7 24.49 43.93 22.83 43.9 21.16C43.96 18.76 43.5 16.37 42.53 14.16C41.67 12.3 40.39 10.66 38.78 9.38C37.13 8.08 35.22 7.14 33.18 6.61C30.92 6.01 28.58 5.72 26.23 5.74C23.51 5.71 20.82 6.23 18.3 7.27C15.92 8.25 13.76 9.68 11.93 11.48C10.1 13.3 8.66 15.47 7.69 17.86C6.65 20.4 6.13 23.13 6.16 25.87C6.11 28.48 6.55 31.08 7.44 33.53C8.24 35.71 9.52 37.69 11.19 39.31C12.93 40.96 15.01 42.21 17.29 42.97C19.98 43.87 22.8 44.31 25.63 44.26C26.85 44.24 28.06 44.11 29.25 43.88C30.51 43.65 31.74 43.26 32.91 42.73L34.61 47.98C33.16 48.69 31.62 49.21 30.04 49.51C28.28 49.82 26.49 49.97 24.7 49.95C21.37 49.98 18.05 49.46 14.88 48.42C11.99 47.46 9.32 45.92 7.06 43.88C4.8 41.8 3.03 39.25 1.89 36.4C-0.68 29.59 -0.59 22.06 2.16 15.31C3.5 12.22 5.46 9.43 7.91 7.11C10.33 4.84 13.17 3.06 16.28 1.88C19.49 0.65 22.91 0.03 26.35 0.05C29.52 0.02 32.68 0.51 35.7 1.5C38.45 2.39 40.99 3.8 43.2 5.66C45.32 7.48 47.02 9.74 48.18 12.28M29.73 19.16C29.29 18.77 28.79 18.46 28.25 18.23C27.64 17.99 26.99 17.88 26.33 17.9C25.25 17.9 24.19 18.22 23.3 18.83C22.35 19.47 21.54 20.28 20.9 21.23C20.21 22.25 19.68 23.36 19.34 24.54C18.98 25.7 18.8 26.91 18.79 28.12C18.75 29.16 19 30.19 19.53 31.08C20.11 31.89 21.08 32.33 22.08 32.23C22.65 32.21 23.21 32.05 23.71 31.76C24.33 31.43 24.9 31.02 25.41 30.53C25.99 29.99 26.52 29.41 27 28.78C27.51 28.13 27.97 27.43 28.37 26.7L29.73 19.16Z" />
	</g>
</svg>