<svg xmlns="http://www.w3.org/2000/svg" viewBox="0 0 42 48" width="42" height="48">
	<defs>
		<clipPath clipPathUnits="userSpaceOnUse" id="cp1">
			<path d="M-19 -16L61 -16L61 64L-19 64Z" />
		</clipPath>
	</defs>
	<style>
		tspan { white-space:pre }
		.shp0 { fill: #ffffff } 
	</style>
	<g id="Page 2" clip-path="url(#cp1)">
		<path id="Path 4" fill-rule="evenodd" class="shp0" d="M41.4 36.54C41.37 36.58 41.33 36.61 41.3 36.65C41.26 36.7 41.22 36.75 41.17 36.79L41.15 36.81C41.12 36.84 41.08 36.87 41.04 36.89C41 36.92 40.96 36.96 40.91 36.99C40.87 37.02 40.81 37.04 40.76 37.07C40.71 37.09 40.67 37.11 40.62 37.13C40.56 37.15 40.5 37.17 40.44 37.18C40.39 37.2 40.35 37.21 40.31 37.22C40.19 37.24 40.08 37.25 39.97 37.25L2.04 37.25C1.93 37.25 1.81 37.24 1.7 37.22C1.66 37.22 1.62 37.2 1.57 37.18C1.51 37.17 1.45 37.15 1.39 37.13C1.34 37.11 1.3 37.09 1.25 37.07C1.2 37.04 1.15 37.02 1.1 36.99C1.05 36.96 1.02 36.92 0.97 36.89C0.93 36.86 0.89 36.84 0.86 36.81L0.84 36.79C0.79 36.75 0.75 36.7 0.7 36.65C0.68 36.61 0.64 36.58 0.61 36.54C0.58 36.49 0.55 36.44 0.52 36.39C0.5 36.34 0.47 36.3 0.44 36.25C0.42 36.2 0.41 36.15 0.39 36.1C0.37 36.04 0.35 35.99 0.34 35.93C0.33 35.88 0.32 35.83 0.31 35.79C0.3 35.72 0.29 35.66 0.29 35.59L0.29 35.56C0.29 35.51 0.29 35.47 0.3 35.42C0.3 35.37 0.31 35.32 0.31 35.27C0.32 35.21 0.34 35.15 0.35 35.1C0.36 35.05 0.38 35 0.39 34.95C0.42 34.89 0.44 34.83 0.47 34.78C0.49 34.73 0.51 34.69 0.53 34.65C0.59 34.55 0.66 34.46 0.73 34.38L5.53 29.06C6.25 28.27 6.65 27.24 6.65 26.17L6.65 18.23C6.7 11.35 11.71 5.5 18.51 4.38L18.51 3.18C18.51 1.8 19.62 0.68 21 0.68L21 0.68C22.38 0.68 23.49 1.8 23.49 3.17L23.49 4.38C30.29 5.5 35.3 11.35 35.35 18.23L35.35 26.17C35.35 27.24 35.75 28.27 36.47 29.06L41.27 34.38C41.35 34.46 41.41 34.55 41.47 34.65C41.49 34.69 41.51 34.74 41.53 34.78C41.56 34.83 41.59 34.89 41.61 34.95C41.62 35 41.64 35.05 41.65 35.1C41.66 35.16 41.68 35.21 41.69 35.27C41.69 35.32 41.7 35.37 41.7 35.42C41.7 35.47 41.71 35.51 41.71 35.56L41.71 35.59C41.7 35.66 41.7 35.72 41.69 35.79C41.69 35.84 41.68 35.89 41.66 35.93C41.65 35.98 41.63 36.04 41.61 36.1C41.59 36.15 41.58 36.2 41.55 36.25C41.53 36.3 41.5 36.34 41.48 36.39C41.45 36.43 41.42 36.49 41.39 36.54L41.4 36.54ZM14.4 40.85L27.6 40.85L27.6 40.85C27.56 44.46 24.6 47.36 21 47.32C17.39 47.35 14.43 44.46 14.4 40.85Z" />
	</g>
</svg>