<svg xmlns="http://www.w3.org/2000/svg" viewBox="0 0 42 33" width="42" height="33">
	<defs>
		<clipPath clipPathUnits="userSpaceOnUse" id="cp1">
			<path d="M-9 -13.5L51 -13.5L51 46.5L-9 46.5L-9 -13.5Z" />
		</clipPath>
	</defs>
	<style>
		tspan { white-space:pre }
		.shp0 { fill: #00aeef } 
	</style>
	<g id="Clip-Path: Page 3" clip-path="url(#cp1)">
		<g id="Page 3">
			<path id="Path 7" fill-rule="evenodd" class="shp0" d="M21.7 8.02C21.7 3.62 18.13 0.06 13.73 0.06C9.33 0.06 5.77 3.62 5.77 8.02C5.77 12.42 9.33 15.98 13.73 15.98C18.13 15.98 21.7 12.42 21.7 8.02ZM25.93 21.75C28.88 24.73 30.54 28.75 30.54 32.94L41.8 32.94C42.65 26.98 38.5 21.46 32.53 20.61C32.02 20.54 31.51 20.5 30.99 20.5C29.23 20.5 27.49 20.93 25.93 21.75ZM37.81 10.6C37.81 6.83 34.76 3.78 30.99 3.78C27.22 3.78 24.16 6.84 24.16 10.6C24.16 14.38 27.22 17.43 30.99 17.43C34.76 17.43 37.81 14.37 37.81 10.6ZM13.76 19.33C6.22 19.3 0.1 25.4 0.08 32.94L27.38 32.94C27.37 25.43 21.28 19.34 13.76 19.33Z" />
		</g>
	</g>
</svg>