<svg xmlns="http://www.w3.org/2000/svg" viewBox="0 0 44 54" width="44" height="54">
	<defs>
		<clipPath clipPathUnits="userSpaceOnUse" id="cp1">
			<path d="M-18 -13L62 -13L62 67L-18 67Z" />
		</clipPath>
	</defs>
	<style>
		tspan { white-space:pre }
		.shp0 { fill: #ffffff } 
	</style>
	<g id="Page 6" clip-path="url(#cp1)">
		<path id="Path 18" class="shp0" d="M12.04 12.42L31.93 12.42L31.93 17.38L12.04 17.38L12.04 12.42ZM12.04 21.89L31.93 21.89L31.93 26.84L12.04 26.84L12.04 21.89ZM12.04 31.35L24.63 31.35L24.63 36.3L12.04 36.3L12.04 31.35Z" />
		<path id="Path 19" fill-rule="evenodd" class="shp0" d="M43.37 3.31L43.37 50.68C43.37 52.25 42.1 53.52 40.53 53.52L8.85 50.56C4.19 50.12 0.63 46.22 0.63 41.54L0.63 0.48L40.53 0.48C42.1 0.48 43.36 1.75 43.37 3.31ZM37.69 6.16L6.32 6.16L6.32 42.2C6.32 43.87 7.67 45.22 9.34 45.22L9.88 45.22C11.66 45.34 13.32 44.32 14.01 42.67C14.09 42.4 14.37 42.24 14.65 42.31L37.69 47.74L37.69 6.16Z" />
	</g>
</svg>