<svg xmlns="http://www.w3.org/2000/svg" viewBox="0 0 44 37" width="44" height="37">
	<defs>
		<clipPath clipPathUnits="userSpaceOnUse" id="cp1">
			<path d="M-11.85 -15.14L55.85 -15.14L55.85 52.14L-11.85 52.14L-11.85 -15.14Z" />
		</clipPath>
	</defs>
	<style>
		tspan { white-space:pre }
		.shp0 { fill: #00AEEF } 
	</style>
	<g id="Clip-Path: Page 1" clip-path="url(#cp1)">
		<g id="Page 1">
			<path id="Path 1" fill-rule="evenodd" class="shp0" d="M39.46 35.52C38.41 36.59 36.7 36.6 35.63 35.56C34.66 34.61 34.54 33.09 35.35 32C39.5 26.3 39.5 18.58 35.35 12.87C30.04 5.54 19.75 3.88 12.37 9.17C5 14.45 3.33 24.67 8.65 32C9.46 33.09 9.34 34.6 8.37 35.55C8.28 35.64 8.2 35.71 8.11 35.78C6.92 36.68 5.22 36.44 4.32 35.27C-1.3 27.62 -1.3 17.25 4.32 9.6C11.45 -0.11 25.15 -2.23 34.91 4.86C44.68 11.94 46.82 25.56 39.68 35.27C39.62 35.36 39.54 35.44 39.46 35.52ZM28.8 13.09C28.33 16.37 26.67 27.36 25.65 29.38C24.42 31.76 21.5 32.72 19.1 31.53C16.7 30.36 15.72 27.48 16.9 25.11C16.91 25.09 16.91 25.08 16.91 25.07C17.95 23.05 25.89 15.17 28.25 12.82C28.37 12.7 28.57 12.69 28.7 12.81C28.79 12.87 28.82 12.98 28.8 13.09Z" />
		</g>
	</g>
</svg>