<svg xmlns="http://www.w3.org/2000/svg" viewBox="0 0 71 24" width="71" height="24">
	<defs>
		<clipPath clipPathUnits="userSpaceOnUse" id="cp1">
			<path d="M-22 -472L938 -472L938 68L-22 68Z" />
		</clipPath>
	</defs>
	<style>
		tspan { white-space:pre }
		.shp0 { fill: #ffffff } 
	</style>
	<g id="Main View – 1" clip-path="url(#cp1)">
		<g id="Group 1">
			<path id="Path 12" class="shp0" d="M8.63 0L8.63 5.35L3.25 5.35L3.25 0L0.5 0L0.5 13.58L3.25 13.58L3.25 7.65L8.63 7.65L8.63 13.58L11.36 13.58L11.36 0L8.63 0Z" />
			<path id="Path 13" class="shp0" d="M12.64 3.74L15.41 3.74L17.76 10.73L20.06 3.74L22.75 3.74L19.28 13.21L18.67 14.92C18.44 15.49 18.22 15.93 18 16.24C17.79 16.54 17.55 16.8 17.3 16.98C17.03 17.17 16.7 17.31 16.31 17.42C15.92 17.52 15.47 17.58 14.97 17.58C14.47 17.58 13.98 17.54 13.5 17.42L13.27 15.37C13.68 15.45 14.05 15.49 14.37 15.49C14.97 15.49 15.42 15.31 15.71 14.97C15.99 14.61 16.22 14.15 16.37 13.61L12.64 3.74Z" />
			<path id="Path 14" fill-rule="evenodd" class="shp0" d="M30.01 13.58L30.01 12.14C29.61 12.7 29.14 13.12 28.58 13.4C28.04 13.67 27.49 13.82 26.93 13.82C25.8 13.82 24.83 13.37 24.03 12.46C23.22 11.54 22.81 10.28 22.81 8.64C22.81 6.97 23.2 5.71 23.99 4.84C24.77 3.97 25.76 3.53 26.96 3.53C28.06 3.53 29 3.98 29.82 4.9L29.82 0L32.42 0L32.42 13.58L30.01 13.58ZM25.47 8.44C25.47 9.5 25.62 10.26 25.91 10.73C26.33 11.4 26.92 11.75 27.67 11.75C28.27 11.75 28.78 11.49 29.2 10.98C29.62 10.47 29.83 9.71 29.83 8.7C29.83 7.57 29.62 6.76 29.21 6.25C28.81 5.75 28.28 5.5 27.65 5.5C27.04 5.5 26.51 5.74 26.1 6.24C25.68 6.75 25.47 7.47 25.47 8.44Z" />
			<path id="Path 15" class="shp0" d="M36.55 13.58L33.95 13.58L33.95 3.74L36.37 3.74L36.37 5.14C36.79 4.48 37.15 4.04 37.48 3.83C37.81 3.62 38.18 3.52 38.61 3.52C39.19 3.52 39.76 3.68 40.32 4.01L39.51 6.28C39.07 6 38.67 5.86 38.29 5.86C37.93 5.86 37.61 5.97 37.36 6.16C37.1 6.36 36.91 6.73 36.76 7.26C36.61 7.78 36.55 8.88 36.55 10.56L36.55 13.58Z" />
			<path id="Path 16" fill-rule="evenodd" class="shp0" d="M40.48 8.52C40.48 7.65 40.69 6.82 41.13 6.01C41.55 5.2 42.17 4.58 42.95 4.16C43.73 3.74 44.6 3.52 45.56 3.52C47.05 3.52 48.27 4 49.23 4.97C50.18 5.94 50.66 7.17 50.66 8.64C50.66 10.13 50.18 11.36 49.21 12.35C48.25 13.33 47.05 13.82 45.58 13.82C44.68 13.82 43.82 13.61 42.99 13.21C42.18 12.8 41.55 12.2 41.13 11.42C40.69 10.61 40.48 9.66 40.48 8.52ZM43.14 8.67C43.14 9.65 43.37 10.4 43.83 10.91C44.3 11.43 44.87 11.69 45.55 11.69C46.22 11.69 46.79 11.43 47.26 10.91C47.73 10.38 47.95 9.63 47.95 8.64C47.95 7.68 47.73 6.94 47.26 6.42C46.79 5.89 46.22 5.63 45.55 5.63C44.87 5.63 44.3 5.89 43.83 6.42C43.38 6.94 43.14 7.69 43.14 8.67Z" />
			<path id="Path 17" class="shp0" d="M0.58 18.27C0.56 17.88 0.55 17.48 0.52 17.08C0.62 17.1 0.73 17.11 0.86 17.11C0.98 17.13 1.12 17.13 1.27 17.13C1.42 17.13 1.55 17.13 1.67 17.11C1.79 17.1 1.91 17.1 2.02 17.08C1.99 17.48 1.97 17.88 1.96 18.27C1.94 18.66 1.94 19.11 1.94 19.62L1.94 20.87C1.94 21.38 1.94 21.83 1.96 22.22C1.97 22.61 1.99 23 2.02 23.38C1.91 23.37 1.81 23.37 1.67 23.37L1.27 23.37L0.86 23.37C0.74 23.37 0.62 23.37 0.52 23.38C0.55 23 0.56 22.61 0.58 22.22C0.59 21.83 0.59 21.38 0.59 20.87L0.59 19.62C0.59 19.11 0.58 18.66 0.58 18.27Z" />
			<path id="Path 18" class="shp0" d="M4.57 19.67C4.74 19.41 4.95 19.22 5.17 19.07C5.4 18.93 5.67 18.86 5.95 18.86C6.41 18.86 6.77 18.99 7.01 19.26C7.25 19.53 7.38 19.95 7.38 20.56C7.38 20.87 7.38 21.14 7.37 21.38C7.35 21.62 7.35 21.86 7.35 22.1C7.35 22.3 7.35 22.51 7.37 22.73C7.38 22.96 7.38 23.18 7.4 23.4C7.32 23.38 7.22 23.38 7.1 23.38L6.71 23.38L6.31 23.38C6.19 23.38 6.09 23.38 6.01 23.4C6.06 23.08 6.09 22.7 6.09 22.27C6.1 21.83 6.1 21.35 6.1 20.78C6.1 20.39 6.04 20.12 5.91 19.94C5.77 19.76 5.59 19.67 5.35 19.67C5.08 19.67 4.87 19.79 4.75 20.03C4.62 20.27 4.56 20.6 4.56 21.02L4.56 21.38C4.56 21.76 4.56 22.1 4.57 22.43C4.59 22.76 4.6 23.08 4.63 23.38C4.56 23.37 4.45 23.37 4.33 23.37L3.96 23.37L3.57 23.37C3.45 23.37 3.35 23.37 3.26 23.38C3.29 23.08 3.31 22.76 3.32 22.43C3.34 22.1 3.34 21.76 3.34 21.38L3.34 21.02C3.34 20.65 3.34 20.3 3.32 19.97C3.31 19.64 3.29 19.31 3.26 18.98C3.37 18.99 3.49 18.99 3.6 19.01C3.7 19.02 3.81 19.02 3.93 19.02C4.03 19.02 4.15 19.02 4.26 19.01C4.36 18.99 4.48 18.99 4.6 18.98L4.57 19.67L4.57 19.67L4.57 19.67Z" />
			<path id="Path 19" class="shp0" d="M10.75 19.26C10.75 19.34 10.76 19.41 10.78 19.49L9.97 19.47C9.95 19.61 9.94 19.77 9.94 19.95C9.92 20.13 9.92 20.33 9.92 20.51C9.92 20.71 9.92 20.89 9.91 21.07L9.91 21.52C9.91 21.83 9.91 22.09 9.94 22.28C9.95 22.48 9.98 22.63 10.01 22.73C10.04 22.84 10.1 22.91 10.16 22.94C10.22 22.97 10.31 23 10.42 23C10.54 23 10.61 22.99 10.67 22.97C10.73 22.96 10.78 22.93 10.84 22.9L10.84 23.28C10.72 23.34 10.57 23.38 10.37 23.43C10.19 23.47 10.01 23.49 9.83 23.49C9.05 23.49 8.67 23.02 8.67 22.09C8.67 21.91 8.67 21.71 8.69 21.49C8.69 21.26 8.7 21.04 8.72 20.8C8.73 20.56 8.73 20.33 8.73 20.1C8.75 19.88 8.75 19.67 8.75 19.47L8.1 19.49C8.12 19.41 8.13 19.34 8.13 19.26C8.13 19.19 8.12 19.11 8.1 19.02L8.75 19.05C8.75 18.86 8.75 18.69 8.73 18.53C8.73 18.36 8.72 18.17 8.7 17.93C8.91 17.84 9.12 17.75 9.34 17.66C9.55 17.57 9.76 17.46 9.97 17.35L10.06 17.42C10.04 17.52 10.03 17.63 10.03 17.76C10.01 17.9 10.01 18.03 10 18.17C9.98 18.32 9.98 18.45 9.98 18.6L9.98 19.02L10.79 19.01C10.76 19.11 10.75 19.19 10.75 19.26Z" />
			<path id="Path 20" fill-rule="evenodd" class="shp0" d="M12.67 21.88C12.72 22.09 12.79 22.28 12.9 22.43C13 22.58 13.12 22.72 13.29 22.79C13.44 22.88 13.63 22.93 13.83 22.93C14.25 22.93 14.62 22.79 14.95 22.52L15.06 22.6L14.86 23.11C14.71 23.23 14.53 23.32 14.31 23.4C14.1 23.47 13.81 23.5 13.47 23.5C13.17 23.5 12.88 23.46 12.61 23.38C12.34 23.29 12.1 23.15 11.9 22.97C11.69 22.78 11.54 22.54 11.42 22.25C11.3 21.97 11.24 21.62 11.24 21.22C11.24 20.83 11.3 20.48 11.41 20.18C11.51 19.89 11.66 19.64 11.86 19.44C12.05 19.25 12.28 19.1 12.54 19.01C12.79 18.9 13.08 18.86 13.39 18.86C13.99 18.86 14.46 19.04 14.77 19.38C15.09 19.74 15.26 20.24 15.26 20.89L15.26 21.08C15.26 21.14 15.26 21.17 15.24 21.19L12.61 21.19C12.6 21.44 12.63 21.67 12.67 21.88ZM13.84 19.68C13.74 19.41 13.57 19.28 13.33 19.28C13.2 19.28 13.09 19.32 12.99 19.41C12.9 19.5 12.82 19.62 12.76 19.76C12.7 19.91 12.67 20.06 12.64 20.24C12.61 20.42 12.6 20.6 12.6 20.78L14.01 20.78C13.99 20.31 13.93 19.95 13.84 19.68Z" />
			<path id="Path 21" class="shp0" d="M17.31 20.1C17.48 19.68 17.66 19.37 17.88 19.17C18.11 18.98 18.38 18.87 18.7 18.87L18.77 18.87L18.85 18.87C18.83 18.96 18.82 19.07 18.8 19.16C18.79 19.26 18.79 19.38 18.79 19.52L18.79 19.82L18.79 19.97C18.79 20.03 18.79 20.07 18.8 20.12L18.71 20.19C18.65 20.16 18.58 20.12 18.5 20.1C18.43 20.07 18.34 20.07 18.25 20.07C17.97 20.07 17.75 20.16 17.6 20.34C17.43 20.53 17.36 20.74 17.36 20.98L17.36 21.34C17.36 21.71 17.36 22.06 17.37 22.39C17.39 22.72 17.4 23.03 17.43 23.34C17.36 23.32 17.25 23.32 17.13 23.32L16.74 23.32L16.37 23.32C16.25 23.32 16.16 23.32 16.07 23.34C16.1 23.03 16.11 22.72 16.13 22.39C16.13 22.06 16.14 21.71 16.14 21.34L16.14 20.98C16.14 20.6 16.14 20.25 16.13 19.92C16.11 19.59 16.1 19.26 16.07 18.93C16.17 18.95 16.28 18.95 16.38 18.96C16.49 18.98 16.59 18.98 16.7 18.98C16.8 18.98 16.91 18.98 17.01 18.96C17.12 18.95 17.22 18.95 17.33 18.93L17.3 20.04L17.31 20.1Z" />
			<path id="Path 22" class="shp0" d="M20.87 19.67C21.04 19.41 21.25 19.22 21.48 19.07C21.7 18.93 21.97 18.86 22.26 18.86C22.71 18.86 23.07 18.99 23.31 19.26C23.55 19.53 23.68 19.95 23.68 20.56C23.68 20.87 23.68 21.14 23.67 21.38C23.65 21.62 23.65 21.86 23.65 22.1C23.65 22.3 23.65 22.51 23.67 22.73C23.68 22.96 23.68 23.18 23.7 23.4C23.62 23.38 23.52 23.38 23.4 23.38L23.01 23.38L22.62 23.38C22.5 23.38 22.39 23.38 22.32 23.4C22.36 23.08 22.39 22.7 22.41 22.27C22.42 21.83 22.42 21.35 22.42 20.78C22.42 20.39 22.36 20.12 22.23 19.94C22.09 19.76 21.91 19.67 21.67 19.67C21.4 19.67 21.19 19.79 21.07 20.03C20.93 20.27 20.87 20.6 20.87 21.02L20.87 21.38C20.87 21.76 20.87 22.1 20.89 22.43C20.9 22.76 20.92 23.08 20.95 23.38C20.87 23.37 20.77 23.37 20.65 23.37L20.26 23.37L19.87 23.37C19.75 23.37 19.66 23.37 19.57 23.38C19.6 23.08 19.61 22.76 19.63 22.43C19.63 22.1 19.64 21.76 19.64 21.38L19.64 21.02C19.64 20.65 19.64 20.3 19.63 19.97C19.61 19.64 19.6 19.31 19.57 18.98C19.67 18.99 19.79 18.99 19.9 19.01C20 19.02 20.11 19.02 20.23 19.02C20.33 19.02 20.45 19.02 20.56 19.01C20.66 18.99 20.78 18.99 20.9 18.98L20.87 19.67L20.87 19.67L20.87 19.67Z" />
			<path id="Path 23" fill-rule="evenodd" class="shp0" d="M25.53 19.02C25.83 18.92 26.12 18.86 26.42 18.86C26.66 18.86 26.89 18.89 27.1 18.93C27.31 18.99 27.47 19.07 27.62 19.19C27.77 19.31 27.89 19.46 27.97 19.65C28.04 19.85 28.09 20.07 28.09 20.34C28.09 20.74 28.09 21.1 28.07 21.43C28.06 21.76 28.06 22.09 28.06 22.42C28.06 22.57 28.07 22.67 28.09 22.76C28.1 22.84 28.15 22.91 28.18 22.94C28.22 22.99 28.28 23.02 28.34 23.03C28.42 23.05 28.49 23.05 28.58 23.05L28.58 23.28C28.4 23.35 28.25 23.41 28.13 23.44C28.01 23.47 27.88 23.5 27.74 23.5C27.52 23.5 27.34 23.44 27.19 23.34C27.05 23.23 26.95 23.06 26.87 22.85C26.74 23.05 26.57 23.2 26.37 23.32C26.19 23.44 25.95 23.5 25.67 23.5C25.44 23.5 25.23 23.47 25.07 23.41C24.9 23.35 24.77 23.26 24.66 23.15C24.56 23.05 24.48 22.91 24.42 22.76C24.38 22.61 24.35 22.48 24.35 22.33C24.35 22.13 24.38 21.95 24.44 21.8C24.5 21.65 24.59 21.53 24.71 21.43C24.83 21.32 24.96 21.23 25.13 21.17C25.29 21.1 25.47 21.04 25.68 20.99C25.94 20.93 26.15 20.87 26.3 20.83C26.45 20.78 26.56 20.74 26.63 20.69C26.71 20.65 26.75 20.6 26.77 20.54C26.78 20.48 26.8 20.42 26.8 20.34C26.8 20.12 26.72 19.94 26.56 19.77C26.4 19.62 26.18 19.53 25.91 19.53C25.8 19.53 25.7 19.55 25.59 19.58C25.49 19.61 25.38 19.64 25.28 19.7C25.17 19.74 25.08 19.8 25.01 19.86C24.93 19.92 24.86 19.98 24.83 20.04L24.77 20.04L24.65 19.49C24.96 19.29 25.25 19.13 25.53 19.02ZM26.89 21.04C26.77 21.11 26.62 21.17 26.48 21.22C26.33 21.26 26.21 21.32 26.09 21.4C25.97 21.47 25.88 21.56 25.8 21.68C25.73 21.8 25.68 21.98 25.68 22.21C25.68 22.43 25.73 22.61 25.83 22.72C25.92 22.84 26.06 22.9 26.21 22.9C26.4 22.9 26.57 22.82 26.71 22.67C26.83 22.52 26.89 22.3 26.89 22L26.89 21.04Z" />
			<path id="Path 24" class="shp0" d="M31.63 19.26C31.63 19.34 31.65 19.41 31.66 19.49L30.85 19.47C30.84 19.61 30.84 19.77 30.82 19.95C30.81 20.13 30.81 20.33 30.81 20.51C30.81 20.71 30.81 20.89 30.79 21.07L30.79 21.52C30.79 21.83 30.79 22.09 30.82 22.28C30.84 22.48 30.87 22.63 30.9 22.73C30.93 22.84 30.99 22.91 31.05 22.94C31.11 22.97 31.2 23 31.3 23C31.42 23 31.5 22.99 31.56 22.97C31.62 22.96 31.66 22.93 31.72 22.9L31.72 23.28C31.6 23.34 31.45 23.38 31.27 23.43C31.09 23.47 30.91 23.49 30.73 23.49C29.95 23.49 29.58 23.02 29.58 22.09C29.58 21.91 29.58 21.71 29.59 21.49C29.59 21.26 29.61 21.04 29.62 20.8C29.64 20.56 29.64 20.33 29.65 20.1C29.65 19.88 29.67 19.67 29.67 19.47L29.02 19.49C29.03 19.41 29.05 19.34 29.05 19.26C29.05 19.19 29.05 19.11 29.02 19.02L29.67 19.05C29.67 18.86 29.67 18.69 29.65 18.53C29.65 18.36 29.64 18.17 29.62 17.93C29.83 17.84 30.04 17.75 30.25 17.66C30.46 17.57 30.67 17.46 30.88 17.35L30.97 17.42C30.96 17.52 30.96 17.63 30.94 17.76C30.93 17.9 30.93 18.03 30.91 18.17C30.9 18.32 30.9 18.45 30.9 18.6L30.9 19.02L31.71 19.01C31.63 19.11 31.63 19.19 31.63 19.26Z" />
			<path id="Path 25" class="shp0" d="M32.58 16.72C32.72 16.59 32.9 16.51 33.09 16.51C33.29 16.51 33.47 16.59 33.6 16.72C33.74 16.86 33.81 17.04 33.81 17.23C33.81 17.43 33.74 17.61 33.6 17.75C33.47 17.88 33.29 17.96 33.09 17.96C32.9 17.96 32.72 17.88 32.58 17.75C32.45 17.61 32.37 17.43 32.37 17.23C32.37 17.04 32.43 16.87 32.58 16.72ZM32.46 19.95C32.45 19.62 32.43 19.29 32.4 18.96C32.49 18.98 32.58 18.98 32.7 18.99C32.82 19.01 32.94 19.01 33.09 19.01C33.38 19.01 33.6 18.99 33.78 18.96C33.75 19.29 33.74 19.62 33.72 19.95C33.71 20.28 33.71 20.63 33.71 21.01L33.71 21.37C33.71 21.74 33.71 22.09 33.72 22.42C33.74 22.75 33.75 23.06 33.78 23.37C33.71 23.35 33.6 23.35 33.48 23.35L33.09 23.35L32.7 23.35C32.58 23.35 32.49 23.35 32.4 23.37C32.43 23.06 32.46 22.06 32.48 21.73C32.49 21.4 32.48 21.73 32.48 21.35L32.48 20.99C32.48 20.63 32.48 20.28 32.46 19.95Z" />
			<path id="Path 26" fill-rule="evenodd" class="shp0" d="M34.85 20.22C34.97 19.92 35.13 19.67 35.34 19.46C35.56 19.25 35.8 19.1 36.07 18.99C36.34 18.89 36.62 18.84 36.91 18.84C37.63 18.84 38.17 19.04 38.56 19.44C38.95 19.85 39.15 20.39 39.15 21.08C39.15 21.46 39.09 21.79 38.98 22.09C38.88 22.39 38.71 22.64 38.52 22.85C38.32 23.06 38.08 23.22 37.81 23.32C37.54 23.43 37.24 23.47 36.91 23.47C36.64 23.47 36.37 23.44 36.1 23.37C35.83 23.29 35.59 23.17 35.38 22.99C35.16 22.81 34.98 22.58 34.86 22.31C34.73 22.03 34.67 21.68 34.67 21.28C34.67 20.89 34.73 20.54 34.85 20.22ZM37.6 19.71C37.46 19.41 37.24 19.26 36.92 19.26C36.64 19.26 36.43 19.43 36.26 19.76C36.1 20.09 36.02 20.6 36.02 21.31C36.02 21.56 36.04 21.8 36.07 22.03C36.1 22.25 36.14 22.43 36.22 22.6C36.29 22.76 36.38 22.88 36.49 22.97C36.61 23.06 36.74 23.11 36.91 23.11C37.49 23.11 37.79 22.39 37.79 20.96C37.79 20.42 37.73 20.01 37.6 19.71Z" />
			<path id="Path 27" class="shp0" d="M41.25 19.67C41.43 19.41 41.63 19.22 41.85 19.07C42.08 18.93 42.35 18.86 42.63 18.86C43.1 18.86 43.44 18.99 43.7 19.26C43.94 19.53 44.07 19.95 44.07 20.56C44.07 20.87 44.07 21.14 44.06 21.38C44.04 21.62 44.04 21.86 44.04 22.1C44.04 22.3 44.04 22.51 44.06 22.73C44.07 22.96 44.07 23.18 44.09 23.4C44.01 23.38 43.91 23.38 43.79 23.38L43.4 23.38L43.01 23.38C42.89 23.38 42.78 23.38 42.71 23.4C42.75 23.08 42.78 22.7 42.78 22.27C42.8 21.83 42.8 21.35 42.8 20.78C42.8 20.39 42.74 20.12 42.6 19.94C42.47 19.76 42.29 19.67 42.05 19.67C41.78 19.67 41.57 19.79 41.45 20.03C41.31 20.27 41.25 20.6 41.25 21.02L41.25 21.38C41.25 21.76 41.25 22.1 41.27 22.43C41.28 22.76 41.3 23.08 41.33 23.38C41.25 23.37 41.14 23.37 41.02 23.37L40.63 23.37L40.24 23.37C40.12 23.37 40.03 23.37 39.94 23.38C39.97 23.08 39.99 22.76 40 22.43C40.02 22.1 40.02 21.76 40.02 21.38L40.02 21.02C40.02 20.65 40.02 20.3 40 19.97C39.99 19.64 39.97 19.31 39.94 18.98C40.05 18.99 40.17 18.99 40.27 19.01C40.38 19.02 40.48 19.02 40.6 19.02C40.71 19.02 40.83 19.02 40.93 19.01C41.04 18.99 41.16 18.99 41.28 18.98L41.25 19.67L41.25 19.67L41.25 19.67Z" />
			<path id="Path 28" fill-rule="evenodd" class="shp0" d="M45.92 19.02C46.22 18.92 46.51 18.86 46.81 18.86C47.05 18.86 47.28 18.89 47.49 18.93C47.7 18.99 47.86 19.07 48.01 19.19C48.16 19.31 48.28 19.46 48.36 19.65C48.43 19.85 48.48 20.07 48.48 20.34C48.48 20.74 48.48 21.1 48.46 21.43C48.45 21.76 48.45 22.09 48.45 22.42C48.45 22.57 48.46 22.67 48.48 22.76C48.49 22.84 48.54 22.91 48.57 22.94C48.61 22.99 48.67 23.02 48.73 23.03C48.81 23.05 48.88 23.05 48.97 23.05L48.97 23.28C48.79 23.35 48.64 23.41 48.52 23.44C48.4 23.47 48.27 23.5 48.13 23.5C47.91 23.5 47.73 23.44 47.58 23.34C47.44 23.23 47.34 23.06 47.26 22.85C47.13 23.05 46.96 23.2 46.76 23.32C46.58 23.44 46.34 23.5 46.06 23.5C45.83 23.5 45.62 23.47 45.46 23.41C45.29 23.35 45.16 23.26 45.05 23.15C44.95 23.05 44.87 22.91 44.81 22.76C44.77 22.61 44.74 22.48 44.74 22.33C44.74 22.13 44.77 21.95 44.84 21.8C44.9 21.65 44.99 21.53 45.11 21.43C45.23 21.32 45.37 21.23 45.53 21.17C45.7 21.1 45.88 21.04 46.09 20.99C46.34 20.93 46.55 20.87 46.7 20.83C46.85 20.78 46.96 20.74 47.04 20.69C47.11 20.65 47.16 20.6 47.17 20.54C47.19 20.48 47.2 20.42 47.2 20.34C47.2 20.12 47.13 19.94 46.96 19.77C46.81 19.62 46.58 19.53 46.31 19.53C46.21 19.53 46.1 19.55 46 19.58C45.89 19.61 45.79 19.64 45.68 19.7C45.58 19.74 45.49 19.8 45.41 19.86C45.32 19.92 45.26 19.98 45.22 20.04L45.16 20.04L45.04 19.49C45.34 19.29 45.62 19.13 45.92 19.02ZM47.26 21.4L47.26 21.04C47.13 21.11 46.99 21.17 46.85 21.22C46.7 21.26 46.58 21.32 46.46 21.4C46.34 21.47 46.25 21.56 46.16 21.68C46.09 21.8 46.04 21.98 46.04 22.21C46.04 22.43 46.09 22.61 46.18 22.72C46.27 22.84 46.4 22.9 46.55 22.9C46.75 22.9 46.91 22.82 47.05 22.67C47.17 22.52 47.23 22.3 47.23 22C47.26 21.73 47.26 21.53 47.26 21.4Z" />
			<path id="Path 29" class="shp0" d="M49.78 17.99C49.77 17.49 49.75 16.98 49.72 16.47C49.8 16.48 49.9 16.5 50.03 16.5C50.15 16.51 50.28 16.51 50.42 16.51C50.55 16.51 50.69 16.51 50.81 16.5C50.93 16.48 51.03 16.48 51.11 16.47C51.08 16.98 51.06 17.49 51.05 17.99C51.03 18.48 51.03 19.04 51.03 19.64L51.03 20.24C51.03 20.84 51.03 21.38 51.05 21.89C51.06 22.39 51.08 22.88 51.11 23.38C51.03 23.37 50.93 23.37 50.81 23.37L50.42 23.37L50.03 23.37C49.9 23.37 49.8 23.37 49.72 23.38C49.75 22.88 49.77 22.39 49.78 21.89C49.8 21.4 49.8 20.84 49.8 20.24L49.8 19.64C49.8 19.04 49.78 18.5 49.78 17.99Z" />
			<path id="Path 30" class="shp0" d="M53.15 0.03C53.15 0.03 70.85 1.29 70.51 3.62C70.17 5.97 58.02 6.28 57 7.3C57 7.3 55.74 7.89 58.77 8.14C61.81 8.4 70.34 8.99 69.59 11.07C68.84 13.16 57.75 13.58 57.75 14.71C57.75 15.84 65.74 16 66.61 17.26C67.49 18.53 66.36 19.35 63.56 19.89C60.77 20.44 57.67 20.18 58.29 21.23C58.92 22.28 64.48 22.48 64.86 22.48C65.23 22.48 64.65 23.49 63.35 23.49C62.06 23.49 54.28 22.9 55.51 21.07C56.74 19.22 58.62 18.98 63.73 18.3C65.32 18 61.96 17.81 60.89 17.55C60.89 17.55 52.73 16.84 53.99 14.83C55.03 13.18 60.14 12.44 61.96 12.11C63.67 11.8 66.13 11.54 65.61 11.03C65.08 10.5 53.81 10.65 53.32 8.4C52.81 6.15 57.61 5.72 58.77 5.51C59.93 5.3 66.4 4.72 65.79 4.09C65.16 3.46 52.96 2.28 51.89 2.28C50.81 2.3 52.69 0.03 53.15 0.03Z" />
			<path id="Path 31" fill-rule="evenodd" class="shp0" d="M70.52 22.04C70.52 22.87 69.87 23.52 69.05 23.52C68.22 23.52 67.58 22.87 67.58 22.04C67.58 21.22 68.22 20.57 69.05 20.57C69.87 20.57 70.52 21.2 70.52 22.04ZM67.8 22.04C67.8 22.75 68.33 23.3 69.05 23.3C69.77 23.3 70.3 22.75 70.3 22.04C70.3 21.34 69.75 20.78 69.05 20.78C68.34 20.78 67.8 21.34 67.8 22.04ZM68.7 22.13L68.7 22.88L68.49 22.88L68.49 21.19L69.14 21.19C69.53 21.19 69.69 21.35 69.69 21.65C69.69 21.95 69.5 22.09 69.27 22.13L69.78 22.88L69.54 22.88L69.06 22.13L68.7 22.13ZM69 21.95C69.26 21.95 69.51 21.94 69.51 21.65C69.51 21.43 69.32 21.37 69.11 21.37L68.72 21.37L68.72 21.95L69 21.95Z" />
		</g>
	</g>
</svg>