<svg xmlns="http://www.w3.org/2000/svg" viewBox="0 0 36 52" width="36" height="52">
	<defs>
		<clipPath clipPathUnits="userSpaceOnUse" id="cp1">
			<path d="M-22 -14L58 -14L58 66L-22 66Z" />
		</clipPath>
	</defs>
	<style>
		tspan { white-space:pre }
		.shp0 { fill: #ffffff } 
	</style>
	<g id="Page 14" clip-path="url(#cp1)">
		<path id="Path 44" fill-rule="evenodd" class="shp0" d="M35.61 34.03C35.52 43.63 27.76 51.39 18.16 51.48C8.43 51.57 0.47 43.76 0.38 34.03C0.38 30.08 2.92 23.92 8.15 15.22C11.93 8.93 15.61 3.84 15.64 3.79L18 0.52L20.36 3.79C21.02 4.71 24.4 9.48 27.85 15.22C33.07 23.92 35.62 30.07 35.62 34.03L35.61 34.03ZM17.66 11.07C12.12 19.33 6.2 29.69 6.2 34.03C6.2 40.56 11.48 45.85 18.01 45.85C24.53 45.85 29.82 40.56 29.82 34.03C29.82 29.69 23.9 19.33 18.35 11.07L18.01 10.56L17.66 11.07ZM25.35 36.25L20.36 36.25L20.36 41.31L15.65 41.31L15.65 36.25L10.66 36.25L10.66 31.54L15.65 31.54L15.65 26.49L20.36 26.49L20.36 31.54L25.35 31.54L25.35 36.25Z" />
	</g>
</svg>