<svg xmlns="http://www.w3.org/2000/svg" viewBox="0 0 40 40" width="40" height="40">
	<defs>
		<clipPath clipPathUnits="userSpaceOnUse" id="cp1">
			<path d="M-20 -20L60 -20L60 60L-20 60Z" />
		</clipPath>
	</defs>
	<style>
		tspan { white-space:pre }
		.shp0 { fill: #006aa8 } 
		.shp1 { fill: #ffffff } 
	</style>
	<g id="Page 24" clip-path="url(#cp1)">
		<path id="Path 76" class="shp0" d="M36.73 0.37L3.26 0.37C1.68 0.35 0.39 1.62 0.37 3.2L0.37 36.8C0.39 38.38 1.68 39.65 3.26 39.63L36.73 39.63C38.31 39.65 39.61 38.38 39.63 36.8L39.63 3.2C39.61 1.62 38.31 0.35 36.73 0.37Z" />
		<path id="Path 77" class="shp1" d="M9.1 5.77C10.97 5.77 12.48 7.29 12.48 9.15C12.48 11.02 10.97 12.53 9.1 12.53C7.24 12.53 5.73 11.02 5.73 9.15L5.73 9.15C5.72 7.29 7.23 5.77 9.1 5.77L9.1 5.77ZM6.19 15.09L12.02 15.09L12.02 33.83L6.19 33.83L6.19 15.09ZM15.66 15.09L21.24 15.09L21.24 17.65L21.32 17.65C22.46 15.7 24.58 14.54 26.83 14.62C32.73 14.62 33.82 18.5 33.82 23.55L33.82 33.83L28 33.83L28 24.71C28 22.54 27.96 19.75 24.97 19.75C21.94 19.75 21.48 22.11 21.48 24.56L21.48 33.83L15.66 33.83L15.66 15.09Z" />
	</g>
</svg>