<svg xmlns="http://www.w3.org/2000/svg" viewBox="0 0 48 44" width="48" height="44">
	<defs>
		<clipPath clipPathUnits="userSpaceOnUse" id="cp1">
			<path d="M-16 -18L64 -18L64 62L-16 62Z" />
		</clipPath>
	</defs>
	<style>
		tspan { white-space:pre }
		.shp0 { fill: #00aeef } 
	</style>
	<g id="Page 13" clip-path="url(#cp1)">
		<path id="Path 41" fill-rule="evenodd" class="shp0" d="M46.5 31.42C47.21 32.64 47.58 34.03 47.58 35.44C47.58 39.89 43.97 43.5 39.53 43.5L8.48 43.5C7.06 43.5 5.67 43.12 4.45 42.42C0.6 40.19 -0.72 35.27 1.5 31.42L17.02 4.53C17.73 3.31 18.75 2.29 19.97 1.58C23.82 -0.64 28.75 0.68 30.97 4.53L46.5 31.42L46.5 31.42ZM41.75 36.73C42.22 35.93 42.22 34.95 41.75 34.16L26.23 7.27C26.01 6.88 25.68 6.55 25.29 6.33C24.06 5.61 22.48 6.03 21.76 7.27L6.24 34.16C6.02 34.55 5.9 34.99 5.9 35.45C5.9 36.87 7.05 38.02 8.47 38.02L39.52 38.02C40.45 38.03 41.3 37.53 41.75 36.73L41.75 36.73ZM25.67 30.29C26.52 31.06 26.58 32.36 25.8 33.21C25.76 33.25 25.72 33.3 25.67 33.34C24.7 34.14 23.3 34.14 22.32 33.34C21.48 32.57 21.42 31.26 22.19 30.42C22.23 30.37 22.28 30.33 22.32 30.29C23.3 29.49 24.7 29.49 25.67 30.29ZM26.71 16.5L25.82 27.01C25.78 27.52 25.34 27.92 24.83 27.92L23.23 27.92C22.71 27.92 22.28 27.52 22.24 27.01L21.35 16.5C21.31 15.95 21.71 15.47 22.26 15.43C22.29 15.42 22.31 15.42 22.34 15.42L25.72 15.42C26.27 15.43 26.71 15.88 26.71 16.42C26.71 16.45 26.71 16.47 26.71 16.49L26.71 16.5Z" />
	</g>
</svg>