<svg xmlns="http://www.w3.org/2000/svg" viewBox="0 0 46 46" width="46" height="46">
	<defs>
		<clipPath clipPathUnits="userSpaceOnUse" id="cp1">
			<path d="M-17 -17L63 -17L63 63L-17 63Z" />
		</clipPath>
	</defs>
	<style>
		tspan { white-space:pre }
		.shp0 { fill: #00aeef } 
	</style>
	<g id="Page 15" clip-path="url(#cp1)">
		<path id="Path 47" class="shp0" d="M22.9 28.25C22.24 28.23 21.61 28.45 21.11 28.88C20.21 29.7 20.14 31.09 20.96 31.99C21.01 32.04 21.06 32.09 21.11 32.14C22.15 32.99 23.65 32.99 24.69 32.14C25.59 31.32 25.65 29.92 24.83 29.02C24.79 28.97 24.74 28.93 24.69 28.88C24.19 28.45 23.55 28.23 22.9 28.25ZM23.06 13.21C20.73 13.31 18.58 14.47 17.22 16.36C17.04 16.58 17.06 16.91 17.27 17.1L19.34 19.02C19.56 19.22 19.9 19.21 20.1 18.99C20.1 18.99 20.11 18.98 20.12 18.97C20.65 18.13 21.53 17.56 22.52 17.42C23.48 17.39 24.28 18.14 24.34 19.09C24.34 20.58 20.43 21.98 20.43 24.46L20.43 26.08C20.43 26.38 20.67 26.62 20.97 26.62L24.46 26.62C24.76 26.62 25 26.38 25 26.08L25 25.14C25 23.52 28.9 22.66 28.9 19.15C29.06 16.04 26.67 13.38 23.55 13.22C23.39 13.21 23.22 13.21 23.06 13.21Z" />
		<path id="Path 48" fill-rule="evenodd" class="shp0" d="M23 45.94C10.33 45.93 0.06 35.67 0.06 23C0.06 10.33 10.33 0.06 23 0.06C35.67 0.07 45.94 10.33 45.94 23C45.92 35.66 35.66 45.92 23 45.94ZM23 5.04C13.08 5.04 5.04 13.08 5.04 23C5.04 32.92 13.08 40.96 23 40.96C32.92 40.96 40.96 32.92 40.96 23L40.96 23C40.95 13.08 32.91 5.05 23 5.04Z" />
	</g>
</svg>