<svg xmlns="http://www.w3.org/2000/svg" width="705" height="394.798" viewBox="0 0 705 394.798"><defs><style>.a{opacity:0.1;}.b{fill:#75787b;}</style></defs><g class="a" transform="translate(705 394.788) rotate(180)"><path class="b" d="M704.835,0H702.6a91.875,91.875,0,0,1-.313,14.976c-1.117,9.893-4.284,19.6-7.373,28.991l-.776,2.357C691.9,53.1,689.63,60.1,686.72,66.713a132.2,132.2,0,0,1-22.679,34.7,246.34,246.34,0,0,1-22.774,21.718c-10.345,8.882-22.472,19.087-35.582,27.712-2.318,1.525-4.754,3.067-6.9,4.424-6.368,4.033-12.954,8.195-18.83,13.188-10.9,9.261-20.109,22.014-27.371,37.906a152.638,152.638,0,0,0-8.379,22.992c-.525,1.9-1.022,3.838-1.5,5.709-2.234,8.692-4.553,17.68-9.658,25.042-5.631,8.133-14.328,13.663-22.757,19.02q-1.6,1.011-3.184,2.033c-7.474,4.81-15.272,10.233-21.618,17.227A81.581,81.581,0,0,0,474.108,314.8c-1.005,1.882-1.972,3.871-2.91,5.793l-.039.089c-4.245,8.709-8.63,17.713-17.473,19.249-4.374.76-8.82-.464-12.211-1.614a38.155,38.155,0,0,1-10.87-5.312c-4.681-3.553-7.709-8.524-10.932-13.8a91.827,91.827,0,0,0-5.754-8.675,47.619,47.619,0,0,0-10.334-9.708A46.924,46.924,0,0,0,384.632,293c-11.261-1.989-23.612-.05-37.755,5.916a218.147,218.147,0,0,0-20.154,10.2l-.05.028c-4.972,2.737-10.111,5.586-15.311,8.021-15.333,7.234-32.1,11.624-48.3,15.87l-12.144,3.178q-12.619,3.312-25.243,6.63c-17.266,4.564-35.124,9.284-53.24,10.613-14.73,1.067-29.74-.246-44.263-1.514-7.48-.648-15.211-1.324-22.852-1.676-12.216-.559-25.243-.514-37.716,3.536-10.652,3.458-20.171,9.5-29.377,15.384C26.449,376.683,13.552,384.872,0,392.234v2.558c14.01-7.524,27.315-15.993,39.426-23.707,9.088-5.787,18.484-11.775,28.863-15.144,12.133-3.938,24.913-3.977,36.923-3.43,7.625.346,15.317,1.017,22.785,1.676,14.6,1.274,29.695,2.592,44.593,1.514,18.328-1.324,36.309-6.072,53.664-10.664q12.608-3.352,25.226-6.625l12.177-3.2c16.3-4.273,33.158-8.686,48.659-16,5.29-2.5,10.474-5.351,15.49-8.116A217.1,217.1,0,0,1,347.748,301c13.736-5.793,25.7-7.681,36.493-5.77a44.689,44.689,0,0,1,18.054,7.424,45.535,45.535,0,0,1,9.848,9.25,90.065,90.065,0,0,1,5.625,8.491c3.173,5.206,6.457,10.613,11.474,14.4a39.738,39.738,0,0,0,11.513,5.653c3.636,1.234,8.446,2.542,13.317,1.676,9.977-1.737,14.618-11.267,19.11-20.484.888-1.832,1.9-3.91,2.916-5.809a78.959,78.959,0,0,1,11.049-15.959c6.145-6.8,13.825-12.121,21.171-16.853l2.916-1.86.274-.173c8.6-5.463,17.49-11.116,23.383-19.623,5.329-7.692,7.7-16.87,9.993-25.79.48-1.855.972-3.776,1.486-5.647a150.568,150.568,0,0,1,8.245-22.651c7.122-15.6,16.138-28.086,26.784-37.13,5.737-4.882,12.25-9,18.545-12.982l.05-.034c2.273-1.436,4.625-2.927,6.915-4.435,13.211-8.686,25.41-18.948,35.812-27.885a244.313,244.313,0,0,0,22.986-21.919,134.4,134.4,0,0,0,23.042-35.275c2.95-6.7,5.256-13.73,7.485-20.54l.788-2.408c3.122-9.5,6.357-19.322,7.474-29.449A93.12,93.12,0,0,0,704.835,0Z" transform="translate(0 -0.004)"/><path class="b" d="M704.036,0h-.665a92.263,92.263,0,0,1-.313,15.082c-1.117,9.977-4.312,19.73-7.412,29.159l-.754,2.329c-2.234,6.793-4.525,13.82-7.452,20.461a132.945,132.945,0,0,1-22.807,34.912,240.9,240.9,0,0,1-22.852,21.785c-10.362,8.9-22.517,19.126-35.661,27.773-2.285,1.508-4.642,2.994-6.921,4.435-6.346,4.016-12.909,8.167-18.735,13.121-10.814,9.183-19.953,21.847-27.164,37.633a152.7,152.7,0,0,0-8.345,22.891c-.514,1.894-1.006,3.8-1.5,5.7-2.234,8.759-4.586,17.814-9.77,25.293-5.726,8.267-14.49,13.836-22.969,19.221-1.067.681-2.134,1.357-3.2,2.044-7.429,4.782-15.177,10.166-21.461,17.093a80.686,80.686,0,0,0-11.256,16.233c-1.011,1.9-1.988,3.91-2.938,5.86-4.324,8.887-8.792,18.076-18.054,19.679-4.547.793-9.122-.458-12.6-1.642a39.481,39.481,0,0,1-11.1-5.43c-4.8-3.642-7.865-8.675-11.116-14a90.62,90.62,0,0,0-5.714-8.619,46.825,46.825,0,0,0-10.161-9.546,46.217,46.217,0,0,0-18.64-7.647c-11.1-1.955-23.31-.039-37.309,5.865A215.855,215.855,0,0,0,327.1,309.853c-5.027,2.748-10.166,5.586-15.412,8.072-15.389,7.262-32.192,11.663-48.436,15.92l-12.149,3.184q-12.608,3.3-25.226,6.625c-17.316,4.575-35.191,9.3-53.4,10.613-14.792,1.067-29.84-.246-44.386-1.514-7.474-.654-15.2-1.33-22.824-1.676-12.144-.559-25.081-.508-37.426,3.5-10.557,3.424-20.037,9.463-29.2,15.3C26.751,377.426,13.714,385.727,0,393.134v.76c13.848-7.463,27.008-15.836,39-23.461,9.127-5.815,18.568-11.825,29.047-15.227,12.256-3.977,25.137-4.016,37.2-3.469,7.6.346,15.328,1.022,22.791,1.676,14.579,1.268,29.65,2.586,44.5,1.514,18.249-1.324,36.18-6.061,53.519-10.641q12.6-3.351,25.226-6.625l12.144-3.184c16.277-4.262,33.108-8.669,48.553-15.965,5.262-2.48,10.44-5.329,15.445-8.088a217.32,217.32,0,0,1,20.014-10.133c13.881-5.854,25.958-7.759,36.934-5.821a45.564,45.564,0,0,1,18.372,7.541,46.433,46.433,0,0,1,10.016,9.412,89.318,89.318,0,0,1,5.67,8.558c3.139,5.145,6.385,10.468,11.284,14.188a39.09,39.09,0,0,0,11.289,5.53c3.581,1.212,8.228,2.486,12.926,1.676,9.574-1.676,14.127-11.01,18.529-20.048.944-1.938,1.922-3.944,2.933-5.837a79.882,79.882,0,0,1,11.172-16.115c6.234-6.876,13.965-12.228,21.333-16.987,1.056-.681,2.123-1.357,3.19-2.039,8.53-5.424,17.356-11.027,23.159-19.406,5.251-7.575,7.6-16.691,9.87-25.511.486-1.9.977-3.8,1.5-5.686a151.092,151.092,0,0,1,8.284-22.768c7.172-15.7,16.255-28.287,26.991-37.426,5.793-4.921,12.334-9.06,18.663-13.066,2.279-1.441,4.636-2.933,6.932-4.441,13.177-8.669,25.349-18.908,35.75-27.824a243.542,243.542,0,0,0,22.9-21.852,133.47,133.47,0,0,0,22.9-35.085c2.944-6.67,5.245-13.713,7.474-20.517l.771-2.357c3.111-9.463,6.329-19.244,7.44-29.293A92.543,92.543,0,0,0,704.037,0Z" transform="translate(0 -0.004)"/><path class="b" d="M645.82,0h-2.234a58.988,58.988,0,0,1-5.061,30.756c-4.581,9.58-12,17.4-19.327,24.427-9,8.63-19.847,18.434-32.075,25.9-10.881,6.619-22.835,11.5-34.141,15.926s-24.276,9.5-36.923,13.965l-2.564.9c-9.775,3.441-19.88,7-28.879,12.529-9.82,6.027-18.11,14.278-26.126,22.249l-.419.419c-13.133,13.06-25.053,24.735-37.906,35.3A281.9,281.9,0,0,1,383.576,207.8c-12.663,7.4-26.053,13.965-39.007,20.26-5.111,2.5-10.4,5.078-15.641,7.714-13.965,7.016-28.058,14.557-40.185,21.076l-2.681,1.441c-13.781,7.407-28.025,15.082-42.341,22.042a238.1,238.1,0,0,1-28.3,11.976c-11.92,4.027-21.578,5.675-30.4,5.189-10.138-.559-19.741-4.095-26.969-7.122a171.373,171.373,0,0,1-27.477-14.428c-2.111-1.374-4.229-2.843-6.279-4.268l-.056-.039c-6.184-4.29-12.58-8.731-19.813-11.362h-.061a90.726,90.726,0,0,0-14.473-3.508l-2.033-.374C76.081,254.161,64.345,250.848,53,247.62q-4.4-1.279-8.843-2.514l-2.877-.793-.123-.033c-12.4-3.4-25.232-6.91-32.672-16.819a38.365,38.365,0,0,1-5.977-12.848A111.86,111.86,0,0,1,0,203.262v10.68c.112.43.223.855.346,1.279A40.04,40.04,0,0,0,6.7,228.806c7.9,10.524,21.1,14.144,33.879,17.646l2.988.821c2.944.821,5.882,1.676,8.848,2.5,11.4,3.24,23.176,6.591,35.041,8.815l2.033.374a89.119,89.119,0,0,1,14.116,3.407c7.022,2.558,13.295,6.91,19.361,11.122,2.072,1.436,4.212,2.921,6.39,4.346a174.492,174.492,0,0,0,27.824,14.591c7.4,3.095,17.244,6.7,27.717,7.262,1.039.056,2.084.089,3.145.089,8.256,0,17.289-1.743,28.1-5.4A240.4,240.4,0,0,0,244.709,282.3c14.35-6.988,28.622-14.663,42.42-22.081l2.681-1.441c12.094-6.5,26.165-14.026,40.135-21.048,5.312-2.67,10.792-5.346,15.641-7.7,12.993-6.346,26.427-12.9,39.157-20.338A284.239,284.239,0,0,0,421.611,184.1c12.931-10.613,24.885-22.344,38.063-35.437l.413-.413c7.932-7.887,16.127-16.043,25.7-21.93,8.809-5.407,18.8-8.938,28.488-12.334l2.547-.9c12.663-4.469,25.584-9.541,37-14s23.461-9.384,34.488-16.1c12.412-7.558,23.377-17.484,32.466-26.2,7.485-7.172,15.082-15.177,19.8-25.086A61.276,61.276,0,0,0,645.82,0Z" transform="translate(0 -0.004)"/><path class="b" d="M645.035,0h-.67a59.762,59.762,0,0,1-5.139,31.1c-4.636,9.692-12.11,17.579-19.495,24.662-9.027,8.658-19.92,18.517-32.209,26-10.932,6.653-22.9,11.546-34.27,15.987s-24.3,9.5-36.945,13.965l-2.547.9c-9.742,3.435-19.813,6.982-28.745,12.468-9.736,5.977-18,14.188-25.98,22.137l-.419.413c-13.149,13.077-25.081,24.768-37.985,35.348a282.37,282.37,0,0,1-36.666,25.455c-12.669,7.407-26.081,13.965-39.057,20.288-5.139,2.508-10.451,5.1-15.641,7.714C315.3,243.452,301.215,250.988,289.1,257.5l-2.681,1.441c-13.792,7.418-28.058,15.082-42.369,22.053a239.1,239.1,0,0,1-28.393,12.015c-12.021,4.061-21.785,5.72-30.723,5.234-10.256-.559-19.942-4.134-27.232-7.184a172.472,172.472,0,0,1-27.539-14.445c-2.139-1.4-4.284-2.882-6.357-4.318-6.145-4.268-12.5-8.675-19.629-11.272h-.067a90.22,90.22,0,0,0-14.35-3.469l-2.033-.38c-11.8-2.234-23.562-5.558-34.929-8.792-2.944-.838-5.888-1.676-8.831-2.491l-2.994-.827c-12.535-3.435-25.494-6.982-33.1-17.11a38.961,38.961,0,0,1-6.105-13.11c-.676-2.4-1.246-4.832-1.748-7.262V210.7c.341,1.452.7,2.9,1.117,4.335a39.514,39.514,0,0,0,6.217,13.328c7.737,10.278,20.785,13.859,33.432,17.322l2.988.827c2.944.816,5.888,1.676,8.826,2.491,11.384,3.24,23.159,6.586,34.99,8.809l2.033.374a88.968,88.968,0,0,1,14.25,3.441c7.111,2.592,13.406,6.96,19.551,11.211,2.078,1.447,4.223,2.933,6.374,4.335a173.1,173.1,0,0,0,27.7,14.523c7.34,3.067,17.093,6.664,27.455,7.234,9.01.492,18.847-1.179,30.946-5.268a239.435,239.435,0,0,0,28.488-12.049c14.328-6.971,28.594-14.646,42.392-22.064l2.681-1.441c12.116-6.513,26.2-14.043,40.157-21.059,5.189-2.609,10.5-5.2,15.641-7.709,12.987-6.334,26.416-12.892,39.1-20.311a283.768,283.768,0,0,0,36.756-25.517c12.9-10.613,24.846-22.3,37.985-35.387l.413-.413c7.966-7.921,16.2-16.11,25.863-22.048,8.876-5.446,18.914-8.982,28.617-12.4l2.553-.9c12.652-4.469,25.573-9.541,36.968-14s23.394-9.362,34.37-16.037c12.345-7.519,23.266-17.406,32.326-26.092,7.429-7.122,14.948-15.082,19.635-24.857A60.483,60.483,0,0,0,645.035,0Z" transform="translate(-0.009 -0.004)"/><path class="b" d="M483.219,0a66.05,66.05,0,0,1-2.631,11.546c-2.642,8.144-6.859,15.836-10.948,23.277-1.3,2.363-2.637,4.8-3.91,7.262-2.882,5.5-5.48,11.06-7.854,16.25-4.514,9.876-8.938,19.992-13.172,29.773q-1.883,4.34-3.782,8.681c-5.659,12.954-10.887,24.578-17.534,35.488a151.991,151.991,0,0,1-24.774,30.762c-11.127,10.613-24.5,20.322-40.895,29.606a281.43,281.43,0,0,1-27.192,13.479c-8.546,3.67-17.908,7.262-28.622,11.027-16.73,5.86-33.583,11.015-46.4,14.853l-1.017.3c-11.49,3.447-23.372,7-35.225,7h0a54.317,54.317,0,0,1-6.614-.391,73.614,73.614,0,0,1-16.389-4.212c-2.128-.776-4.391-1.676-7.34-2.866-4.938-2.022-10.094-4.2-14.267-5.955-10.284-4.329-20.919-8.809-31.594-12.7l-1.436-.519c-1.827-.654-3.653-1.3-5.485-1.944l-.084-.028c-2.408-.849-4.893-1.72-7.39-2.631-2.67-.972-5.027-1.86-7.167-2.72-12.289-4.9-21.528-9.993-29.114-16.032a50.888,50.888,0,0,1-8.96-9.155c-6.848-9.066-9.937-20.4-11.865-29.237a131.4,131.4,0,0,1-3.05-27.879c0-12.183,1.765-22.584,5.413-31.8C79.6,76.93,90.37,64.4,105.067,55.01c11.122-7.111,22.182-11.06,32.862-11.73,1.486-.095,3.044-.145,4.765-.145,3.24,0,6.508.168,9.675.33h.162c1.642.084,3.279.168,4.916.229,1.536.056,2.894.084,4.15.084,5.854,0,13.406-.519,19.914-4.558,4.977-3.089,8.485-7.742,11.535-12.289A61.365,61.365,0,0,0,200.4,13.088a77.8,77.8,0,0,0,2.112-7.915c.391-1.709.788-3.447,1.268-5.156h-2.329c-.419,1.558-.782,3.123-1.117,4.664a73.945,73.945,0,0,1-2.044,7.67,59.167,59.167,0,0,1-7.094,13.328c-2.91,4.357-6.239,8.787-10.853,11.652-6.016,3.743-13.172,4.217-18.73,4.217-1.229,0-2.558,0-4.061-.084-1.614-.056-3.229-.14-4.843-.223h-.218c-3.19-.162-6.491-.33-9.781-.33-1.765,0-3.352.045-4.9.145-11.088.676-22.506,4.748-33.951,12.06-15.082,9.647-26.17,22.545-32.019,37.3-3.754,9.5-5.586,20.154-5.586,32.628a134.064,134.064,0,0,0,3.111,28.338c1.977,9.072,5.156,20.668,12.239,30.108a53.356,53.356,0,0,0,9.379,9.552c7.764,6.178,17.194,11.379,29.684,16.361,2.173.866,4.536,1.765,7.262,2.743,2.419.883,4.893,1.754,7.262,2.6l.374.129,5.307,1.882,1.43.519c10.613,3.865,21.227,8.334,31.516,12.663,4.653,1.961,9.463,3.988,14.261,5.955,2.977,1.218,5.268,2.112,7.418,2.894a75.646,75.646,0,0,0,16.892,4.335,57.638,57.638,0,0,0,6.887.408c12.183,0,24.221-3.609,35.867-7.1l1.022-.307c12.848-3.843,29.717-9,46.492-14.881,10.742-3.759,20.154-7.385,28.762-11.083a283.6,283.6,0,0,0,27.371-13.591c16.551-9.356,30.075-19.143,41.336-29.918a154.391,154.391,0,0,0,25.137-31.22c6.7-11.038,11.982-22.724,17.674-35.75q1.894-4.34,3.782-8.681c4.245-9.759,8.636-19.847,13.16-29.74,2.357-5.156,4.932-10.68,7.82-16.138,1.3-2.463,2.681-4.983,3.91-7.211,4.134-7.53,8.407-15.317,11.116-23.668A68.324,68.324,0,0,0,485.515,0Z" transform="translate(-29.243 -0.004)"/><path class="b" d="M484.636,0a67.3,67.3,0,0,1-2.7,11.792c-2.664,8.217-6.876,15.942-11,23.4-1.3,2.363-2.642,4.81-3.91,7.262-2.888,5.5-5.474,11.043-7.82,16.2-4.508,9.865-8.938,19.981-13.166,29.756q-1.883,4.346-3.782,8.686c-5.675,12.982-10.915,24.623-17.585,35.583a153.383,153.383,0,0,1-24.9,30.924C388.6,174.283,375.19,184,358.717,193.3a280.59,280.59,0,0,1-27.243,13.518c-8.563,3.681-17.942,7.3-28.673,11.049-16.758,5.865-33.605,11.021-46.425,14.859l-1.022.307c-13.73,4.117-27.93,8.379-42.163,6.642a74.526,74.526,0,0,1-16.568-4.257c-2.134-.776-4.4-1.676-7.362-2.877-4.765-1.949-9.586-3.977-14.25-5.943-10.284-4.335-20.919-8.815-31.583-12.7l-1.458-.52q-2.773-1-5.586-1.977c-2.469-.866-4.938-1.737-7.4-2.631-2.7-.983-5.027-1.877-7.189-2.732-12.356-4.927-21.673-10.055-29.315-16.149a51.577,51.577,0,0,1-9.127-9.267c-6.91-9.189-10.055-20.612-11.976-29.544a132.578,132.578,0,0,1-3.067-28.047c0-12.289,1.782-22.785,5.474-32.091C79.52,76.473,90.4,63.815,105.232,54.33c11.239-7.178,22.428-11.172,33.248-11.859a127.079,127.079,0,0,1,14.523.19c1.676.084,3.352.173,5.066.235,8.139.307,16.629,0,23.617-4.351,4.849-3.011,8.3-7.586,11.295-12.082A61.789,61.789,0,0,0,200.244,12.8a75.913,75.913,0,0,0,2.084-7.82c.38-1.676.765-3.352,1.223-4.988h-.687c-.441,1.614-.816,3.24-1.184,4.837a74.9,74.9,0,0,1-2.067,7.753,60.587,60.587,0,0,1-7.184,13.512c-2.961,4.43-6.351,8.938-11.094,11.887-6.837,4.245-15.211,4.553-23.238,4.251-1.676-.061-3.352-.151-5.061-.235a127.118,127.118,0,0,0-14.6-.19c-10.932.7-22.227,4.72-33.56,11.965C89.921,63.329,78.956,76.115,73.169,90.695c-3.72,9.384-5.525,19.964-5.519,32.337a132.849,132.849,0,0,0,3.083,28.192c1.961,8.993,5.106,20.506,12.094,29.8a52.355,52.355,0,0,0,9.245,9.39c7.692,6.145,17.065,11.289,29.477,16.244,2.151.855,4.508,1.754,7.211,2.737,2.463.894,4.932,1.765,7.4,2.637q2.782.98,5.586,1.972l1.43.514c10.652,3.877,21.277,8.379,31.555,12.686,4.664,1.966,9.5,3.994,14.255,5.949,2.966,1.212,5.245,2.1,7.39,2.882a75.044,75.044,0,0,0,16.713,4.29c14.362,1.748,28.634-2.525,42.453-6.664l1.017-.3c12.848-3.843,29.7-9,46.458-14.87,10.742-3.759,20.109-7.379,28.712-11.071a280.649,280.649,0,0,0,27.31-13.546c16.5-9.329,29.969-19.076,41.18-29.8a153.847,153.847,0,0,0,25.014-31.058c6.7-11,11.943-22.657,17.624-35.666q1.894-4.34,3.782-8.681c4.257-9.775,8.653-19.892,13.166-29.751,2.357-5.156,4.938-10.686,7.82-16.171,1.274-2.424,2.614-4.865,3.91-7.228,4.117-7.5,8.379-15.255,11.054-23.534A67.065,67.065,0,0,0,485.306,0Z" transform="translate(-29.861 0)"/><path class="b" d="M538.067,0a42.787,42.787,0,0,1-2.072,9.759l-.252.855a141.506,141.506,0,0,0-4.8,22.461c-.732,5.988-.877,12.1-1.011,18.02-.134,5.737-.274,11.675-.955,17.445a140.651,140.651,0,0,1-2.743,14.987c-2.949,12.848-5.983,22.467-9.831,31.158-5.8,13.116-13.484,23.958-22.835,32.242a109.8,109.8,0,0,1-18.149,12.658,163.618,163.618,0,0,1-29.991,14c-9.926,3.352-18.719,4.96-26.868,4.96a51.553,51.553,0,0,1-16.032-2.447c-.5-.162-1-.335-1.492-.514-10.786-3.91-19.137-11.384-23.517-21s-4.849-20.9-1.4-31.952a66.683,66.683,0,0,1,6.826-14.764c2.514-4.156,5.318-8.234,8.044-12.194,4.742-6.9,9.647-14.032,13.183-21.83a152.158,152.158,0,0,0,5.541-14.92c1.223-3.737,2.519-7.6,4.016-11.295A97.754,97.754,0,0,1,436.3,13.764,93.526,93.526,0,0,1,454.507,0h-4.318a94.587,94.587,0,0,0-15.451,12.155,100.026,100.026,0,0,0-23.092,34.633c-1.5,3.748-2.793,7.63-4.033,11.384v.05a150.832,150.832,0,0,1-5.452,14.685c-3.514,7.625-8.345,14.685-13.01,21.495l-.039.056c-2.72,3.955-5.53,8.044-8.061,12.233A69.144,69.144,0,0,0,374,121.947c-3.614,11.574-3.083,23.495,1.5,33.555,4.631,10.166,13.434,18.043,24.791,22.182.514.184,1.039.363,1.564.559a53.832,53.832,0,0,0,16.73,2.558c8.379,0,17.423-1.676,27.589-5.083a165.326,165.326,0,0,0,30.4-14.183,112.019,112.019,0,0,0,18.506-12.915c9.591-8.5,17.467-19.607,23.4-33.019,3.91-8.82,6.982-18.557,9.965-31.566a141.9,141.9,0,0,0,2.793-15.222c.693-5.888.832-11.876.972-17.713s.274-11.881.994-17.747a138.728,138.728,0,0,1,4.731-22.1l.246-.843a44.38,44.38,0,0,0,2.173-10.4Z" transform="translate(-164.037 -0.004)"/><path class="b" d="M539.464,0a42.383,42.383,0,0,1-2.106,9.982l-.251.849a140.507,140.507,0,0,0-4.776,22.344c-.732,5.955-.871,12.043-1.005,17.937-.14,5.759-.274,11.73-.966,17.529a139.062,139.062,0,0,1-2.754,15.082c-2.96,12.909-6.01,22.567-9.876,31.281-5.848,13.222-13.6,24.159-23.036,32.516a110.37,110.37,0,0,1-18.272,12.747,165.111,165.111,0,0,1-30.136,14.065c-16.937,5.7-31.136,6.519-43.4,2.519-.508-.168-1.017-.341-1.519-.525-10.988-4-19.495-11.6-23.964-21.411s-4.944-21.282-1.436-32.521a67.868,67.868,0,0,1,6.91-14.931c2.525-4.173,5.335-8.262,8.055-12.216,4.726-6.876,9.613-13.965,13.127-21.724a149.713,149.713,0,0,0,5.5-14.831c1.246-3.748,2.53-7.625,4.027-11.351a98.569,98.569,0,0,1,22.752-34.136A93.785,93.785,0,0,1,453.569,0H452.29a94.562,94.562,0,0,0-16.412,12.719,99.207,99.207,0,0,0-22.9,34.37c-1.5,3.743-2.793,7.63-4.039,11.39a148.2,148.2,0,0,1-5.48,14.758c-3.486,7.686-8.379,14.775-13.066,21.623-2.726,3.966-5.541,8.061-8.077,12.25a68.3,68.3,0,0,0-6.971,15.082c-3.558,11.39-3.039,23.109,1.464,32.991,4.542,9.977,13.183,17.7,24.338,21.785.508.19,1.022.363,1.542.559,12.412,4.05,26.745,3.223,43.816-2.519a164.708,164.708,0,0,0,30.265-14.121,110.907,110.907,0,0,0,18.378-12.848c9.5-8.418,17.316-19.434,23.2-32.739,3.91-8.776,6.943-18.467,9.915-31.421a140.609,140.609,0,0,0,2.793-15.144c.693-5.843.832-11.814.966-17.59.134-5.876.274-11.948,1-17.875a139.948,139.948,0,0,1,4.759-22.227l.246-.843A44.228,44.228,0,0,0,540.168.028Z" transform="translate(-164.647 -0.004)"/></g></svg>