<svg xmlns="http://www.w3.org/2000/svg" viewBox="0 0 46 46" width="46" height="46">
	<defs>
		<clipPath clipPathUnits="userSpaceOnUse" id="cp1">
			<path d="M-17 -17L63 -17L63 63L-17 63Z" />
		</clipPath>
	</defs>
	<style>
		tspan { white-space:pre }
		.shp0 { opacity: 0.996;fill: #00AEEF } 
	</style>
	<g id="Page 16" clip-path="url(#cp1)">
		<path id="Path 51" fill-rule="evenodd" class="shp0" d="M44.63 28.95C45.06 29.31 45.18 29.92 44.9 30.41L40.37 38.25C40.1 38.74 39.5 38.96 38.98 38.75L33.34 36.48C32.16 37.38 30.88 38.13 29.51 38.71L28.65 44.71C28.57 45.26 28.09 45.67 27.54 45.66L18.47 45.66C17.91 45.67 17.44 45.26 17.36 44.71L16.5 38.71C15.13 38.14 13.84 37.4 12.67 36.49L7.03 38.76C6.51 38.96 5.92 38.74 5.65 38.26L1.11 30.42C0.83 29.93 0.95 29.31 1.38 28.96L6.17 25.22C6.07 24.49 6.01 23.74 6.01 23C6.01 22.26 6.06 21.52 6.16 20.79L1.38 17.05C0.94 16.7 0.82 16.07 1.11 15.59L5.64 7.75C5.91 7.25 6.5 7.04 7.03 7.25L12.67 9.52C13.85 8.62 15.13 7.87 16.5 7.3L17.36 1.29C17.44 0.74 17.91 0.33 18.47 0.34L27.54 0.34C28.1 0.33 28.57 0.74 28.65 1.29L29.51 7.3C30.88 7.86 32.17 8.6 33.34 9.51L38.98 7.24C39.5 7.05 40.09 7.26 40.37 7.74L44.9 15.58C45.18 16.07 45.06 16.69 44.63 17.04L39.84 20.78C39.95 21.52 40 22.26 40.01 23C40 23.74 39.95 24.49 39.84 25.22L44.63 28.95ZM30.94 23C30.94 18.62 27.38 15.07 23 15.07C18.62 15.07 15.07 18.62 15.07 23C15.07 27.38 18.62 30.93 23 30.93C27.38 30.93 30.93 27.38 30.94 23Z" />
	</g>
</svg>