<svg xmlns="http://www.w3.org/2000/svg" viewBox="0 0 56 44" width="56" height="44">
	<defs>
		<clipPath clipPathUnits="userSpaceOnUse" id="cp1">
			<path d="M-12 -18L68 -18L68 62L-12 62Z" />
		</clipPath>
	</defs>
	<style>
		tspan { white-space:pre }
		.shp0 { fill: #ffffff } 
	</style>
	<g id="Page 3" clip-path="url(#cp1)">
		<path id="Path 7" fill-rule="evenodd" class="shp0" d="M18.31 21.31C24.17 21.31 28.93 16.56 28.93 10.69C28.93 4.83 24.17 0.08 18.31 0.08C12.44 0.08 7.69 4.83 7.69 10.69C7.69 16.56 12.44 21.31 18.31 21.31L18.31 21.31ZM41.32 27.34C38.97 27.34 36.66 27.91 34.57 29C38.51 32.97 40.72 38.33 40.72 43.92L55.74 43.92C56.87 35.97 51.34 28.61 43.38 27.48C42.7 27.39 42.01 27.34 41.32 27.34L41.32 27.34ZM41.32 23.24C46.35 23.24 50.42 19.16 50.42 14.14C50.42 9.11 46.35 5.04 41.32 5.04C36.3 5.04 32.22 9.12 32.22 14.14C32.22 19.17 36.29 23.24 41.32 23.24L41.32 23.24L41.32 23.24ZM18.35 25.77C8.3 25.74 0.13 33.87 0.11 43.92L36.51 43.92C36.49 33.91 28.37 25.79 18.35 25.77Z" />
	</g>
</svg>