<svg xmlns="http://www.w3.org/2000/svg" viewBox="0 0 52 44" width="52" height="44">
	<defs>
		<clipPath clipPathUnits="userSpaceOnUse" id="cp1">
			<path d="M-14 -18L66 -18L66 62L-14 62Z" />
		</clipPath>
	</defs>
	<style>
		tspan { white-space:pre }
		.shp0 { fill: #ffffff } 
	</style>
	<g id="Page 1" clip-path="url(#cp1)">
		<path id="Path 1" fill-rule="evenodd" class="shp0" d="M46.63 42.24C45.39 43.51 43.37 43.53 42.11 42.29C40.96 41.16 40.82 39.35 41.78 38.06C46.68 31.27 46.68 22.1 41.78 15.31C35.5 6.59 23.34 4.62 14.62 10.9C5.91 17.18 3.93 29.34 10.22 38.06C11.18 39.35 11.04 41.15 9.89 42.28C9.79 42.38 9.69 42.47 9.58 42.55C8.18 43.62 6.17 43.34 5.1 41.94C-1.54 32.85 -1.54 20.51 5.1 11.42C13.53 -0.13 29.72 -2.65 41.26 5.78C52.8 14.2 55.33 30.39 46.9 41.94C46.82 42.05 46.73 42.15 46.63 42.24ZM34.04 15.57C33.48 19.47 31.52 32.54 30.31 34.94C28.86 37.77 25.41 38.91 22.57 37.5C19.74 36.1 18.58 32.68 19.97 29.86C19.98 29.84 19.99 29.83 19.99 29.81C21.21 27.41 30.6 18.04 33.39 15.25C33.53 15.1 33.77 15.09 33.92 15.23C34.02 15.31 34.06 15.44 34.04 15.57Z" />
	</g>
</svg>