<svg xmlns="http://www.w3.org/2000/svg" viewBox="0 0 31 28" width="31" height="28">
	<defs>
		<clipPath clipPathUnits="userSpaceOnUse" id="cp1">
			<path d="M-10.33 -11.45L41.33 -11.45L41.33 39.45L-10.33 39.45L-10.33 -11.45Z" />
		</clipPath>
	</defs>
	<style>
		tspan { white-space:pre }
		.shp0 { fill: #00aeef } 
	</style>
	<g id="Clip-Path: Page 13" clip-path="url(#cp1)">
		<g id="Page 13">
			<path id="Path 41" fill-rule="evenodd" class="shp0" d="M30.73 22.55C30.73 25.38 28.4 27.68 25.53 27.68L5.48 27.68C4.56 27.68 3.66 27.44 2.87 26.99C0.39 25.58 -0.47 22.44 0.97 19.99L10.99 2.88C11.45 2.11 12.11 1.46 12.9 1.01C15.38 -0.41 18.57 0.43 20 2.88L30.03 19.99C30.49 20.77 30.73 21.66 30.73 22.55ZM26.96 21.74L16.94 4.63C16.8 4.38 16.58 4.17 16.33 4.03C15.54 3.57 14.52 3.84 14.05 4.63L4.03 21.74C3.89 21.99 3.81 22.27 3.81 22.56C3.81 23.46 4.55 24.19 5.47 24.19L25.52 24.19C26.12 24.2 26.67 23.88 26.96 23.37C27.27 22.86 27.27 22.24 26.96 21.74ZM16.58 19.28C17.13 19.77 17.17 20.59 16.66 21.13C16.64 21.16 16.61 21.19 16.58 21.22C15.95 21.73 15.05 21.73 14.41 21.22C13.87 20.73 13.83 19.89 14.33 19.36C14.36 19.33 14.39 19.3 14.41 19.28C15.05 18.77 15.95 18.77 16.58 19.28ZM17.25 10.5L16.68 17.19C16.65 17.51 16.37 17.77 16.04 17.77L15 17.77C14.67 17.77 14.39 17.51 14.36 17.19L13.79 10.5C13.76 10.15 14.02 9.84 14.38 9.82C14.4 9.81 14.41 9.81 14.43 9.81L16.61 9.81C16.97 9.82 17.25 10.11 17.25 10.45C17.25 10.47 17.25 10.48 17.25 10.49L17.25 10.5Z" />
		</g>
	</g>
</svg>