<svg xmlns="http://www.w3.org/2000/svg" viewBox="0 0 38 41" width="38" height="41">
	<defs>
		<clipPath clipPathUnits="userSpaceOnUse" id="cp1">
			<path d="M-12.67 -11.04L50.67 -11.04L50.67 52.04L-12.67 52.04L-12.67 -11.04Z" />
		</clipPath>
	</defs>
	<style>
		tspan { white-space:pre }
		.shp0 { fill: #00aeef } 
	</style>
	<g id="Clip-Path: Page 7" clip-path="url(#cp1)">
		<g id="Page 7">
			<path id="Path 22" fill-rule="evenodd" class="shp0" d="M0.5 40.38L0.5 0.62L34.9 0.62C36.34 0.62 37.5 1.78 37.5 3.21L37.5 28.81C37.5 30.24 36.34 31.4 34.9 31.4L13.43 31.4L0.5 40.38ZM5.15 5.26L5.15 31.49L11.96 26.76L32.84 26.76L32.84 5.26L5.15 5.26ZM19 21.48L9.75 13.8L12.09 11.01L19 16.75L25.92 11.01L28.25 13.8L19 21.48Z" />
		</g>
	</g>
</svg>