<svg xmlns="http://www.w3.org/2000/svg" viewBox="0 0 60 61" width="60" height="61">
	<defs>
		<clipPath clipPathUnits="userSpaceOnUse" id="cp1">
			<path d="M-10 -10L70 -10L70 70L-10 70Z" />
		</clipPath>
	</defs>
	<style>
		tspan { white-space:pre }
		.shp0 { fill: #00aeef } 
	</style>
	<g id="Page 25" clip-path="url(#cp1)">
		<path id="Path 80" fill-rule="evenodd" class="shp0" d="M30 0C41.7 0 51.83 6.69 56.91 16.72C58.84 20.53 60 25.13 60 30C60 46.57 46.57 60 30 60C13.43 60 0 46.57 0 30C0 13.43 13.43 0 30 0ZM30 2.48C26.29 2.48 22.68 3.21 19.29 4.64C16.01 6.03 13.07 8.01 10.54 10.54C8.02 13.07 6.03 16.01 4.64 19.29C3.21 22.68 2.48 26.28 2.48 30C2.48 33.71 3.21 37.32 4.64 40.71C6.03 43.99 8.02 46.93 10.54 49.46C13.07 51.98 16.01 53.97 19.29 55.35C22.68 56.79 26.29 57.52 30 57.52C33.71 57.52 37.32 56.79 40.71 55.35C43.99 53.97 46.93 51.98 49.46 49.46C51.98 46.93 53.97 43.99 55.36 40.71C56.79 37.32 57.52 33.71 57.52 30C57.52 25.69 56.54 21.49 54.69 17.84C52.37 13.25 48.88 9.4 44.61 6.7C40.25 3.94 35.19 2.48 30 2.48ZM26.54 34.88L34.08 34.88L34.08 37.84L26.54 37.84L26.54 34.88ZM41.3 25.55L38.55 25.55L38.55 24.18L22.07 24.18L22.07 25.55L19.32 25.55L19.32 24.18C19.33 22.66 20.55 21.43 22.07 21.43L38.55 21.43C40.07 21.43 41.29 22.66 41.3 24.18L41.3 25.55ZM38.55 18.86L35.8 18.86L35.8 17.48L24.82 17.48L24.82 18.86L22.07 18.86L22.07 17.48C22.07 15.97 23.3 14.74 24.82 14.74L35.8 14.74C37.32 14.74 38.55 15.97 38.55 17.48L38.55 18.86Z" />
		<path id="Path 81" fill-rule="evenodd" class="shp0" d="M44.04 30.87C44.04 30.98 44.03 31.09 44 31.2L41.25 42.19C40.63 44.19 39.44 44.6 38.54 44.6L22.31 44.6C21.42 44.6 20.23 44.19 19.61 42.19L16.86 31.2C16.83 31.09 16.82 30.98 16.82 30.87C16.82 29.35 18.05 28.12 19.57 28.12L41.3 28.12C42.81 28.13 44.04 29.35 44.04 30.87ZM40.67 31.2L20.2 31.2L22.71 41.47L38.16 41.47L40.67 31.2Z" />
	</g>
</svg>