<svg xmlns="http://www.w3.org/2000/svg" viewBox="0 0 18 13" width="18" height="13">
	<defs>
		<clipPath clipPathUnits="userSpaceOnUse" id="cp1">
			<path d="M-618 -390L342 -390L342 150L-618 150Z" />
		</clipPath>
		<clipPath clipPathUnits="userSpaceOnUse" id="cp2">
			<path d="M0.5 0.22L17.95 0.22L17.95 12.48L0.5 12.48L0.5 0.22Z" />
		</clipPath>
	</defs>
	<style>
		tspan { white-space:pre }
		.shp0 { fill: #00aeef } 
	</style>
	<g id="Main View – 1" clip-path="url(#cp1)">
		<g id="Group 48">
			<g id="Group 47" clip-path="url(#cp2)">
				<path id="Path 54" class="shp0" d="M13.59 4.17C12.14 4.17 11.4 3.39 10.81 2.77C10.25 2.18 9.93 1.88 9.23 1.88C8.52 1.88 8.2 2.18 7.64 2.77C7.05 3.39 6.31 4.17 4.86 4.17C3.42 4.17 2.68 3.39 2.08 2.77C1.53 2.18 1.2 1.88 0.5 1.88L0.5 0.22C1.95 0.22 2.69 1 3.28 1.62C3.84 2.21 4.16 2.51 4.86 2.51C5.57 2.51 5.89 2.21 6.44 1.62C7.04 1 7.78 0.22 9.23 0.22C10.67 0.22 11.41 1 12.01 1.62C12.56 2.21 12.89 2.51 13.59 2.51C14.29 2.51 14.61 2.21 15.17 1.62C15.76 1 16.51 0.22 17.95 0.22L17.95 1.88C17.25 1.88 16.93 2.18 16.37 2.77C15.77 3.39 15.03 4.17 13.59 4.17Z" />
				<path id="Path 55" class="shp0" d="M13.59 8.32C12.14 8.32 11.4 7.54 10.81 6.92C10.25 6.34 9.93 6.03 9.23 6.03C8.52 6.03 8.2 6.34 7.64 6.92C7.05 7.54 6.31 8.32 4.86 8.32C3.42 8.32 2.68 7.54 2.08 6.92C1.53 6.34 1.2 6.03 0.5 6.03L0.5 4.38C1.95 4.38 2.69 5.15 3.28 5.78C3.84 6.36 4.16 6.67 4.86 6.67C5.57 6.67 5.89 6.36 6.44 5.78C7.04 5.15 7.78 4.38 9.23 4.38C10.67 4.38 11.41 5.15 12.01 5.78C12.56 6.36 12.89 6.67 13.59 6.67C14.29 6.67 14.61 6.36 15.17 5.78C15.76 5.15 16.51 4.38 17.95 4.38L17.95 6.03C17.25 6.03 16.93 6.34 16.37 6.92C15.77 7.54 15.03 8.32 13.59 8.32Z" />
				<path id="Path 56" class="shp0" d="M13.59 12.48C12.14 12.48 11.4 11.7 10.81 11.07C10.25 10.49 9.93 10.19 9.23 10.19C8.52 10.19 8.2 10.49 7.64 11.07C7.05 11.7 6.31 12.48 4.86 12.48C3.42 12.48 2.68 11.7 2.08 11.07C1.53 10.49 1.2 10.19 0.5 10.19L0.5 8.53C1.95 8.53 2.69 9.31 3.28 9.93C3.84 10.51 4.16 10.82 4.86 10.82C5.57 10.82 5.89 10.51 6.44 9.93C7.04 9.31 7.78 8.53 9.23 8.53C10.67 8.53 11.41 9.31 12.01 9.93C12.56 10.51 12.89 10.82 13.59 10.82C14.29 10.82 14.61 10.51 15.17 9.93C15.76 9.31 16.51 8.53 17.95 8.53L17.95 10.19C17.25 10.19 16.93 10.49 16.37 11.07C15.77 11.7 15.03 12.48 13.59 12.48Z" />
			</g>
		</g>
	</g>
</svg>